<svg width="272" height="86" viewBox="0 0 272 86" fill="none" xmlns="http://www.w3.org/2000/svg">
<circle cx="19.6267" cy="18.8274" r="6.74142" stroke="#2A2A2A" stroke-width="1.5" stroke-linecap="round" stroke-linejoin="round"/>
<path d="M24.3154 23.8672L26.9584 26.5033" stroke="#2A2A2A" stroke-width="1.5" stroke-linecap="round" stroke-linejoin="round"/>
<circle cx="78.6267" cy="18.8274" r="6.74142" stroke="#2A2A2A" stroke-width="1.5" stroke-linecap="round" stroke-linejoin="round"/>
<path d="M83.3154 23.8672L85.9584 26.5033" stroke="#2A2A2A" stroke-width="1.5" stroke-linecap="round" stroke-linejoin="round"/>
<circle cx="137.627" cy="18.8274" r="6.74142" stroke="#2A2A2A" stroke-width="1.5" stroke-linecap="round" stroke-linejoin="round"/>
<path d="M142.315 23.8672L144.958 26.5033" stroke="#2A2A2A" stroke-width="1.5" stroke-linecap="round" stroke-linejoin="round"/>
<circle cx="196.627" cy="18.8274" r="6.74142" stroke="#2A2A2A" stroke-width="1.5" stroke-linecap="round" stroke-linejoin="round"/>
<path d="M201.315 23.8672L203.958 26.5033" stroke="#2A2A2A" stroke-width="1.5" stroke-linecap="round" stroke-linejoin="round"/>
<path d="M7.12176 79.144C6.00176 79.144 5.04176 78.9093 4.24176 78.44C3.44176 77.9707 2.82309 77.304 2.38576 76.44C1.95909 75.5653 1.74576 74.536 1.74576 73.352C1.74576 72.4667 1.86842 71.672 2.11376 70.968C2.35909 70.2533 2.71109 69.6453 3.16976 69.144C3.62842 68.632 4.18842 68.2427 4.84976 67.976C5.52176 67.7093 6.27909 67.576 7.12176 67.576C7.76176 67.576 8.37509 67.6667 8.96176 67.848C9.55909 68.0293 10.0711 68.2853 10.4978 68.616C10.6684 68.7333 10.7804 68.8667 10.8338 69.016C10.8871 69.1653 10.8924 69.3093 10.8498 69.448C10.8178 69.576 10.7484 69.688 10.6418 69.784C10.5458 69.8693 10.4231 69.9173 10.2738 69.928C10.1244 69.928 9.96442 69.8693 9.79376 69.752C9.42042 69.464 9.00976 69.256 8.56176 69.128C8.12442 68.9893 7.65509 68.92 7.15376 68.92C6.33242 68.92 5.63376 69.096 5.05776 69.448C4.49242 69.7893 4.06042 70.2907 3.76176 70.952C3.47376 71.6027 3.32976 72.4027 3.32976 73.352C3.32976 74.2907 3.47376 75.096 3.76176 75.768C4.06042 76.4293 4.49242 76.936 5.05776 77.288C5.63376 77.6293 6.33242 77.8 7.15376 77.8C7.65509 77.8 8.12976 77.7307 8.57776 77.592C9.03643 77.4533 9.45776 77.24 9.84176 76.952C10.0124 76.8347 10.1671 76.7813 10.3058 76.792C10.4551 76.8027 10.5778 76.8507 10.6738 76.936C10.7698 77.0107 10.8338 77.1173 10.8658 77.256C10.9084 77.384 10.9084 77.5173 10.8658 77.656C10.8231 77.7947 10.7271 77.9173 10.5778 78.024C10.1404 78.3973 9.61776 78.68 9.00976 78.872C8.41242 79.0533 7.78309 79.144 7.12176 79.144ZM15.5161 79.144C14.7481 79.144 14.0815 78.9787 13.5161 78.648C12.9508 78.3173 12.5135 77.848 12.2041 77.24C11.8948 76.632 11.7401 75.9173 11.7401 75.096C11.7401 74.4773 11.8255 73.9227 11.9961 73.432C12.1775 72.9307 12.4335 72.504 12.7641 72.152C13.0948 71.8 13.4895 71.5333 13.9481 71.352C14.4175 71.16 14.9401 71.064 15.5161 71.064C16.2841 71.064 16.9508 71.2293 17.5161 71.56C18.0815 71.8907 18.5188 72.36 18.8281 72.968C19.1375 73.5653 19.2921 74.2747 19.2921 75.096C19.2921 75.7147 19.2015 76.2747 19.0201 76.776C18.8495 77.2773 18.5988 77.704 18.2681 78.056C17.9375 78.408 17.5375 78.68 17.0681 78.872C16.6095 79.0533 16.0921 79.144 15.5161 79.144ZM15.5161 77.992C15.9855 77.992 16.3908 77.88 16.7321 77.656C17.0841 77.432 17.3508 77.1067 17.5321 76.68C17.7241 76.2533 17.8201 75.7253 17.8201 75.096C17.8201 74.1573 17.6121 73.4427 17.1961 72.952C16.7801 72.4613 16.2201 72.216 15.5161 72.216C15.0575 72.216 14.6521 72.328 14.3001 72.552C13.9588 72.7653 13.6921 73.0853 13.5001 73.512C13.3081 73.9387 13.2121 74.4667 13.2121 75.096C13.2121 76.0347 13.4201 76.7547 13.8361 77.256C14.2628 77.7467 14.8228 77.992 15.5161 77.992ZM21.8773 81.992C21.6533 81.992 21.4773 81.928 21.3493 81.8C21.2213 81.672 21.1573 81.4907 21.1573 81.256V71.832C21.1573 71.5867 21.2213 71.4053 21.3493 71.288C21.4773 71.16 21.6533 71.096 21.8773 71.096C22.1119 71.096 22.2879 71.16 22.4053 71.288C22.5333 71.4053 22.5973 71.5867 22.5973 71.832V73.288L22.4213 73C22.5919 72.4133 22.9279 71.944 23.4293 71.592C23.9306 71.24 24.5333 71.064 25.2373 71.064C25.9306 71.064 26.5333 71.2293 27.0453 71.56C27.5573 71.88 27.9573 72.344 28.2453 72.952C28.5333 73.5493 28.6773 74.264 28.6773 75.096C28.6773 75.9173 28.5333 76.6373 28.2453 77.256C27.9679 77.864 27.5679 78.3333 27.0453 78.664C26.5333 78.984 25.9306 79.144 25.2373 79.144C24.5439 79.144 23.9466 78.968 23.4453 78.616C22.9439 78.264 22.6079 77.8 22.4373 77.224H22.6133V81.256C22.6133 81.4907 22.5493 81.672 22.4213 81.8C22.2933 81.928 22.1119 81.992 21.8773 81.992ZM24.9013 77.992C25.3599 77.992 25.7599 77.88 26.1013 77.656C26.4533 77.432 26.7253 77.1067 26.9173 76.68C27.1093 76.2533 27.2053 75.7253 27.2053 75.096C27.2053 74.1573 26.9973 73.4427 26.5813 72.952C26.1653 72.4613 25.6053 72.216 24.9013 72.216C24.4319 72.216 24.0213 72.328 23.6693 72.552C23.3279 72.7653 23.0613 73.0853 22.8693 73.512C22.6879 73.9387 22.5973 74.4667 22.5973 75.096C22.5973 76.0347 22.8053 76.7547 23.2213 77.256C23.6373 77.7467 24.1973 77.992 24.9013 77.992ZM32.2149 81.992C32.0442 81.992 31.9002 81.944 31.7829 81.848C31.6762 81.7627 31.6122 81.64 31.5909 81.48C31.5802 81.3307 31.6122 81.1707 31.6869 81L32.7749 78.536V79.144L29.7509 72.104C29.6762 71.9227 29.6495 71.7573 29.6709 71.608C29.6922 71.4587 29.7615 71.336 29.8789 71.24C30.0069 71.144 30.1775 71.096 30.3909 71.096C30.5722 71.096 30.7162 71.1387 30.8229 71.224C30.9295 71.3093 31.0309 71.4587 31.1269 71.672L33.6389 77.864H33.1909L35.7509 71.672C35.8362 71.4587 35.9375 71.3093 36.0549 71.224C36.1722 71.1387 36.3322 71.096 36.5349 71.096C36.7162 71.096 36.8549 71.144 36.9509 71.24C37.0575 71.336 37.1215 71.4587 37.1429 71.608C37.1642 71.7573 37.1322 71.9173 37.0469 72.088L33.0149 81.416C32.9082 81.64 32.7962 81.7893 32.6789 81.864C32.5722 81.9493 32.4175 81.992 32.2149 81.992ZM39.4405 79.112C39.1952 79.112 39.0085 79.048 38.8805 78.92C38.7525 78.792 38.6885 78.6053 38.6885 78.36V71.832C38.6885 71.5867 38.7525 71.4053 38.8805 71.288C39.0085 71.16 39.1845 71.096 39.4085 71.096C39.6325 71.096 39.8032 71.16 39.9205 71.288C40.0485 71.4053 40.1125 71.5867 40.1125 71.832V73.064H39.9525C40.1232 72.424 40.4432 71.9387 40.9125 71.608C41.3818 71.2773 41.9738 71.0907 42.6885 71.048C42.8592 71.0373 42.9978 71.08 43.1045 71.176C43.2112 71.2613 43.2698 71.4107 43.2805 71.624C43.2912 71.8267 43.2432 71.992 43.1365 72.12C43.0298 72.2373 42.8645 72.3067 42.6405 72.328L42.3525 72.344C41.6485 72.4187 41.1045 72.648 40.7205 73.032C40.3472 73.416 40.1605 73.944 40.1605 74.616V78.36C40.1605 78.6053 40.0965 78.792 39.9685 78.92C39.8512 79.048 39.6752 79.112 39.4405 79.112ZM45.2523 79.08C45.0283 79.08 44.8523 79.0107 44.7243 78.872C44.5963 78.7333 44.5323 78.5413 44.5323 78.296V71.912C44.5323 71.656 44.5963 71.464 44.7243 71.336C44.8523 71.1973 45.0283 71.128 45.2523 71.128C45.4869 71.128 45.6683 71.1973 45.7963 71.336C45.9243 71.464 45.9883 71.656 45.9883 71.912V78.296C45.9883 78.5413 45.9243 78.7333 45.7963 78.872C45.6789 79.0107 45.4976 79.08 45.2523 79.08ZM45.2523 69.4C44.9643 69.4 44.7349 69.3253 44.5643 69.176C44.4043 69.016 44.3243 68.808 44.3243 68.552C44.3243 68.2747 44.4043 68.0667 44.5643 67.928C44.7349 67.7787 44.9643 67.704 45.2523 67.704C45.5616 67.704 45.7909 67.7787 45.9403 67.928C46.1003 68.0667 46.1803 68.2747 46.1803 68.552C46.1803 68.808 46.1003 69.016 45.9403 69.176C45.7909 69.3253 45.5616 69.4 45.2523 69.4ZM51.8331 82.024C51.2571 82.024 50.6971 81.96 50.1531 81.832C49.6198 81.704 49.1345 81.5067 48.6971 81.24C48.5585 81.1547 48.4625 81.0533 48.4091 80.936C48.3665 80.8293 48.3558 80.7173 48.3771 80.6C48.4091 80.4827 48.4625 80.376 48.5371 80.28C48.6225 80.1947 48.7185 80.136 48.8251 80.104C48.9425 80.0827 49.0598 80.1093 49.1771 80.184C49.6465 80.4507 50.0945 80.632 50.5211 80.728C50.9478 80.824 51.3531 80.872 51.7371 80.872C52.4945 80.872 53.0598 80.6747 53.4331 80.28C53.8171 79.896 54.0091 79.3307 54.0091 78.584V76.856H54.1531C54.0038 77.4533 53.6678 77.928 53.1451 78.28C52.6331 78.632 52.0358 78.808 51.3531 78.808C50.6491 78.808 50.0358 78.648 49.5131 78.328C48.9905 77.9973 48.5851 77.544 48.2971 76.968C48.0091 76.3813 47.8651 75.704 47.8651 74.936C47.8651 74.3493 47.9451 73.8213 48.1051 73.352C48.2758 72.872 48.5105 72.4667 48.8091 72.136C49.1185 71.7947 49.4865 71.5333 49.9131 71.352C50.3398 71.16 50.8198 71.064 51.3531 71.064C52.0465 71.064 52.6491 71.24 53.1611 71.592C53.6731 71.944 54.0038 72.4187 54.1531 73.016L53.9771 73.24V71.832C53.9771 71.5867 54.0411 71.4053 54.1691 71.288C54.2971 71.16 54.4785 71.096 54.7131 71.096C54.9371 71.096 55.1131 71.16 55.2411 71.288C55.3691 71.4053 55.4331 71.5867 55.4331 71.832V78.392C55.4331 79.5973 55.1238 80.504 54.5051 81.112C53.8971 81.72 53.0065 82.024 51.8331 82.024ZM51.6731 77.656C52.1531 77.656 52.5638 77.5493 52.9051 77.336C53.2571 77.112 53.5238 76.7973 53.7051 76.392C53.8971 75.976 53.9931 75.4907 53.9931 74.936C53.9931 74.0933 53.7851 73.432 53.3691 72.952C52.9531 72.4613 52.3878 72.216 51.6731 72.216C51.1931 72.216 50.7771 72.328 50.4251 72.552C50.0838 72.7653 49.8171 73.0747 49.6251 73.48C49.4331 73.8853 49.3371 74.3707 49.3371 74.936C49.3371 75.768 49.5451 76.4293 49.9611 76.92C50.3878 77.4107 50.9585 77.656 51.6731 77.656ZM58.4866 79.112C58.2626 79.112 58.0866 79.048 57.9586 78.92C57.8306 78.792 57.7666 78.6053 57.7666 78.36V68.344C57.7666 68.0987 57.8306 67.9173 57.9586 67.8C58.0866 67.672 58.2626 67.608 58.4866 67.608C58.7213 67.608 58.9026 67.672 59.0306 67.8C59.1586 67.9173 59.2226 68.0987 59.2226 68.344V72.904H59.0146C59.2386 72.296 59.6013 71.8373 60.1026 71.528C60.6146 71.2187 61.196 71.064 61.8466 71.064C62.476 71.064 62.9933 71.1813 63.3986 71.416C63.804 71.64 64.108 71.9813 64.3106 72.44C64.5133 72.8987 64.6146 73.4747 64.6146 74.168V78.36C64.6146 78.6053 64.5506 78.792 64.4226 78.92C64.3053 79.048 64.1293 79.112 63.8946 79.112C63.66 79.112 63.4786 79.048 63.3506 78.92C63.2226 78.792 63.1586 78.6053 63.1586 78.36V74.248C63.1586 73.5547 63.0253 73.048 62.7586 72.728C62.492 72.408 62.0653 72.248 61.4786 72.248C60.796 72.248 60.2466 72.4613 59.8306 72.888C59.4253 73.304 59.2226 73.8693 59.2226 74.584V78.36C59.2226 78.8613 58.9773 79.112 58.4866 79.112ZM70.1549 79.144C69.5255 79.144 68.9975 79.032 68.5709 78.808C68.1549 78.584 67.8402 78.2587 67.6269 77.832C67.4242 77.4053 67.3229 76.8827 67.3229 76.264V72.328H66.2989C66.1069 72.328 65.9575 72.28 65.8509 72.184C65.7442 72.0773 65.6909 71.9387 65.6909 71.768C65.6909 71.5867 65.7442 71.448 65.8509 71.352C65.9575 71.256 66.1069 71.208 66.2989 71.208H67.3229V69.464C67.3229 69.2187 67.3869 69.0373 67.5149 68.92C67.6429 68.792 67.8242 68.728 68.0589 68.728C68.2935 68.728 68.4695 68.792 68.5869 68.92C68.7149 69.0373 68.7789 69.2187 68.7789 69.464V71.208H70.7149C70.9175 71.208 71.0722 71.256 71.1789 71.352C71.2855 71.448 71.3389 71.5867 71.3389 71.768C71.3389 71.9387 71.2855 72.0773 71.1789 72.184C71.0722 72.28 70.9175 72.328 70.7149 72.328H68.7789V76.136C68.7789 76.7227 68.9015 77.1653 69.1469 77.464C69.3922 77.7627 69.7975 77.912 70.3629 77.912C70.5655 77.912 70.7362 77.896 70.8749 77.864C71.0135 77.8213 71.1362 77.8 71.2429 77.8C71.3389 77.7893 71.4189 77.8213 71.4829 77.896C71.5575 77.9707 71.5949 78.1093 71.5949 78.312C71.5949 78.4613 71.5682 78.6 71.5149 78.728C71.4722 78.8453 71.3815 78.9253 71.2429 78.968C71.1149 79.0107 70.9442 79.048 70.7309 79.08C70.5175 79.1227 70.3255 79.144 70.1549 79.144ZM73.5956 79.064C73.3183 79.064 73.089 78.9733 72.9076 78.792C72.7263 78.6107 72.6356 78.3813 72.6356 78.104C72.6356 77.8267 72.7263 77.6027 72.9076 77.432C73.089 77.2613 73.3183 77.176 73.5956 77.176C73.8943 77.176 74.1236 77.2613 74.2836 77.432C74.4543 77.6027 74.5396 77.8267 74.5396 78.104C74.5396 78.3813 74.4543 78.6107 74.2836 78.792C74.1236 78.9733 73.8943 79.064 73.5956 79.064ZM80.8299 79.112C80.6379 79.112 80.4832 79.0693 80.3659 78.984C80.2592 78.8987 80.1952 78.7813 80.1739 78.632C80.1525 78.4827 80.1845 78.3173 80.2699 78.136L84.6379 68.248C84.7339 68.024 84.8565 67.864 85.0059 67.768C85.1552 67.6613 85.3205 67.608 85.5019 67.608C85.6832 67.608 85.8432 67.6613 85.9819 67.768C86.1312 67.864 86.2592 68.024 86.3659 68.248L90.7339 78.136C90.8192 78.3173 90.8512 78.488 90.8299 78.648C90.8192 78.7973 90.7606 78.9147 90.6539 79C90.5472 79.0747 90.3979 79.112 90.2059 79.112C89.9925 79.112 89.8219 79.0587 89.6939 78.952C89.5659 78.8347 89.4539 78.6693 89.3579 78.456L88.2219 75.8L88.9099 76.184H82.0619L82.7499 75.8L81.6139 78.456C81.5179 78.6907 81.4112 78.8613 81.2939 78.968C81.1765 79.064 81.0219 79.112 80.8299 79.112ZM85.4699 69.4L82.9739 75.304L82.5899 74.968H88.3819L88.0139 75.304L85.5019 69.4H85.4699ZM94.9803 79.144C94.1803 79.144 93.5723 78.9093 93.1563 78.44C92.7403 77.96 92.5323 77.272 92.5323 76.376V68.344C92.5323 68.0987 92.5963 67.9173 92.7243 67.8C92.8523 67.672 93.0283 67.608 93.2523 67.608C93.4869 67.608 93.6683 67.672 93.7963 67.8C93.9243 67.9173 93.9883 68.0987 93.9883 68.344V76.264C93.9883 76.8187 94.1003 77.2347 94.3243 77.512C94.5589 77.7787 94.8896 77.912 95.3163 77.912C95.4123 77.912 95.4976 77.912 95.5723 77.912C95.6469 77.9013 95.7216 77.8907 95.7963 77.88C95.9136 77.8693 95.9989 77.9013 96.0523 77.976C96.1056 78.0507 96.1323 78.2 96.1323 78.424C96.1323 78.6267 96.0843 78.7867 95.9883 78.904C95.9029 79.0107 95.7589 79.08 95.5563 79.112C95.4603 79.1227 95.3643 79.128 95.2683 79.128C95.1723 79.1387 95.0763 79.144 94.9803 79.144ZM99.7928 79.144C98.9928 79.144 98.3848 78.9093 97.9688 78.44C97.5528 77.96 97.3448 77.272 97.3448 76.376V68.344C97.3448 68.0987 97.4088 67.9173 97.5368 67.8C97.6648 67.672 97.8408 67.608 98.0648 67.608C98.2994 67.608 98.4808 67.672 98.6088 67.8C98.7368 67.9173 98.8008 68.0987 98.8008 68.344V76.264C98.8008 76.8187 98.9128 77.2347 99.1368 77.512C99.3714 77.7787 99.7021 77.912 100.129 77.912C100.225 77.912 100.31 77.912 100.385 77.912C100.459 77.9013 100.534 77.8907 100.609 77.88C100.726 77.8693 100.811 77.9013 100.865 77.976C100.918 78.0507 100.945 78.2 100.945 78.424C100.945 78.6267 100.897 78.7867 100.801 78.904C100.715 79.0107 100.571 79.08 100.369 79.112C100.273 79.1227 100.177 79.128 100.081 79.128C99.9848 79.1387 99.8888 79.144 99.7928 79.144ZM107.081 79.112C106.836 79.112 106.649 79.048 106.521 78.92C106.393 78.792 106.329 78.6053 106.329 78.36V71.832C106.329 71.5867 106.393 71.4053 106.521 71.288C106.649 71.16 106.825 71.096 107.049 71.096C107.273 71.096 107.444 71.16 107.561 71.288C107.689 71.4053 107.753 71.5867 107.753 71.832V73.064H107.593C107.764 72.424 108.084 71.9387 108.553 71.608C109.022 71.2773 109.614 71.0907 110.329 71.048C110.5 71.0373 110.638 71.08 110.745 71.176C110.852 71.2613 110.91 71.4107 110.921 71.624C110.932 71.8267 110.884 71.992 110.777 72.12C110.67 72.2373 110.505 72.3067 110.281 72.328L109.993 72.344C109.289 72.4187 108.745 72.648 108.361 73.032C107.988 73.416 107.801 73.944 107.801 74.616V78.36C107.801 78.6053 107.737 78.792 107.609 78.92C107.492 79.048 107.316 79.112 107.081 79.112ZM112.893 79.08C112.669 79.08 112.493 79.0107 112.365 78.872C112.237 78.7333 112.173 78.5413 112.173 78.296V71.912C112.173 71.656 112.237 71.464 112.365 71.336C112.493 71.1973 112.669 71.128 112.893 71.128C113.128 71.128 113.309 71.1973 113.437 71.336C113.565 71.464 113.629 71.656 113.629 71.912V78.296C113.629 78.5413 113.565 78.7333 113.437 78.872C113.32 79.0107 113.138 79.08 112.893 79.08ZM112.893 69.4C112.605 69.4 112.376 69.3253 112.205 69.176C112.045 69.016 111.965 68.808 111.965 68.552C111.965 68.2747 112.045 68.0667 112.205 67.928C112.376 67.7787 112.605 67.704 112.893 67.704C113.202 67.704 113.432 67.7787 113.581 67.928C113.741 68.0667 113.821 68.2747 113.821 68.552C113.821 68.808 113.741 69.016 113.581 69.176C113.432 69.3253 113.202 69.4 112.893 69.4ZM119.474 82.024C118.898 82.024 118.338 81.96 117.794 81.832C117.26 81.704 116.775 81.5067 116.338 81.24C116.199 81.1547 116.103 81.0533 116.05 80.936C116.007 80.8293 115.996 80.7173 116.018 80.6C116.05 80.4827 116.103 80.376 116.178 80.28C116.263 80.1947 116.359 80.136 116.466 80.104C116.583 80.0827 116.7 80.1093 116.818 80.184C117.287 80.4507 117.735 80.632 118.162 80.728C118.588 80.824 118.994 80.872 119.378 80.872C120.135 80.872 120.7 80.6747 121.074 80.28C121.458 79.896 121.65 79.3307 121.65 78.584V76.856H121.794C121.644 77.4533 121.308 77.928 120.786 78.28C120.274 78.632 119.676 78.808 118.994 78.808C118.29 78.808 117.676 78.648 117.154 78.328C116.631 77.9973 116.226 77.544 115.938 76.968C115.65 76.3813 115.506 75.704 115.506 74.936C115.506 74.3493 115.586 73.8213 115.746 73.352C115.916 72.872 116.151 72.4667 116.45 72.136C116.759 71.7947 117.127 71.5333 117.554 71.352C117.98 71.16 118.46 71.064 118.994 71.064C119.687 71.064 120.29 71.24 120.802 71.592C121.314 71.944 121.644 72.4187 121.794 73.016L121.618 73.24V71.832C121.618 71.5867 121.682 71.4053 121.81 71.288C121.938 71.16 122.119 71.096 122.354 71.096C122.578 71.096 122.754 71.16 122.882 71.288C123.01 71.4053 123.074 71.5867 123.074 71.832V78.392C123.074 79.5973 122.764 80.504 122.146 81.112C121.538 81.72 120.647 82.024 119.474 82.024ZM119.314 77.656C119.794 77.656 120.204 77.5493 120.546 77.336C120.898 77.112 121.164 76.7973 121.346 76.392C121.538 75.976 121.634 75.4907 121.634 74.936C121.634 74.0933 121.426 73.432 121.01 72.952C120.594 72.4613 120.028 72.216 119.314 72.216C118.834 72.216 118.418 72.328 118.066 72.552C117.724 72.7653 117.458 73.0747 117.266 73.48C117.074 73.8853 116.978 74.3707 116.978 74.936C116.978 75.768 117.186 76.4293 117.602 76.92C118.028 77.4107 118.599 77.656 119.314 77.656ZM126.127 79.112C125.903 79.112 125.727 79.048 125.599 78.92C125.471 78.792 125.407 78.6053 125.407 78.36V68.344C125.407 68.0987 125.471 67.9173 125.599 67.8C125.727 67.672 125.903 67.608 126.127 67.608C126.362 67.608 126.543 67.672 126.671 67.8C126.799 67.9173 126.863 68.0987 126.863 68.344V72.904H126.655C126.879 72.296 127.242 71.8373 127.743 71.528C128.255 71.2187 128.837 71.064 129.487 71.064C130.117 71.064 130.634 71.1813 131.039 71.416C131.445 71.64 131.749 71.9813 131.951 72.44C132.154 72.8987 132.255 73.4747 132.255 74.168V78.36C132.255 78.6053 132.191 78.792 132.063 78.92C131.946 79.048 131.77 79.112 131.535 79.112C131.301 79.112 131.119 79.048 130.991 78.92C130.863 78.792 130.799 78.6053 130.799 78.36V74.248C130.799 73.5547 130.666 73.048 130.399 72.728C130.133 72.408 129.706 72.248 129.119 72.248C128.437 72.248 127.887 72.4613 127.471 72.888C127.066 73.304 126.863 73.8693 126.863 74.584V78.36C126.863 78.8613 126.618 79.112 126.127 79.112ZM137.796 79.144C137.166 79.144 136.638 79.032 136.212 78.808C135.796 78.584 135.481 78.2587 135.268 77.832C135.065 77.4053 134.964 76.8827 134.964 76.264V72.328H133.94C133.748 72.328 133.598 72.28 133.492 72.184C133.385 72.0773 133.332 71.9387 133.332 71.768C133.332 71.5867 133.385 71.448 133.492 71.352C133.598 71.256 133.748 71.208 133.94 71.208H134.964V69.464C134.964 69.2187 135.028 69.0373 135.156 68.92C135.284 68.792 135.465 68.728 135.7 68.728C135.934 68.728 136.11 68.792 136.228 68.92C136.356 69.0373 136.42 69.2187 136.42 69.464V71.208H138.356C138.558 71.208 138.713 71.256 138.82 71.352C138.926 71.448 138.98 71.5867 138.98 71.768C138.98 71.9387 138.926 72.0773 138.82 72.184C138.713 72.28 138.558 72.328 138.356 72.328H136.42V76.136C136.42 76.7227 136.542 77.1653 136.788 77.464C137.033 77.7627 137.438 77.912 138.004 77.912C138.206 77.912 138.377 77.896 138.516 77.864C138.654 77.8213 138.777 77.8 138.884 77.8C138.98 77.7893 139.06 77.8213 139.124 77.896C139.198 77.9707 139.236 78.1093 139.236 78.312C139.236 78.4613 139.209 78.6 139.156 78.728C139.113 78.8453 139.022 78.9253 138.884 78.968C138.756 79.0107 138.585 79.048 138.372 79.08C138.158 79.1227 137.966 79.144 137.796 79.144ZM142.986 79.144C142.506 79.144 142.021 79.0907 141.53 78.984C141.05 78.8667 140.597 78.6693 140.17 78.392C140.053 78.3173 139.967 78.2267 139.914 78.12C139.871 78.0027 139.855 77.8907 139.866 77.784C139.887 77.6667 139.935 77.5653 140.01 77.48C140.085 77.3947 140.175 77.3467 140.282 77.336C140.399 77.3147 140.522 77.3413 140.65 77.416C141.066 77.6507 141.466 77.816 141.85 77.912C142.245 78.008 142.634 78.056 143.018 78.056C143.605 78.056 144.047 77.9493 144.346 77.736C144.645 77.5227 144.794 77.24 144.794 76.888C144.794 76.5893 144.693 76.36 144.49 76.2C144.298 76.0293 143.994 75.9013 143.578 75.816L142.09 75.512C141.429 75.3627 140.927 75.1173 140.586 74.776C140.255 74.424 140.09 73.976 140.09 73.432C140.09 72.952 140.218 72.536 140.474 72.184C140.741 71.8213 141.109 71.544 141.578 71.352C142.047 71.16 142.586 71.064 143.194 71.064C143.663 71.064 144.106 71.128 144.522 71.256C144.949 71.3733 145.333 71.5547 145.674 71.8C145.802 71.8747 145.882 71.9707 145.914 72.088C145.957 72.1947 145.962 72.3067 145.93 72.424C145.909 72.5307 145.861 72.6213 145.786 72.696C145.711 72.7707 145.615 72.8187 145.498 72.84C145.381 72.8507 145.253 72.8187 145.114 72.744C144.805 72.5307 144.485 72.3813 144.154 72.296C143.834 72.2 143.514 72.152 143.194 72.152C142.618 72.152 142.181 72.264 141.882 72.488C141.594 72.712 141.45 73.0053 141.45 73.368C141.45 73.6453 141.535 73.8747 141.706 74.056C141.887 74.2373 142.17 74.3707 142.554 74.456L144.042 74.76C144.735 74.9093 145.258 75.1493 145.61 75.48C145.962 75.8 146.138 76.2373 146.138 76.792C146.138 77.5173 145.85 78.0933 145.274 78.52C144.709 78.936 143.946 79.144 142.986 79.144ZM152.956 79.112C152.711 79.112 152.524 79.048 152.396 78.92C152.268 78.792 152.204 78.6053 152.204 78.36V71.832C152.204 71.5867 152.268 71.4053 152.396 71.288C152.524 71.16 152.7 71.096 152.924 71.096C153.148 71.096 153.319 71.16 153.436 71.288C153.564 71.4053 153.628 71.5867 153.628 71.832V73.064H153.468C153.639 72.424 153.959 71.9387 154.428 71.608C154.897 71.2773 155.489 71.0907 156.204 71.048C156.375 71.0373 156.513 71.08 156.62 71.176C156.727 71.2613 156.785 71.4107 156.796 71.624C156.807 71.8267 156.759 71.992 156.652 72.12C156.545 72.2373 156.38 72.3067 156.156 72.328L155.868 72.344C155.164 72.4187 154.62 72.648 154.236 73.032C153.863 73.416 153.676 73.944 153.676 74.616V78.36C153.676 78.6053 153.612 78.792 153.484 78.92C153.367 79.048 153.191 79.112 152.956 79.112ZM161.539 79.144C160.696 79.144 159.971 78.984 159.363 78.664C158.765 78.3333 158.301 77.8693 157.971 77.272C157.64 76.664 157.475 75.9493 157.475 75.128C157.475 74.3173 157.635 73.608 157.955 73C158.285 72.392 158.733 71.9173 159.299 71.576C159.875 71.2347 160.531 71.064 161.267 71.064C161.789 71.064 162.259 71.1547 162.675 71.336C163.101 71.5067 163.464 71.7573 163.763 72.088C164.061 72.4187 164.285 72.824 164.435 73.304C164.595 73.7733 164.675 74.3067 164.675 74.904C164.675 75.0747 164.621 75.208 164.515 75.304C164.419 75.3893 164.275 75.432 164.083 75.432H158.611V74.504H163.715L163.443 74.728C163.443 74.1733 163.357 73.704 163.187 73.32C163.027 72.9253 162.787 72.6267 162.467 72.424C162.157 72.2213 161.768 72.12 161.299 72.12C160.787 72.12 160.349 72.2427 159.987 72.488C159.624 72.7227 159.347 73.0587 159.155 73.496C158.963 73.9227 158.867 74.4187 158.867 74.984V75.08C158.867 76.04 159.096 76.7653 159.555 77.256C160.013 77.7467 160.675 77.992 161.539 77.992C161.88 77.992 162.227 77.9493 162.579 77.864C162.941 77.7787 163.288 77.624 163.619 77.4C163.779 77.304 163.923 77.2613 164.051 77.272C164.189 77.272 164.301 77.3147 164.387 77.4C164.472 77.4747 164.525 77.5707 164.547 77.688C164.568 77.7947 164.552 77.912 164.499 78.04C164.445 78.168 164.344 78.28 164.195 78.376C163.843 78.6213 163.421 78.8133 162.931 78.952C162.451 79.08 161.987 79.144 161.539 79.144ZM169.173 79.144C168.693 79.144 168.208 79.0907 167.717 78.984C167.237 78.8667 166.784 78.6693 166.357 78.392C166.24 78.3173 166.155 78.2267 166.101 78.12C166.059 78.0027 166.043 77.8907 166.053 77.784C166.075 77.6667 166.123 77.5653 166.197 77.48C166.272 77.3947 166.363 77.3467 166.469 77.336C166.587 77.3147 166.709 77.3413 166.837 77.416C167.253 77.6507 167.653 77.816 168.037 77.912C168.432 78.008 168.821 78.056 169.205 78.056C169.792 78.056 170.235 77.9493 170.533 77.736C170.832 77.5227 170.981 77.24 170.981 76.888C170.981 76.5893 170.88 76.36 170.677 76.2C170.485 76.0293 170.181 75.9013 169.765 75.816L168.277 75.512C167.616 75.3627 167.115 75.1173 166.773 74.776C166.443 74.424 166.277 73.976 166.277 73.432C166.277 72.952 166.405 72.536 166.661 72.184C166.928 71.8213 167.296 71.544 167.765 71.352C168.235 71.16 168.773 71.064 169.381 71.064C169.851 71.064 170.293 71.128 170.709 71.256C171.136 71.3733 171.52 71.5547 171.861 71.8C171.989 71.8747 172.069 71.9707 172.101 72.088C172.144 72.1947 172.149 72.3067 172.117 72.424C172.096 72.5307 172.048 72.6213 171.973 72.696C171.899 72.7707 171.803 72.8187 171.685 72.84C171.568 72.8507 171.44 72.8187 171.301 72.744C170.992 72.5307 170.672 72.3813 170.341 72.296C170.021 72.2 169.701 72.152 169.381 72.152C168.805 72.152 168.368 72.264 168.069 72.488C167.781 72.712 167.637 73.0053 167.637 73.368C167.637 73.6453 167.723 73.8747 167.893 74.056C168.075 74.2373 168.357 74.3707 168.741 74.456L170.229 74.76C170.923 74.9093 171.445 75.1493 171.797 75.48C172.149 75.8 172.325 76.2373 172.325 76.792C172.325 77.5173 172.037 78.0933 171.461 78.52C170.896 78.936 170.133 79.144 169.173 79.144ZM177.82 79.144C176.977 79.144 176.252 78.984 175.644 78.664C175.046 78.3333 174.582 77.8693 174.252 77.272C173.921 76.664 173.756 75.9493 173.756 75.128C173.756 74.3173 173.916 73.608 174.236 73C174.566 72.392 175.014 71.9173 175.58 71.576C176.156 71.2347 176.812 71.064 177.548 71.064C178.07 71.064 178.54 71.1547 178.956 71.336C179.382 71.5067 179.745 71.7573 180.044 72.088C180.342 72.4187 180.566 72.824 180.716 73.304C180.876 73.7733 180.956 74.3067 180.956 74.904C180.956 75.0747 180.902 75.208 180.796 75.304C180.7 75.3893 180.556 75.432 180.364 75.432H174.892V74.504H179.996L179.724 74.728C179.724 74.1733 179.638 73.704 179.468 73.32C179.308 72.9253 179.068 72.6267 178.748 72.424C178.438 72.2213 178.049 72.12 177.58 72.12C177.068 72.12 176.63 72.2427 176.268 72.488C175.905 72.7227 175.628 73.0587 175.436 73.496C175.244 73.9227 175.148 74.4187 175.148 74.984V75.08C175.148 76.04 175.377 76.7653 175.836 77.256C176.294 77.7467 176.956 77.992 177.82 77.992C178.161 77.992 178.508 77.9493 178.86 77.864C179.222 77.7787 179.569 77.624 179.9 77.4C180.06 77.304 180.204 77.2613 180.332 77.272C180.47 77.272 180.582 77.3147 180.668 77.4C180.753 77.4747 180.806 77.5707 180.828 77.688C180.849 77.7947 180.833 77.912 180.78 78.04C180.726 78.168 180.625 78.28 180.476 78.376C180.124 78.6213 179.702 78.8133 179.212 78.952C178.732 79.08 178.268 79.144 177.82 79.144ZM183.519 79.112C183.273 79.112 183.087 79.048 182.959 78.92C182.831 78.792 182.767 78.6053 182.767 78.36V71.832C182.767 71.5867 182.831 71.4053 182.959 71.288C183.087 71.16 183.263 71.096 183.487 71.096C183.711 71.096 183.881 71.16 183.999 71.288C184.127 71.4053 184.191 71.5867 184.191 71.832V73.064H184.031C184.201 72.424 184.521 71.9387 184.991 71.608C185.46 71.2773 186.052 71.0907 186.767 71.048C186.937 71.0373 187.076 71.08 187.183 71.176C187.289 71.2613 187.348 71.4107 187.359 71.624C187.369 71.8267 187.321 71.992 187.215 72.12C187.108 72.2373 186.943 72.3067 186.719 72.328L186.431 72.344C185.727 72.4187 185.183 72.648 184.799 73.032C184.425 73.416 184.239 73.944 184.239 74.616V78.36C184.239 78.6053 184.175 78.792 184.047 78.92C183.929 79.048 183.753 79.112 183.519 79.112ZM192.055 79.112C191.852 79.112 191.676 79.0587 191.527 78.952C191.377 78.8453 191.249 78.6747 191.143 78.44L188.423 72.104C188.348 71.9227 188.321 71.7573 188.343 71.608C188.364 71.4587 188.433 71.336 188.551 71.24C188.679 71.144 188.849 71.096 189.063 71.096C189.244 71.096 189.388 71.1387 189.495 71.224C189.601 71.3093 189.703 71.4587 189.799 71.672L192.311 77.864H191.863L194.439 71.672C194.524 71.4587 194.62 71.3093 194.727 71.224C194.844 71.1387 195.004 71.096 195.207 71.096C195.388 71.096 195.527 71.144 195.623 71.24C195.729 71.336 195.793 71.4587 195.815 71.608C195.836 71.7573 195.804 71.9173 195.719 72.088L192.983 78.44C192.887 78.6747 192.759 78.8453 192.599 78.952C192.449 79.0587 192.268 79.112 192.055 79.112ZM200.851 79.144C200.008 79.144 199.283 78.984 198.675 78.664C198.078 78.3333 197.614 77.8693 197.283 77.272C196.952 76.664 196.787 75.9493 196.787 75.128C196.787 74.3173 196.947 73.608 197.267 73C197.598 72.392 198.046 71.9173 198.611 71.576C199.187 71.2347 199.843 71.064 200.579 71.064C201.102 71.064 201.571 71.1547 201.987 71.336C202.414 71.5067 202.776 71.7573 203.075 72.088C203.374 72.4187 203.598 72.824 203.747 73.304C203.907 73.7733 203.987 74.3067 203.987 74.904C203.987 75.0747 203.934 75.208 203.827 75.304C203.731 75.3893 203.587 75.432 203.395 75.432H197.923V74.504H203.027L202.755 74.728C202.755 74.1733 202.67 73.704 202.499 73.32C202.339 72.9253 202.099 72.6267 201.779 72.424C201.47 72.2213 201.08 72.12 200.611 72.12C200.099 72.12 199.662 72.2427 199.299 72.488C198.936 72.7227 198.659 73.0587 198.467 73.496C198.275 73.9227 198.179 74.4187 198.179 74.984V75.08C198.179 76.04 198.408 76.7653 198.867 77.256C199.326 77.7467 199.987 77.992 200.851 77.992C201.192 77.992 201.539 77.9493 201.891 77.864C202.254 77.7787 202.6 77.624 202.931 77.4C203.091 77.304 203.235 77.2613 203.363 77.272C203.502 77.272 203.614 77.3147 203.699 77.4C203.784 77.4747 203.838 77.5707 203.859 77.688C203.88 77.7947 203.864 77.912 203.811 78.04C203.758 78.168 203.656 78.28 203.507 78.376C203.155 78.6213 202.734 78.8133 202.243 78.952C201.763 79.08 201.299 79.144 200.851 79.144ZM208.774 79.144C208.091 79.144 207.489 78.984 206.966 78.664C206.454 78.3333 206.054 77.864 205.766 77.256C205.478 76.6373 205.334 75.9173 205.334 75.096C205.334 74.264 205.473 73.5493 205.75 72.952C206.038 72.344 206.438 71.88 206.95 71.56C207.473 71.2293 208.081 71.064 208.774 71.064C209.467 71.064 210.065 71.24 210.566 71.592C211.067 71.9333 211.403 72.392 211.574 72.968H211.398V68.344C211.398 68.0987 211.457 67.9173 211.574 67.8C211.702 67.672 211.883 67.608 212.118 67.608C212.353 67.608 212.534 67.672 212.662 67.8C212.79 67.9173 212.854 68.0987 212.854 68.344V78.36C212.854 78.6053 212.79 78.792 212.662 78.92C212.534 79.048 212.353 79.112 212.118 79.112C211.894 79.112 211.718 79.048 211.59 78.92C211.462 78.792 211.398 78.6053 211.398 78.36V76.904L211.574 77.192C211.414 77.7893 211.078 78.264 210.566 78.616C210.065 78.968 209.467 79.144 208.774 79.144ZM209.11 77.992C209.579 77.992 209.985 77.88 210.326 77.656C210.678 77.432 210.945 77.1067 211.126 76.68C211.318 76.2533 211.414 75.7253 211.414 75.096C211.414 74.1573 211.206 73.4427 210.79 72.952C210.374 72.4613 209.814 72.216 209.11 72.216C208.651 72.216 208.246 72.328 207.894 72.552C207.553 72.7653 207.286 73.0853 207.094 73.512C206.902 73.9387 206.806 74.4667 206.806 75.096C206.806 76.0347 207.014 76.7547 207.43 77.256C207.857 77.7467 208.417 77.992 209.11 77.992ZM215.893 79.064C215.615 79.064 215.386 78.9733 215.205 78.792C215.023 78.6107 214.933 78.3813 214.933 78.104C214.933 77.8267 215.023 77.6027 215.205 77.432C215.386 77.2613 215.615 77.176 215.893 77.176C216.191 77.176 216.421 77.2613 216.581 77.432C216.751 77.6027 216.837 77.8267 216.837 78.104C216.837 78.3813 216.751 78.6107 216.581 78.792C216.421 78.9733 216.191 79.064 215.893 79.064Z" fill="#2A2A2A"/>
</svg>
