<svg width="216" height="50" viewBox="0 0 216 50" fill="none" xmlns="http://www.w3.org/2000/svg">
<circle cx="13.5076" cy="18.7059" r="12.7059" fill="#FF5722"/>
<circle cx="19.8607" cy="29.2918" r="12.2059" fill="#009688" stroke="white"/>
<path d="M58.7695 13.5352C59.4857 14.5378 60.2148 15.8333 60.957 17.4219C61.7122 18.9974 62.4414 20.7292 63.1445 22.6172C63.8477 24.5052 64.4792 26.4388 65.0391 28.418C65.612 30.3841 66.0807 32.2786 66.4453 34.1016C66.8099 35.9245 67.0182 37.5456 67.0703 38.9648C67.0833 39.6549 66.7708 40 66.1328 40H61.4062C60.7943 40 60.4753 39.694 60.4492 39.082C60.3971 37.6237 60.1628 35.8529 59.7461 33.7695H49.082C48.7174 35.8008 48.5091 37.5716 48.457 39.082C48.431 39.694 48.099 40 47.4609 40H42.832C42.5977 40 42.4023 39.9349 42.2461 39.8047C42.0898 39.6615 42.0182 39.4206 42.0312 39.082C42.0964 37.6367 42.3047 35.9961 42.6562 34.1602C43.0208 32.3112 43.4896 30.3971 44.0625 28.418C44.6354 26.4388 45.2734 24.5052 45.9766 22.6172C46.6797 20.7161 47.4089 18.9779 48.1641 17.4023C48.9193 15.8268 49.6549 14.5378 50.3711 13.5352C50.7487 13.0013 51.1458 12.6107 51.5625 12.3633C51.9922 12.1159 52.5195 11.9922 53.1445 11.9922H55.957C56.5951 11.9922 57.1289 12.1159 57.5586 12.3633C57.9883 12.6107 58.3919 13.0013 58.7695 13.5352ZM54.3555 18.1641C53.4961 19.5312 52.7083 21.1654 51.9922 23.0664C51.276 24.9674 50.6576 26.9206 50.1367 28.9258H58.6133C58.0664 26.9206 57.4349 24.9674 56.7188 23.0664C56.0026 21.1654 55.2539 19.5312 54.4727 18.1641H54.3555ZM78.2422 40.4883C76.5104 40.4883 75.0326 40.0651 73.8086 39.2188C72.5977 38.3594 71.6732 37.181 71.0352 35.6836C70.4102 34.1732 70.0977 32.4349 70.0977 30.4688C70.0977 27.8776 70.5534 25.7812 71.4648 24.1797C72.3893 22.5651 73.6849 21.3802 75.3516 20.625C77.0312 19.8698 79.0104 19.4922 81.2891 19.4922C82.0703 19.4922 82.7148 19.5312 83.2227 19.6094C83.7435 19.6875 84.1146 19.7591 84.3359 19.8242V12.5391C84.3359 12.2266 84.401 11.9857 84.5312 11.8164C85.0781 11.1003 85.8789 10.3255 86.9336 9.49219C87.1159 9.36198 87.2786 9.29688 87.4219 9.29688C87.5911 9.29688 87.7539 9.36198 87.9102 9.49219C88.4701 9.92188 88.9388 10.3255 89.3164 10.7031C89.707 11.0807 90.0391 11.4518 90.3125 11.8164C90.4427 11.9857 90.5078 12.2266 90.5078 12.5391V39.1016C90.5078 39.349 90.4232 39.5638 90.2539 39.7461C90.0846 39.9154 89.8698 40 89.6094 40H86.6992C86.4909 40 86.3021 39.974 86.1328 39.9219C85.9766 39.8568 85.8268 39.7396 85.6836 39.5703L84.4727 38.0078H84.3359C84.1667 38.2682 83.8607 38.6003 83.418 39.0039C82.9883 39.3945 82.3568 39.7396 81.5234 40.0391C80.7031 40.3385 79.6094 40.4883 78.2422 40.4883ZM80.1367 35.4883C81.3086 35.4883 82.2266 35.2669 82.8906 34.8242C83.5677 34.3815 84.0495 33.8216 84.3359 33.1445V24.9609C84.1276 24.8307 83.7826 24.6745 83.3008 24.4922C82.819 24.3099 82.1419 24.2188 81.2695 24.2188C79.6549 24.2188 78.444 24.7461 77.6367 25.8008C76.8294 26.8555 76.4258 28.2747 76.4258 30.0586C76.4258 31.9076 76.7643 33.2747 77.4414 34.1602C78.1185 35.0456 79.0169 35.4883 80.1367 35.4883ZM115.117 21.875V37.7148C115.117 41.5169 114.03 44.4141 111.855 46.4062C109.694 48.3984 106.725 49.3945 102.949 49.3945C101.387 49.3945 100.15 49.2773 99.2383 49.043C98.3268 48.8216 97.6367 48.6068 97.168 48.3984C96.8685 48.2552 96.6732 48.1055 96.582 47.9492C96.4518 47.7409 96.3021 47.4349 96.1328 47.0312C95.9766 46.6276 95.8268 46.1849 95.6836 45.7031C95.6445 45.5208 95.638 45.3841 95.6641 45.293C95.7161 45.1628 95.8138 45.026 95.957 44.8828C96.1914 44.6484 96.5234 44.375 96.9531 44.0625C97.3958 43.75 97.7344 43.5482 97.9688 43.457C98.2161 43.3659 98.444 43.3789 98.6523 43.4961C98.9909 43.6784 99.4727 43.8802 100.098 44.1016C100.736 44.3359 101.628 44.4531 102.773 44.4531C104.596 44.4531 106.081 43.9844 107.227 43.0469C108.372 42.1094 108.945 40.6641 108.945 38.7109V38.0078H108.867C108.581 38.3724 108.21 38.7435 107.754 39.1211C107.298 39.4987 106.706 39.8177 105.977 40.0781C105.26 40.3385 104.336 40.4688 103.203 40.4688C101.237 40.4688 99.6224 40.0456 98.3594 39.1992C97.1094 38.3398 96.1849 37.1615 95.5859 35.6641C95 34.1667 94.707 32.4609 94.707 30.5469C94.707 28.4505 95.0521 26.569 95.7422 24.9023C96.4323 23.2357 97.5911 21.9206 99.2188 20.957C100.846 19.9805 103.073 19.4922 105.898 19.4922C107.591 19.4922 109.01 19.6159 110.156 19.8633C111.315 20.1107 112.285 20.4167 113.066 20.7812C113.848 21.1458 114.531 21.5104 115.117 21.875ZM105.684 24.2188C104.173 24.2188 103.021 24.7266 102.227 25.7422C101.432 26.7578 101.035 28.3333 101.035 30.4688C101.035 33.8151 102.415 35.4883 105.176 35.4883C106.257 35.4883 107.083 35.2669 107.656 34.8242C108.229 34.3815 108.659 33.8216 108.945 33.1445V25.0781C108.659 24.8698 108.255 24.6745 107.734 24.4922C107.214 24.3099 106.53 24.2188 105.684 24.2188ZM130.195 40.4883C127.995 40.4883 126.081 40.1367 124.453 39.4336C122.826 38.7174 121.562 37.6107 120.664 36.1133C119.766 34.6159 119.316 32.6823 119.316 30.3125C119.316 26.7578 120.228 24.069 122.051 22.2461C123.874 20.4232 126.296 19.5117 129.316 19.5117C131.283 19.5117 132.943 19.8633 134.297 20.5664C135.664 21.2695 136.699 22.2396 137.402 23.4766C138.118 24.7135 138.477 26.1263 138.477 27.7148C138.477 29.2643 138.079 30.3451 137.285 30.957C136.491 31.569 135.332 31.875 133.809 31.875H125.43C125.534 33.2161 126.022 34.2383 126.895 34.9414C127.78 35.6445 128.978 35.9961 130.488 35.9961C131.686 35.9961 132.643 35.8203 133.359 35.4688C134.089 35.1042 134.596 34.8177 134.883 34.6094C135.13 34.4271 135.41 34.3424 135.723 34.3555C135.97 34.3555 136.322 34.4076 136.777 34.5117C137.246 34.6029 137.708 34.7786 138.164 35.0391C138.49 35.2083 138.652 35.4427 138.652 35.7422C138.652 35.9115 138.62 36.1523 138.555 36.4648C138.516 36.6471 138.451 36.9141 138.359 37.2656C138.268 37.6042 138.151 37.9232 138.008 38.2227C137.93 38.3659 137.806 38.5026 137.637 38.6328C137.376 38.8151 136.953 39.056 136.367 39.3555C135.794 39.6549 135.007 39.9154 134.004 40.1367C133.001 40.3711 131.732 40.4883 130.195 40.4883ZM125.391 27.8711H131.758C132.422 27.8711 132.754 27.5651 132.754 26.9531C132.754 26.0286 132.461 25.2539 131.875 24.6289C131.302 23.9909 130.436 23.6719 129.277 23.6719C128.014 23.6719 127.083 24.0755 126.484 24.8828C125.898 25.6901 125.534 26.6862 125.391 27.8711ZM162.109 27.5586V38.9648C162.109 39.3555 162.025 39.6289 161.855 39.7852C161.699 39.9284 161.426 40 161.035 40H157.012C156.621 40 156.341 39.9284 156.172 39.7852C156.016 39.6289 155.938 39.3555 155.938 38.9648V28.5742C155.938 27.1549 155.638 26.1198 155.039 25.4688C154.44 24.8177 153.626 24.4922 152.598 24.4922C151.569 24.4922 150.775 24.7135 150.215 25.1562C149.668 25.599 149.245 26.1589 148.945 26.8359V38.9648C148.945 39.3555 148.861 39.6289 148.691 39.7852C148.535 39.9284 148.262 40 147.871 40H143.848C143.457 40 143.177 39.9284 143.008 39.7852C142.852 39.6289 142.773 39.3555 142.773 38.9648V22.5977C142.773 22.2852 142.839 22.0443 142.969 21.875C143.242 21.5104 143.568 21.1393 143.945 20.7617C144.336 20.3841 144.811 19.9805 145.371 19.5508C145.54 19.4206 145.703 19.3555 145.859 19.3555C146.003 19.3555 146.165 19.4206 146.348 19.5508C146.895 19.9805 147.363 20.3906 147.754 20.7812C148.145 21.1719 148.49 21.5755 148.789 21.9922H148.887C149.108 21.7057 149.44 21.3737 149.883 20.9961C150.326 20.6055 150.944 20.2604 151.738 19.9609C152.546 19.6615 153.574 19.5117 154.824 19.5117C156.048 19.5117 157.214 19.7591 158.32 20.2539C159.427 20.7487 160.332 21.582 161.035 22.7539C161.751 23.9258 162.109 25.5273 162.109 27.5586ZM168.184 31.6797C167.78 31.6797 167.578 31.4779 167.578 31.0742V27.5781C167.578 27.1745 167.78 26.9727 168.184 26.9727H177.656C178.06 26.9727 178.262 27.1745 178.262 27.5781V31.0742C178.262 31.4779 178.06 31.6797 177.656 31.6797H168.184ZM188.926 40.4883C187.012 40.4883 185.488 39.9544 184.355 38.8867C183.236 37.806 182.676 36.3216 182.676 34.4336C182.676 33.457 182.852 32.5521 183.203 31.7188C183.568 30.8724 184.193 30.1302 185.078 29.4922C185.977 28.8411 187.227 28.3203 188.828 27.9297C190.443 27.5391 192.5 27.3112 195 27.2461C195 26.0612 194.701 25.2083 194.102 24.6875C193.516 24.1667 192.63 23.9062 191.445 23.9062C190.378 23.9062 189.505 24.0885 188.828 24.4531C188.151 24.8177 187.728 25.0651 187.559 25.1953C187.376 25.3516 187.155 25.4102 186.895 25.3711C186.543 25.319 186.165 25.2279 185.762 25.0977C185.371 24.9674 184.948 24.8177 184.492 24.6484C184.427 24.6224 184.355 24.5833 184.277 24.5312C184.199 24.4661 184.154 24.375 184.141 24.2578C184.141 24.1927 184.147 24.1146 184.16 24.0234C184.173 23.9193 184.206 23.737 184.258 23.4766C184.31 23.2161 184.388 22.8971 184.492 22.5195C184.596 22.1289 184.694 21.8294 184.785 21.6211C184.902 21.3997 185.098 21.1914 185.371 20.9961C185.592 20.8138 186.263 20.5208 187.383 20.1172C188.503 19.7135 190.124 19.5117 192.246 19.5117C198.092 19.5117 201.016 22.3568 201.016 28.0469V39.1016C201.016 39.349 200.944 39.5638 200.801 39.7461C200.671 39.9154 200.443 40 200.117 40H197.188C196.979 40 196.79 39.974 196.621 39.9219C196.465 39.8568 196.315 39.7396 196.172 39.5703L194.961 38.0078H194.824C194.225 38.8802 193.418 39.5117 192.402 39.9023C191.4 40.293 190.241 40.4883 188.926 40.4883ZM191.074 35.957C192.272 35.957 193.177 35.651 193.789 35.0391C194.401 34.4271 194.792 33.7956 194.961 33.1445V30.9766C193.151 30.9766 191.79 31.1198 190.879 31.4062C189.98 31.6797 189.382 32.0443 189.082 32.5C188.783 32.9427 188.633 33.4245 188.633 33.9453C188.633 34.7005 188.867 35.2279 189.336 35.5273C189.805 35.8138 190.384 35.957 191.074 35.957ZM205.391 13.4375C205.391 13.2682 205.443 13.1185 205.547 12.9883C205.651 12.8581 205.788 12.6888 205.957 12.4805C206.322 12.0638 206.745 11.6276 207.227 11.1719C207.708 10.7031 208.197 10.2539 208.691 9.82422C209.004 9.57682 209.238 9.45312 209.395 9.45312C209.551 9.45312 209.792 9.57682 210.117 9.82422C211.172 10.7357 212.07 11.6211 212.812 12.4805C212.982 12.6758 213.118 12.8451 213.223 12.9883C213.34 13.1185 213.398 13.2682 213.398 13.4375C213.398 13.6068 213.34 13.7565 213.223 13.8867C213.118 14.0169 212.975 14.1927 212.793 14.4141C212.441 14.8177 212.031 15.2539 211.562 15.7227C211.094 16.1784 210.612 16.6146 210.117 17.0312C209.935 17.1875 209.792 17.2917 209.688 17.3438C209.583 17.3828 209.486 17.4023 209.395 17.4023C209.303 17.4023 209.206 17.3828 209.102 17.3438C209.01 17.2917 208.861 17.1875 208.652 17.0312C208.132 16.6146 207.643 16.1784 207.188 15.7227C206.732 15.2539 206.322 14.8047 205.957 14.375C205.788 14.1667 205.651 14.0039 205.547 13.8867C205.443 13.7565 205.391 13.6068 205.391 13.4375ZM212.461 38.9648C212.461 39.3555 212.376 39.6289 212.207 39.7852C212.051 39.9284 211.777 40 211.387 40H207.363C206.973 40 206.693 39.9284 206.523 39.7852C206.367 39.6289 206.289 39.3555 206.289 38.9648V21.0352C206.289 20.6445 206.367 20.3776 206.523 20.2344C206.693 20.0781 206.973 20 207.363 20H211.387C211.777 20 212.051 20.0781 212.207 20.2344C212.376 20.3776 212.461 20.6445 212.461 21.0352V38.9648Z" fill="#001311"/>
</svg>
