<svg width="60" height="60" viewBox="0 0 60 60" fill="none" xmlns="http://www.w3.org/2000/svg">
<path d="M13.2694 51.25C12.0065 51.25 10.9375 50.8125 10.0625 49.9375C9.1875 49.0625 8.75 47.9935 8.75 46.7306V13.2694C8.75 12.0065 9.1875 10.9375 10.0625 10.0625C10.9375 9.1875 12.0065 8.75 13.2694 8.75H46.7306C47.9935 8.75 49.0625 9.1875 49.9375 10.0625C50.8125 10.9375 51.25 12.0065 51.25 13.2694V46.7306C51.25 47.9935 50.8125 49.0625 49.9375 49.9375C49.0625 50.8125 47.9935 51.25 46.7306 51.25H13.2694ZM13.2694 47.5H28.125V12.5H13.2694C13.0769 12.5 12.9006 12.5802 12.7406 12.7406C12.5802 12.9006 12.5 13.0769 12.5 13.2694V46.7306C12.5 46.9231 12.5802 47.0994 12.7406 47.2594C12.9006 47.4198 13.0769 47.5 13.2694 47.5ZM31.875 47.5H46.7306C46.9231 47.5 47.0994 47.4198 47.2594 47.2594C47.4198 47.0994 47.5 46.9231 47.5 46.7306V30H31.875V47.5ZM31.875 26.25H47.5V13.2694C47.5 13.0769 47.4198 12.9006 47.2594 12.7406C47.0994 12.5802 46.9231 12.5 46.7306 12.5H31.875V26.25Z" fill="#B800B8"/>
</svg>
