<svg width="167" height="32" viewBox="0 0 167 32" fill="none" xmlns="http://www.w3.org/2000/svg">
<path d="M37.9961 32H50.9138L18.914 0H5.99609L37.9961 32Z" fill="#94A3B8"/>
<path d="M25.5498 1.63716e-06L56.3972 30.8474V0H48.0493V9.73909L38.3102 0L25.5498 1.63716e-06Z" fill="#94A3B8"/>
<path d="M0.587891 1.07031V31.9989H8.93571V22.2597L18.6747 31.9989H31.5165L0.587891 1.07031Z" fill="#94A3B8"/>
<path d="M72.8584 9.85547L68.2178 24H64.4795L70.8193 6.9375H73.1982L72.8584 9.85547ZM76.7139 24L72.0615 9.85547L71.6865 6.9375H74.0889L80.4639 24H76.7139ZM76.5029 17.6484V20.4023H67.4912V17.6484H76.5029ZM85.21 14.0859V24H81.835V11.3203H85.0107L85.21 14.0859ZM89.0303 11.2383L88.9717 14.3672C88.8076 14.3438 88.6084 14.3242 88.374 14.3086C88.1475 14.2852 87.9404 14.2734 87.7529 14.2734C87.2764 14.2734 86.8623 14.3359 86.5107 14.4609C86.167 14.5781 85.8779 14.7539 85.6436 14.9883C85.417 15.2227 85.2451 15.5078 85.1279 15.8438C85.0186 16.1797 84.9561 16.5625 84.9404 16.9922L84.2607 16.7812C84.2607 15.9609 84.3428 15.207 84.5068 14.5195C84.6709 13.8242 84.9092 13.2188 85.2217 12.7031C85.542 12.1875 85.9326 11.7891 86.3936 11.5078C86.8545 11.2266 87.3818 11.0859 87.9756 11.0859C88.1631 11.0859 88.3545 11.1016 88.5498 11.1328C88.7451 11.1562 88.9053 11.1914 89.0303 11.2383ZM97.4209 11.3203V13.7109H90.0381V11.3203H97.4209ZM91.8662 8.19141H95.2412V20.1797C95.2412 20.5469 95.2881 20.8281 95.3818 21.0234C95.4834 21.2188 95.6318 21.3555 95.8271 21.4336C96.0225 21.5039 96.2686 21.5391 96.5654 21.5391C96.7764 21.5391 96.9639 21.5312 97.1279 21.5156C97.2998 21.4922 97.4443 21.4688 97.5615 21.4453L97.5732 23.9297C97.2842 24.0234 96.9717 24.0977 96.6357 24.1523C96.2998 24.207 95.9287 24.2344 95.5225 24.2344C94.7803 24.2344 94.1318 24.1133 93.5771 23.8711C93.0303 23.6211 92.6084 23.2227 92.3115 22.6758C92.0146 22.1289 91.8662 21.4102 91.8662 20.5195V8.19141ZM105.706 20.4375L109.726 6.9375H113.64L107.698 24H105.12L105.706 20.4375ZM102.003 6.9375L106.011 20.4375L106.62 24H104.019L98.1123 6.9375H102.003ZM120.343 24.2344C119.358 24.2344 118.476 24.0781 117.694 23.7656C116.913 23.4453 116.249 23.0039 115.702 22.4414C115.163 21.8789 114.749 21.2266 114.46 20.4844C114.171 19.7344 114.026 18.9375 114.026 18.0938V17.625C114.026 16.6641 114.163 15.7852 114.437 14.9883C114.71 14.1914 115.101 13.5 115.608 12.9141C116.124 12.3281 116.749 11.8789 117.483 11.5664C118.218 11.2461 119.046 11.0859 119.968 11.0859C120.866 11.0859 121.663 11.2344 122.358 11.5312C123.054 11.8281 123.636 12.25 124.104 12.7969C124.581 13.3438 124.94 14 125.183 14.7656C125.425 15.5234 125.546 16.3672 125.546 17.2969V18.7031H115.468V16.4531H122.229V16.1953C122.229 15.7266 122.144 15.3086 121.972 14.9414C121.808 14.5664 121.558 14.2695 121.222 14.0508C120.886 13.832 120.456 13.7227 119.933 13.7227C119.487 13.7227 119.104 13.8203 118.784 14.0156C118.464 14.2109 118.202 14.4844 117.999 14.8359C117.804 15.1875 117.655 15.6016 117.554 16.0781C117.46 16.5469 117.413 17.0625 117.413 17.625V18.0938C117.413 18.6016 117.483 19.0703 117.624 19.5C117.772 19.9297 117.979 20.3008 118.245 20.6133C118.519 20.9258 118.847 21.168 119.229 21.3398C119.62 21.5117 120.062 21.5977 120.554 21.5977C121.163 21.5977 121.729 21.4805 122.253 21.2461C122.784 21.0039 123.241 20.6406 123.624 20.1562L125.265 21.9375C124.999 22.3203 124.636 22.6875 124.175 23.0391C123.722 23.3906 123.175 23.6797 122.534 23.9062C121.894 24.125 121.163 24.2344 120.343 24.2344ZM130.772 14.0273V24H127.397V11.3203H130.562L130.772 14.0273ZM130.28 17.2148H129.366C129.366 16.2773 129.487 15.4336 129.729 14.6836C129.972 13.9258 130.312 13.2812 130.749 12.75C131.187 12.2109 131.706 11.8008 132.308 11.5195C132.917 11.2305 133.597 11.0859 134.347 11.0859C134.94 11.0859 135.483 11.1719 135.976 11.3438C136.468 11.5156 136.89 11.7891 137.241 12.1641C137.601 12.5391 137.874 13.0352 138.062 13.6523C138.257 14.2695 138.354 15.0234 138.354 15.9141V24H134.956V15.9023C134.956 15.3398 134.878 14.9023 134.722 14.5898C134.565 14.2773 134.335 14.0586 134.03 13.9336C133.733 13.8008 133.366 13.7344 132.929 13.7344C132.476 13.7344 132.081 13.8242 131.745 14.0039C131.417 14.1836 131.144 14.4336 130.925 14.7539C130.714 15.0664 130.554 15.4336 130.444 15.8555C130.335 16.2773 130.28 16.7305 130.28 17.2148ZM148.421 20.9648V11.3203H151.796V24H148.62L148.421 20.9648ZM148.796 18.3633L149.792 18.3398C149.792 19.1836 149.694 19.9688 149.499 20.6953C149.304 21.4141 149.011 22.0391 148.62 22.5703C148.229 23.0938 147.737 23.5039 147.144 23.8008C146.55 24.0898 145.851 24.2344 145.046 24.2344C144.429 24.2344 143.858 24.1484 143.335 23.9766C142.819 23.7969 142.374 23.5195 141.999 23.1445C141.632 22.7617 141.343 22.2734 141.132 21.6797C140.929 21.0781 140.827 20.3555 140.827 19.5117V11.3203H144.202V19.5352C144.202 19.9102 144.245 20.2266 144.331 20.4844C144.425 20.7422 144.554 20.9531 144.718 21.1172C144.882 21.2812 145.073 21.3984 145.292 21.4688C145.519 21.5391 145.769 21.5742 146.042 21.5742C146.737 21.5742 147.284 21.4336 147.683 21.1523C148.089 20.8711 148.374 20.4883 148.538 20.0039C148.71 19.5117 148.796 18.9648 148.796 18.3633ZM160.21 24.2344C159.226 24.2344 158.343 24.0781 157.562 23.7656C156.78 23.4453 156.116 23.0039 155.569 22.4414C155.03 21.8789 154.616 21.2266 154.327 20.4844C154.038 19.7344 153.894 18.9375 153.894 18.0938V17.625C153.894 16.6641 154.03 15.7852 154.304 14.9883C154.577 14.1914 154.968 13.5 155.476 12.9141C155.991 12.3281 156.616 11.8789 157.351 11.5664C158.085 11.2461 158.913 11.0859 159.835 11.0859C160.733 11.0859 161.53 11.2344 162.226 11.5312C162.921 11.8281 163.503 12.25 163.972 12.7969C164.448 13.3438 164.808 14 165.05 14.7656C165.292 15.5234 165.413 16.3672 165.413 17.2969V18.7031H155.335V16.4531H162.097V16.1953C162.097 15.7266 162.011 15.3086 161.839 14.9414C161.675 14.5664 161.425 14.2695 161.089 14.0508C160.753 13.832 160.323 13.7227 159.8 13.7227C159.354 13.7227 158.972 13.8203 158.651 14.0156C158.331 14.2109 158.069 14.4844 157.866 14.8359C157.671 15.1875 157.522 15.6016 157.421 16.0781C157.327 16.5469 157.28 17.0625 157.28 17.625V18.0938C157.28 18.6016 157.351 19.0703 157.491 19.5C157.64 19.9297 157.847 20.3008 158.112 20.6133C158.386 20.9258 158.714 21.168 159.097 21.3398C159.487 21.5117 159.929 21.5977 160.421 21.5977C161.03 21.5977 161.597 21.4805 162.12 21.2461C162.651 21.0039 163.108 20.6406 163.491 20.1562L165.132 21.9375C164.866 22.3203 164.503 22.6875 164.042 23.0391C163.589 23.3906 163.042 23.6797 162.401 23.9062C161.761 24.125 161.03 24.2344 160.21 24.2344Z" fill="#94A3B8"/>
</svg>
