<svg width="360" height="24" viewBox="0 0 360 24" fill="none" xmlns="http://www.w3.org/2000/svg">
<path d="M1.2 17.112C1.008 17.112 0.853333 17.0693 0.736 16.984C0.629333 16.8987 0.565333 16.7813 0.544 16.632C0.522667 16.4827 0.554667 16.3173 0.64 16.136L5.008 6.248C5.104 6.024 5.22667 5.864 5.376 5.768C5.52533 5.66133 5.69067 5.608 5.872 5.608C6.05333 5.608 6.21333 5.66133 6.352 5.768C6.50133 5.864 6.62933 6.024 6.736 6.248L11.104 16.136C11.1893 16.3173 11.2213 16.488 11.2 16.648C11.1893 16.7973 11.1307 16.9147 11.024 17C10.9173 17.0747 10.768 17.112 10.576 17.112C10.3627 17.112 10.192 17.0587 10.064 16.952C9.936 16.8347 9.824 16.6693 9.728 16.456L8.592 13.8L9.28 14.184H2.432L3.12 13.8L1.984 16.456C1.888 16.6907 1.78133 16.8613 1.664 16.968C1.54667 17.064 1.392 17.112 1.2 17.112ZM5.84 7.4L3.344 13.304L2.96 12.968H8.752L8.384 13.304L5.872 7.4H5.84ZM15.8003 17.144C15.1176 17.144 14.5149 16.984 13.9923 16.664C13.4803 16.3333 13.0803 15.864 12.7923 15.256C12.5043 14.6373 12.3603 13.9173 12.3603 13.096C12.3603 12.264 12.4989 11.5493 12.7763 10.952C13.0643 10.344 13.4643 9.88 13.9763 9.56C14.4989 9.22933 15.1069 9.064 15.8003 9.064C16.4936 9.064 17.0909 9.24 17.5923 9.592C18.0936 9.93333 18.4296 10.392 18.6003 10.968H18.4243V6.344C18.4243 6.09867 18.4829 5.91733 18.6003 5.8C18.7283 5.672 18.9096 5.608 19.1443 5.608C19.3789 5.608 19.5603 5.672 19.6883 5.8C19.8163 5.91733 19.8802 6.09867 19.8802 6.344V16.36C19.8802 16.6053 19.8163 16.792 19.6883 16.92C19.5603 17.048 19.3789 17.112 19.1443 17.112C18.9203 17.112 18.7443 17.048 18.6163 16.92C18.4883 16.792 18.4243 16.6053 18.4243 16.36V14.904L18.6003 15.192C18.4403 15.7893 18.1043 16.264 17.5923 16.616C17.0909 16.968 16.4936 17.144 15.8003 17.144ZM16.1363 15.992C16.6056 15.992 17.0109 15.88 17.3523 15.656C17.7043 15.432 17.9709 15.1067 18.1523 14.68C18.3443 14.2533 18.4403 13.7253 18.4403 13.096C18.4403 12.1573 18.2323 11.4427 17.8163 10.952C17.4003 10.4613 16.8403 10.216 16.1363 10.216C15.6776 10.216 15.2723 10.328 14.9203 10.552C14.5789 10.7653 14.3123 11.0853 14.1203 11.512C13.9283 11.9387 13.8323 12.4667 13.8323 13.096C13.8323 14.0347 14.0403 14.7547 14.4563 15.256C14.8829 15.7467 15.4429 15.992 16.1363 15.992ZM27.3148 17.112C27.0801 17.112 26.8988 17.048 26.7708 16.92C26.6428 16.7813 26.5788 16.5893 26.5788 16.344V6.472C26.5788 6.22667 26.6428 6.04 26.7708 5.912C26.9094 5.784 27.0961 5.72 27.3307 5.72H31.1388C32.3548 5.72 33.2881 6.01867 33.9388 6.616C34.6001 7.21333 34.9308 8.05067 34.9308 9.128C34.9308 10.216 34.6001 11.0587 33.9388 11.656C33.2881 12.2533 32.3548 12.552 31.1388 12.552H28.0668V16.344C28.0668 16.5893 28.0028 16.7813 27.8748 16.92C27.7574 17.048 27.5708 17.112 27.3148 17.112ZM28.0668 11.352H30.9468C31.7788 11.352 32.4028 11.1653 32.8188 10.792C33.2454 10.408 33.4588 9.85333 33.4588 9.128C33.4588 8.40267 33.2454 7.85867 32.8188 7.496C32.4028 7.12267 31.7788 6.936 30.9468 6.936H28.0668V11.352ZM37.17 17.112C36.9247 17.112 36.738 17.048 36.61 16.92C36.482 16.792 36.418 16.6053 36.418 16.36V9.832C36.418 9.58667 36.482 9.40533 36.61 9.288C36.738 9.16 36.914 9.096 37.138 9.096C37.362 9.096 37.5327 9.16 37.65 9.288C37.778 9.40533 37.842 9.58667 37.842 9.832V11.064H37.682C37.8527 10.424 38.1727 9.93867 38.642 9.608C39.1113 9.27733 39.7033 9.09067 40.418 9.048C40.5887 9.03733 40.7273 9.08 40.834 9.176C40.9407 9.26133 40.9993 9.41067 41.01 9.624C41.0207 9.82667 40.9727 9.992 40.866 10.12C40.7593 10.2373 40.594 10.3067 40.37 10.328L40.082 10.344C39.378 10.4187 38.834 10.648 38.45 11.032C38.0767 11.416 37.89 11.944 37.89 12.616V16.36C37.89 16.6053 37.826 16.792 37.698 16.92C37.5807 17.048 37.4047 17.112 37.17 17.112ZM45.4644 17.144C44.6964 17.144 44.0297 16.9787 43.4644 16.648C42.899 16.3173 42.4617 15.848 42.1524 15.24C41.843 14.632 41.6884 13.9173 41.6884 13.096C41.6884 12.4773 41.7737 11.9227 41.9444 11.432C42.1257 10.9307 42.3817 10.504 42.7124 10.152C43.043 9.8 43.4377 9.53333 43.8964 9.352C44.3657 9.16 44.8884 9.064 45.4644 9.064C46.2324 9.064 46.899 9.22933 47.4644 9.56C48.0297 9.89067 48.467 10.36 48.7764 10.968C49.0857 11.5653 49.2404 12.2747 49.2404 13.096C49.2404 13.7147 49.1497 14.2747 48.9684 14.776C48.7977 15.2773 48.547 15.704 48.2164 16.056C47.8857 16.408 47.4857 16.68 47.0164 16.872C46.5577 17.0533 46.0404 17.144 45.4644 17.144ZM45.4644 15.992C45.9337 15.992 46.339 15.88 46.6804 15.656C47.0324 15.432 47.299 15.1067 47.4804 14.68C47.6724 14.2533 47.7684 13.7253 47.7684 13.096C47.7684 12.1573 47.5604 11.4427 47.1444 10.952C46.7284 10.4613 46.1684 10.216 45.4644 10.216C45.0057 10.216 44.6004 10.328 44.2484 10.552C43.907 10.7653 43.6404 11.0853 43.4484 11.512C43.2564 11.9387 43.1604 12.4667 43.1604 13.096C43.1604 14.0347 43.3684 14.7547 43.7844 15.256C44.211 15.7467 44.771 15.992 45.4644 15.992ZM51.8575 17.112C51.6335 17.112 51.4575 17.048 51.3295 16.92C51.2015 16.792 51.1375 16.6053 51.1375 16.36V9.832C51.1375 9.58667 51.2015 9.40533 51.3295 9.288C51.4575 9.16 51.6335 9.096 51.8575 9.096C52.0815 9.096 52.2522 9.16 52.3695 9.288C52.4975 9.40533 52.5615 9.58667 52.5615 9.832V11.192L52.3855 10.904C52.5882 10.3173 52.9135 9.864 53.3615 9.544C53.8202 9.224 54.3642 9.064 54.9935 9.064C55.6548 9.064 56.1882 9.224 56.5935 9.544C56.9988 9.85333 57.2708 10.328 57.4095 10.968H57.1855C57.3775 10.3813 57.7188 9.91733 58.2095 9.576C58.7108 9.23467 59.2922 9.064 59.9535 9.064C60.5402 9.064 61.0202 9.18133 61.3935 9.416C61.7775 9.64 62.0655 9.98133 62.2575 10.44C62.4495 10.888 62.5455 11.464 62.5455 12.168V16.36C62.5455 16.6053 62.4815 16.792 62.3535 16.92C62.2255 17.048 62.0495 17.112 61.8255 17.112C61.5908 17.112 61.4095 17.048 61.2815 16.92C61.1535 16.792 61.0895 16.6053 61.0895 16.36V12.232C61.0895 11.5493 60.9722 11.048 60.7375 10.728C60.5028 10.408 60.1082 10.248 59.5535 10.248C58.9455 10.248 58.4602 10.4613 58.0975 10.888C57.7455 11.304 57.5695 11.88 57.5695 12.616V16.36C57.5695 16.6053 57.5055 16.792 57.3775 16.92C57.2602 17.048 57.0842 17.112 56.8495 17.112C56.6148 17.112 56.4335 17.048 56.3055 16.92C56.1775 16.792 56.1135 16.6053 56.1135 16.36V12.232C56.1135 11.5493 55.9962 11.048 55.7615 10.728C55.5268 10.408 55.1322 10.248 54.5775 10.248C53.9695 10.248 53.4842 10.4613 53.1215 10.888C52.7695 11.304 52.5935 11.88 52.5935 12.616V16.36C52.5935 16.8613 52.3482 17.112 51.8575 17.112ZM65.6068 19.992C65.3828 19.992 65.2068 19.928 65.0788 19.8C64.9508 19.672 64.8868 19.4907 64.8868 19.256V9.832C64.8868 9.58667 64.9508 9.40533 65.0788 9.288C65.2068 9.16 65.3828 9.096 65.6068 9.096C65.8414 9.096 66.0174 9.16 66.1348 9.288C66.2628 9.40533 66.3268 9.58667 66.3268 9.832V11.288L66.1508 11C66.3214 10.4133 66.6574 9.944 67.1588 9.592C67.6601 9.24 68.2628 9.064 68.9668 9.064C69.6601 9.064 70.2628 9.22933 70.7748 9.56C71.2868 9.88 71.6868 10.344 71.9748 10.952C72.2628 11.5493 72.4068 12.264 72.4068 13.096C72.4068 13.9173 72.2628 14.6373 71.9748 15.256C71.6974 15.864 71.2974 16.3333 70.7748 16.664C70.2628 16.984 69.6601 17.144 68.9668 17.144C68.2734 17.144 67.6761 16.968 67.1748 16.616C66.6734 16.264 66.3374 15.8 66.1668 15.224H66.3428V19.256C66.3428 19.4907 66.2788 19.672 66.1508 19.8C66.0228 19.928 65.8414 19.992 65.6068 19.992ZM68.6308 15.992C69.0894 15.992 69.4894 15.88 69.8308 15.656C70.1828 15.432 70.4548 15.1067 70.6468 14.68C70.8388 14.2533 70.9348 13.7253 70.9348 13.096C70.9348 12.1573 70.7268 11.4427 70.3108 10.952C69.8948 10.4613 69.3348 10.216 68.6308 10.216C68.1614 10.216 67.7508 10.328 67.3988 10.552C67.0574 10.7653 66.7908 11.0853 66.5988 11.512C66.4174 11.9387 66.3268 12.4667 66.3268 13.096C66.3268 14.0347 66.5348 14.7547 66.9508 15.256C67.3668 15.7467 67.9268 15.992 68.6308 15.992ZM77.4313 17.144C76.8019 17.144 76.2739 17.032 75.8473 16.808C75.4313 16.584 75.1166 16.2587 74.9033 15.832C74.7006 15.4053 74.5993 14.8827 74.5993 14.264V10.328H73.5753C73.3833 10.328 73.2339 10.28 73.1273 10.184C73.0206 10.0773 72.9672 9.93867 72.9672 9.768C72.9672 9.58667 73.0206 9.448 73.1273 9.352C73.2339 9.256 73.3833 9.208 73.5753 9.208H74.5993V7.464C74.5993 7.21867 74.6633 7.03733 74.7913 6.92C74.9193 6.792 75.1006 6.728 75.3353 6.728C75.5699 6.728 75.7459 6.792 75.8633 6.92C75.9913 7.03733 76.0553 7.21867 76.0553 7.464V9.208H77.9913C78.1939 9.208 78.3486 9.256 78.4553 9.352C78.5619 9.448 78.6153 9.58667 78.6153 9.768C78.6153 9.93867 78.5619 10.0773 78.4553 10.184C78.3486 10.28 78.1939 10.328 77.9913 10.328H76.0553V14.136C76.0553 14.7227 76.1779 15.1653 76.4233 15.464C76.6686 15.7627 77.0739 15.912 77.6393 15.912C77.8419 15.912 78.0126 15.896 78.1513 15.864C78.2899 15.8213 78.4126 15.8 78.5193 15.8C78.6153 15.7893 78.6953 15.8213 78.7593 15.896C78.8339 15.9707 78.8713 16.1093 78.8713 16.312C78.8713 16.4613 78.8446 16.6 78.7913 16.728C78.7486 16.8453 78.6579 16.9253 78.5193 16.968C78.3913 17.0107 78.2206 17.048 78.0073 17.08C77.7939 17.1227 77.6019 17.144 77.4313 17.144Z" fill="#121316"/>
<path d="M347.5 17.0013C347.042 17.0013 346.649 16.8381 346.323 16.5117C345.997 16.1853 345.833 15.793 345.833 15.3346V5.33464C345.833 4.8763 345.997 4.48394 346.323 4.15755C346.649 3.83116 347.042 3.66797 347.5 3.66797H355C355.458 3.66797 355.851 3.83116 356.177 4.15755C356.503 4.48394 356.667 4.8763 356.667 5.33464V15.3346C356.667 15.793 356.503 16.1853 356.177 16.5117C355.851 16.8381 355.458 17.0013 355 17.0013H347.5ZM347.5 15.3346H355V5.33464H347.5V15.3346ZM344.167 20.3346C343.708 20.3346 343.316 20.1714 342.99 19.8451C342.663 19.5187 342.5 19.1263 342.5 18.668V7.83464C342.5 7.59852 342.58 7.40061 342.74 7.24089C342.899 7.08116 343.097 7.0013 343.333 7.0013C343.569 7.0013 343.767 7.08116 343.927 7.24089C344.087 7.40061 344.167 7.59852 344.167 7.83464V18.668H352.5C352.736 18.668 352.934 18.7478 353.094 18.9076C353.253 19.0673 353.333 19.2652 353.333 19.5013C353.333 19.7374 353.253 19.9353 353.094 20.0951C352.934 20.2548 352.736 20.3346 352.5 20.3346H344.167Z" fill="#A1A1A1"/>
</svg>
