<svg width="401" height="263" viewBox="0 0 401 263" fill="none" xmlns="http://www.w3.org/2000/svg">
<path d="M394.035 61.9496L387.764 92.3214L383.728 88.3832L376.86 93.2846L371.612 86.7647L359.843 95.3225L349.785 78.5017L338.566 85.0741L334.117 78.9407L319.871 86.9678L315.586 77.7875L325.572 29.4219L379.108 40.4763L394.035 61.9496Z" fill="#EBEBEB"/>
<path d="M379.108 40.4761L394.035 61.9493L375.464 58.116L379.108 40.4761Z" fill="#DBDBDB"/>
<path d="M386.427 98.3892L377.234 142.948L305.121 128.06L314.249 83.8618L318.534 93.0356L332.787 85.0085L337.229 91.1419L348.454 84.5761L358.506 101.397L370.281 92.839L375.523 99.3524L382.397 94.4576L386.427 98.3892Z" fill="#EBEBEB"/>
<path d="M283.215 93.1665L209.727 97.7141L203.888 3.3812L258.459 0L278.491 16.8077L283.215 93.1665Z" fill="#EBEBEB"/>
<path d="M258.459 0L278.491 16.8077L259.566 17.9806L258.459 0Z" fill="#DBDBDB"/>
<path d="M238.113 63.4762L237.825 61.3465C237.084 56.9365 238.29 52.0023 242.123 46.8454C245.583 42.2585 247.457 38.9821 247.247 35.2602C247.011 31.0664 244.227 28.4191 239.043 28.6288C236.081 28.7827 233.236 29.8339 230.885 31.6431L228.625 26.5778C231.246 24.4482 235.833 22.8755 240.19 22.6462C249.646 22.122 254.246 27.718 254.606 33.9627C254.921 39.5522 252.024 43.7525 248.342 48.6605C244.96 53.136 243.853 56.8251 244.331 60.9992L244.535 63.1354L238.113 63.4762ZM236.946 75.081C236.776 72.0405 238.709 69.7864 241.586 69.6292C244.462 69.4719 246.559 71.4901 246.73 74.5371C246.887 77.4138 245.124 79.7334 242.084 79.9038C239.181 80.0676 237.084 77.9576 236.92 75.081H236.946Z" fill="#DBDBDB"/>
<path d="M54.2959 47.4285L46.9044 44.0801L45.8757 46.3408C45.7238 46.6638 45.4867 46.9394 45.1901 47.138C44.8934 47.3366 44.5482 47.4506 44.1916 47.4678C43.7854 47.4811 43.3805 47.5205 42.9794 47.5858C42.6272 47.6381 42.2675 47.5938 41.9386 47.4576C41.6097 47.3214 41.3239 47.0985 41.1118 46.8126L39.6637 44.7878L33.0651 49.5188L34.5133 51.5436C34.7147 51.8359 34.8332 52.1772 34.8563 52.5314C34.8794 52.8856 34.8061 53.2394 34.6443 53.5553C34.4575 53.9157 34.2891 54.2853 34.1398 54.6627C34.0099 54.9955 33.7919 55.2867 33.509 55.5049C33.2262 55.7231 32.8892 55.8601 32.5343 55.9012L30.064 56.1436L30.8568 64.2231L33.3403 63.9741C33.6965 63.9457 34.0537 64.0148 34.3735 64.1741C34.6933 64.3335 34.9636 64.577 35.1554 64.8784C35.2603 65.0488 35.3717 65.2126 35.4896 65.3764C35.6076 65.5402 35.7255 65.6975 35.85 65.8547C36.0761 66.1299 36.2216 66.4623 36.2701 66.8151C36.3187 67.1679 36.2686 67.5273 36.1252 67.8533L35.0899 70.1337L42.4879 73.4887L43.5167 71.2149C43.67 70.8921 43.9085 70.6172 44.2063 70.4198C44.5042 70.2223 44.8503 70.1098 45.2073 70.0944C45.6089 70.0778 46.0093 70.0384 46.4064 69.9764C46.7586 69.9241 47.1183 69.9684 47.4472 70.1046C47.7761 70.2408 48.0619 70.4637 48.274 70.7496L49.7221 72.7744L56.3273 68.0434L54.8791 66.0186C54.6715 65.729 54.5492 65.387 54.526 65.0315C54.5028 64.6759 54.5798 64.321 54.748 64.0069C54.9306 63.6486 55.0946 63.2811 55.2395 62.906C55.3655 62.5708 55.5825 62.2773 55.8661 62.0585C56.1497 61.8397 56.4886 61.7044 56.8449 61.6676L59.3284 61.4186L58.529 53.3391L56.0455 53.5815C55.6915 53.6126 55.3359 53.5452 55.0179 53.3868C54.6999 53.2283 54.4319 52.985 54.2435 52.6838C54.1321 52.5134 54.0207 52.3496 53.9027 52.1858C53.7848 52.022 53.6668 51.8582 53.5423 51.7074C53.3177 51.4289 53.1734 51.0944 53.1249 50.7399C53.0764 50.3854 53.1256 50.0244 53.2671 49.6958L54.2959 47.4285ZM50.1022 54.9052C50.8684 55.9745 51.3004 57.247 51.3434 58.5619C51.3864 59.8767 51.0385 61.1747 50.3437 62.2918C49.649 63.409 48.6385 64.2949 47.4402 64.8377C46.2419 65.3805 44.9095 65.5558 43.6115 65.3413C42.3136 65.1268 41.1084 64.5322 40.1484 63.6327C39.1885 62.7333 38.5168 61.5693 38.2183 60.2881C37.9199 59.0068 38.0081 57.6659 38.4719 56.4348C38.9356 55.2037 39.754 54.1378 40.8235 53.3718C42.2574 52.345 44.0403 51.9297 45.7803 52.2172C47.5203 52.5048 49.0749 53.4716 50.1022 54.9052Z" fill="#EBEBEB"/>
<path d="M388.419 154.631L383.491 157.475L384.363 158.982C384.493 159.198 384.558 159.447 384.55 159.7C384.541 159.952 384.461 160.196 384.317 160.404C384.166 160.64 384.022 160.882 383.891 161.138C383.783 161.364 383.613 161.554 383.401 161.687C383.188 161.819 382.942 161.888 382.692 161.885H380.962V167.579H382.705C382.955 167.576 383.201 167.645 383.414 167.777C383.626 167.91 383.796 168.1 383.904 168.326C384.035 168.582 384.179 168.824 384.33 169.06C384.474 169.267 384.555 169.512 384.563 169.764C384.571 170.016 384.506 170.266 384.376 170.482L383.504 171.989L388.432 174.833L389.31 173.319C389.437 173.105 389.622 172.93 389.843 172.814C390.064 172.698 390.313 172.646 390.562 172.664H391.4C391.649 172.647 391.898 172.699 392.119 172.815C392.34 172.93 392.524 173.105 392.652 173.319L393.53 174.839L398.451 171.996L397.58 170.482C397.456 170.264 397.395 170.017 397.404 169.767C397.413 169.517 397.492 169.274 397.632 169.066C397.783 168.831 397.927 168.582 398.058 168.333C398.166 168.107 398.336 167.916 398.548 167.784C398.761 167.651 399.007 167.583 399.257 167.586H401V161.891H399.244C398.994 161.894 398.748 161.826 398.535 161.693C398.323 161.561 398.152 161.37 398.045 161.144C397.914 160.895 397.77 160.646 397.619 160.41C397.479 160.203 397.4 159.96 397.391 159.71C397.382 159.46 397.443 159.212 397.567 158.995L398.438 157.481L393.517 154.637L392.639 156.131C392.512 156.346 392.327 156.521 392.106 156.637C391.885 156.753 391.636 156.805 391.387 156.787H390.968H390.549C390.299 156.803 390.049 156.751 389.828 156.636C389.606 156.52 389.42 156.346 389.29 156.131L388.419 154.631ZM390.968 160.07C391.891 160.068 392.794 160.341 393.562 160.853C394.331 161.365 394.93 162.094 395.284 162.947C395.638 163.799 395.73 164.738 395.551 165.644C395.371 166.549 394.926 167.381 394.273 168.034C393.621 168.687 392.789 169.132 391.883 169.311C390.977 169.491 390.039 169.398 389.186 169.044C388.333 168.69 387.605 168.091 387.092 167.323C386.58 166.555 386.308 165.652 386.309 164.729C386.308 164.116 386.428 163.51 386.662 162.944C386.895 162.378 387.238 161.863 387.671 161.43C388.104 160.997 388.618 160.653 389.183 160.418C389.749 160.184 390.356 160.063 390.968 160.063V160.07Z" fill="#EBEBEB"/>
<path d="M69.2489 23.2165L64.7341 26.6763L65.776 28.059C65.9314 28.256 66.027 28.4935 66.0513 28.7432C66.0757 28.9929 66.0279 29.2444 65.9136 29.4678C65.7882 29.7229 65.6788 29.9855 65.5859 30.2541C65.5052 30.4908 65.36 30.7002 65.1666 30.8588C64.9733 31.0174 64.7395 31.1189 64.4916 31.1518L62.7617 31.3746L63.4956 37.0165L65.2255 36.7937C65.4774 36.7586 65.734 36.7954 65.9658 36.8997C66.1977 37.004 66.3954 37.1717 66.5361 37.3835C66.6939 37.6114 66.8645 37.8302 67.0472 38.0387C67.216 38.2244 67.328 38.4546 67.3698 38.702C67.4116 38.9494 67.3815 39.2037 67.2831 39.4345L66.6278 41.0464L71.87 43.2285L72.5253 41.6165C72.6228 41.3853 72.7831 41.186 72.9881 41.0412C73.1931 40.8964 73.4346 40.812 73.6851 40.7974L74.1045 40.7516L74.5173 40.686C74.7598 40.6403 75.0102 40.662 75.2412 40.7486C75.4723 40.8353 75.6752 40.9836 75.8278 41.1775L76.8959 42.5732L81.4108 39.1134L80.3558 37.7308C80.2034 37.531 80.1098 37.2927 80.0855 37.0427C80.0612 36.7926 80.1071 36.5407 80.2182 36.3154C80.3424 36.062 80.4518 35.8017 80.5458 35.5356C80.6266 35.2989 80.7718 35.0895 80.9651 34.9309C81.1584 34.7723 81.3922 34.6708 81.6401 34.6379L83.37 34.4151L82.6361 28.7732L80.9062 28.996C80.655 29.0318 80.3988 28.996 80.167 28.8929C79.9352 28.7897 79.7372 28.6233 79.5956 28.4128C79.4318 28.1769 79.2615 27.9541 79.078 27.7575C78.9253 27.5679 78.8265 27.3407 78.792 27.0997C78.7574 26.8588 78.7883 26.6129 78.8814 26.388L79.5367 24.776L74.2945 22.594L73.6392 24.206C73.5405 24.4363 73.3798 24.6348 73.1751 24.7794C72.9703 24.924 72.7295 25.009 72.4794 25.0251L72.06 25.0644L71.6734 25.0775C71.4309 25.1232 71.1805 25.1015 70.9495 25.0149C70.7184 24.9282 70.5155 24.7799 70.3629 24.586L69.2489 23.2165ZM72.4794 28.2818C73.3922 28.1644 74.3193 28.32 75.1437 28.729C75.9681 29.1379 76.653 29.7819 77.1119 30.5796C77.5708 31.3773 77.7831 32.2931 77.7222 33.2114C77.6612 34.1296 77.3296 35.0093 76.7693 35.7393C76.209 36.4694 75.445 37.0171 74.5738 37.3135C73.7025 37.6099 72.763 37.6416 71.8737 37.4046C70.9845 37.1676 70.1853 36.6726 69.5771 35.9819C68.9688 35.2913 68.5787 34.436 68.456 33.5239C68.3741 32.9153 68.4134 32.2964 68.5715 31.703C68.7297 31.1096 69.0036 30.5533 69.3775 30.0661C69.7514 29.5789 70.218 29.1705 70.7503 28.8642C71.2826 28.558 71.8703 28.3601 72.4794 28.2818Z" fill="#EBEBEB"/>
<path d="M35.5153 171.059C35.7615 164.724 35.674 158.381 35.2532 152.056C34.3156 138.994 32.3237 126.03 29.2968 113.29C27.6324 106.121 25.588 99.0704 23.4518 92.0263C23.3863 91.81 23.0455 91.869 23.1045 92.0918C29.7031 116.927 35.1156 142.548 34.7421 168.365C34.6373 175.573 33.7985 182.683 33.117 189.865C33.117 190.055 33.4119 190.134 33.4578 189.937C34.8142 183.771 35.2598 177.336 35.5153 171.059Z" fill="#EBEBEB"/>
<path d="M23.1047 92.072C23.1047 92.072 13.1183 117.431 15.3528 123.368C17.5873 129.305 22.2004 130.576 22.2004 130.576C22.2004 130.576 16.0867 139.304 20.3591 147.488C24.6314 155.673 34.1198 155.286 34.775 164.565C34.7554 164.611 35.2796 125.812 23.1047 92.072Z" fill="#EBEBEB"/>
<path d="M33.6677 148.589C33.6838 148.547 33.6838 148.501 33.6677 148.458C32.357 131.145 29.1084 114.034 23.9827 97.4455C23.9827 97.3996 23.8844 97.4127 23.8976 97.4455C25.8765 104.872 27.6239 112.329 29.1397 119.816C27.7972 118.545 26.157 117.63 24.3693 117.156C24.3693 117.156 24.3169 117.195 24.3693 117.208C26.2473 117.897 27.9358 119.019 29.297 120.485C29.5853 121.959 29.8736 123.427 30.1423 124.901C27.9078 122.405 24.8149 121.166 21.7155 119.987C21.7085 119.99 21.7025 119.995 21.6983 120.001C21.6941 120.008 21.6919 120.015 21.6919 120.023C21.6919 120.03 21.6941 120.038 21.6983 120.044C21.7025 120.051 21.7085 120.056 21.7155 120.059C24.946 121.369 28.1568 123.06 30.3454 125.845C31.1055 130.052 31.7739 134.274 32.3506 138.511C30.7372 136.821 28.6681 135.635 26.3941 135.097C26.3221 135.097 26.2827 135.183 26.3548 135.202C28.6907 135.89 30.7761 137.242 32.3571 139.095H32.3964C32.593 140.58 32.7809 142.072 32.96 143.57C31.7119 142.514 30.3026 141.664 28.7859 141.054C28.7466 141.054 28.7204 141.1 28.7859 141.113C30.3337 141.783 31.7512 142.722 32.9731 143.885C32.9731 143.885 33.0058 143.885 33.0255 143.885C33.1893 145.306 33.3531 146.728 33.4973 148.15C31.2472 145.43 28.327 143.343 25.0246 142.096C25.0107 142.096 24.9974 142.101 24.9876 142.111C24.9777 142.121 24.9722 142.134 24.9722 142.148C24.9722 142.162 24.9777 142.175 24.9876 142.185C24.9974 142.195 25.0107 142.2 25.0246 142.2C28.2855 143.638 31.1499 145.843 33.3728 148.629C33.3972 148.659 33.4303 148.682 33.4676 148.694C33.505 148.705 33.545 148.705 33.5825 148.694C33.7987 150.876 33.9953 153.058 34.1526 155.247C34.1526 155.28 34.205 155.28 34.205 155.247C34.0346 153.05 33.8555 150.83 33.6677 148.589Z" fill="white"/>
<path d="M25.6407 114.659C23.8322 113.534 21.7661 112.889 19.6384 112.785C19.628 112.785 19.618 112.789 19.6106 112.797C19.6033 112.804 19.5991 112.814 19.5991 112.824C19.5991 112.835 19.6033 112.845 19.6106 112.852C19.618 112.86 19.628 112.864 19.6384 112.864C21.6955 113.254 23.6918 113.915 25.5752 114.83C25.6538 114.849 25.7128 114.712 25.6407 114.659Z" fill="white"/>
<path d="M26.8533 141.506C25.4633 140.708 23.9327 140.185 22.345 139.966C22.2926 139.966 22.2861 140.038 22.345 140.051C23.8954 140.362 25.395 140.887 26.8009 141.611C26.8599 141.643 26.9123 141.538 26.8533 141.506Z" fill="white"/>
<path d="M61.779 123.807C57.5544 126.727 53.6744 130.117 50.2134 133.911C46.6442 137.929 43.8911 142.603 42.1077 147.672C38.3123 158.234 36.2715 169.346 36.0661 180.567C35.9388 186.781 36.5348 192.989 37.8419 199.065C37.8525 199.109 37.8797 199.148 37.9178 199.172C37.956 199.197 38.0021 199.206 38.0468 199.198C38.0914 199.189 38.1311 199.164 38.1576 199.127C38.1841 199.09 38.1954 199.045 38.1892 199C36.5627 188.277 36.6246 177.365 38.3727 166.662C40.0895 156.178 42.7827 144.763 49.4533 136.238C53.0835 131.592 57.6115 127.942 62.087 124.168C62.3229 123.958 62.0214 123.637 61.779 123.807Z" fill="#EBEBEB"/>
<path d="M37.5342 173.005C39.9389 169.116 42.7649 165.503 45.961 162.232C50.9607 157.233 55.1675 153.681 55.8228 150.379C56.4781 147.076 50.8165 144.638 50.8165 144.638C50.8165 144.638 57.7296 145.883 59.6234 142.981C61.5171 140.078 62.4279 123.263 62.4279 123.263C62.4279 123.263 49.8467 132.247 43.9821 144.842C38.1174 157.436 37.5342 173.005 37.5342 173.005Z" fill="#EBEBEB"/>
<path d="M57.9133 139.036C57.0848 138.912 56.2451 138.884 55.4101 138.95C55.3119 138.95 55.3184 139.121 55.4101 139.127C56.2358 139.127 57.068 139.088 57.8936 139.127C57.9031 139.125 57.9116 139.12 57.9184 139.113C57.9251 139.106 57.9298 139.097 57.9318 139.087C57.9339 139.078 57.9332 139.068 57.9299 139.059C57.9267 139.05 57.9209 139.042 57.9133 139.036Z" fill="white"/>
<path d="M48.8768 155.345C47.5482 155.373 46.2349 155.634 44.9976 156.119C44.9976 156.119 44.9976 156.184 44.9976 156.178C46.3081 155.87 47.5728 155.745 48.8702 155.522C48.8872 155.515 48.9017 155.503 48.9121 155.488C48.9225 155.472 48.9283 155.454 48.929 155.436C48.9297 155.418 48.9252 155.399 48.9159 155.383C48.9067 155.367 48.8931 155.354 48.8768 155.345Z" fill="white"/>
<path d="M46.1643 149.71C45.6127 149.706 45.0619 149.754 44.5195 149.854C44.5095 149.858 44.5008 149.865 44.4947 149.874C44.4886 149.882 44.4854 149.893 44.4854 149.904C44.4854 149.914 44.4886 149.925 44.4947 149.933C44.5008 149.942 44.5095 149.949 44.5195 149.953C45.0688 149.984 45.6199 149.96 46.1643 149.881C46.1869 149.881 46.2085 149.872 46.2245 149.856C46.2405 149.84 46.2494 149.818 46.2494 149.795C46.2494 149.773 46.2405 149.751 46.2245 149.735C46.2085 149.719 46.1869 149.71 46.1643 149.71Z" fill="white"/>
<path d="M0.649305 141.643C4.74422 143.032 8.66823 144.88 12.3459 147.154C16.1618 149.579 19.4709 152.721 22.0898 156.407C27.6 164.077 31.8188 172.596 34.5793 181.628C36.1188 186.629 37.0689 191.793 37.41 197.014C37.4029 197.048 37.3843 197.078 37.3575 197.1C37.3306 197.121 37.2971 197.133 37.2626 197.133C37.2281 197.133 37.1946 197.121 37.1677 197.1C37.1409 197.078 37.1223 197.048 37.1152 197.014C35.9585 187.961 33.3892 179.145 29.5009 170.888C25.6807 162.796 20.8644 154.185 13.4992 148.825C9.48892 145.909 4.98065 143.996 0.485487 141.978C0.249589 141.899 0.413407 141.565 0.649305 141.643Z" fill="#EBEBEB"/>
<path d="M31.6431 175.855C28.7962 173.265 25.6737 170.995 22.3317 169.086C17.1288 166.197 12.9023 164.296 11.6114 161.774C10.3205 159.251 14.3373 155.974 14.3373 155.974C14.3373 155.974 9.02964 158.595 6.82793 156.662C4.62622 154.729 0 141.362 0 141.362C0 141.362 12.2601 145.719 19.9071 154.559C27.5542 163.399 31.6431 175.855 31.6431 175.855Z" fill="#EBEBEB"/>
<path d="M21.467 163.549C20.2616 163.465 19.0513 163.614 17.9023 163.988C17.9023 163.988 17.9023 164.047 17.9023 164.041C19.0745 163.84 20.2588 163.717 21.4474 163.674C21.5325 163.674 21.5522 163.556 21.467 163.549Z" fill="white"/>
<path d="M10.7723 149.526C10.2224 149.481 9.66901 149.512 9.12755 149.618C9.06858 149.618 9.08824 149.723 9.12755 149.716C9.67143 149.657 10.2022 149.677 10.7395 149.664C10.7562 149.665 10.7726 149.659 10.7859 149.649C10.7992 149.639 10.8086 149.625 10.8125 149.609C10.8164 149.592 10.8145 149.575 10.8071 149.56C10.7998 149.545 10.7875 149.533 10.7723 149.526Z" fill="white"/>
<path d="M47.4548 213.913H19.7827L23.7275 185.009L24.7366 177.598H42.501L43.5101 185.009L47.4548 213.913Z" fill="#DBDBDB"/>
<path d="M43.5102 185.009H23.7275L24.7367 177.598H42.5011L43.5102 185.009Z" fill="#C7C7C7"/>
<path d="M45.0376 175.03H22.1948V181.307H45.0376V175.03Z" fill="#DBDBDB"/>
<path d="M2.18945 213.913L51.9966 213.755L101.804 213.696L201.418 213.585L301.033 213.696L350.84 213.755L400.647 213.913L350.84 214.076L301.033 214.129L201.418 214.24L101.804 214.129L51.9966 214.07L2.18945 213.913Z" fill="#121316"/>
<path d="M202.728 262.751C306.498 262.751 390.621 253.533 390.621 242.162C390.621 230.792 306.498 221.574 202.728 221.574C98.9578 221.574 14.8354 230.792 14.8354 242.162C14.8354 253.533 98.9578 262.751 202.728 262.751Z" fill="#EBEBEB"/>
<path d="M158.99 238.754C157.463 239.272 113.684 239.41 112.007 238.374C111.352 237.981 110.978 231.605 110.696 223.886C110.637 222.222 110.591 220.499 110.552 218.756L107.06 195.402L136.331 195.212L139.089 218.572L138.978 223.709C138.978 223.709 155.766 231.147 157.483 232.497C159.2 233.846 160.517 238.237 158.99 238.754Z" fill="#EB9481"/>
<path d="M158.99 238.755C157.463 239.273 113.684 239.41 112.007 238.375C111.233 237.89 110.814 228.579 110.578 218.756L139.056 218.573L138.945 223.71C138.945 223.71 155.733 231.147 157.45 232.497C159.167 233.847 160.516 238.237 158.99 238.755Z" fill="white"/>
<path d="M158.99 238.755C157.463 239.272 113.684 239.41 112.007 238.374C111.352 237.981 110.978 231.605 110.696 223.886L138.919 223.709C138.919 223.709 155.707 231.147 157.424 232.497C159.141 233.847 160.517 238.237 158.99 238.755Z" fill="#A6A6A6"/>
<path d="M158.354 237.005C151.015 236.848 121.397 236.92 114.13 237.326C114.071 237.326 114.071 237.365 114.13 237.372C121.403 237.68 151.021 237.372 158.354 237.123C158.511 237.116 158.511 237.005 158.354 237.005Z" fill="#121316"/>
<path d="M154.626 230.931C153.81 230.912 152.999 231.064 152.244 231.375C151.49 231.686 150.808 232.151 150.242 232.739C149.211 233.789 148.629 235.199 148.617 236.671C148.617 236.717 148.696 236.717 148.702 236.671C148.946 235.221 149.652 233.889 150.715 232.873C151.778 231.858 153.14 231.213 154.6 231.036C154.614 231.039 154.628 231.037 154.641 231.029C154.653 231.022 154.662 231.01 154.665 230.996C154.669 230.982 154.667 230.968 154.659 230.955C154.652 230.943 154.64 230.934 154.626 230.931Z" fill="#121316"/>
<path d="M141.789 224.43C138.854 224.398 135.453 225.446 133.631 227.857C133.565 227.949 133.697 228.048 133.782 228.002C136.347 226.648 139.048 225.571 141.842 224.791C141.885 224.779 141.922 224.752 141.947 224.714C141.971 224.677 141.981 224.632 141.975 224.587C141.968 224.543 141.946 224.503 141.912 224.474C141.877 224.445 141.834 224.429 141.789 224.43Z" fill="#121316"/>
<path d="M144.069 225.302C141.127 225.302 137.726 226.324 135.911 228.729C135.839 228.828 135.97 228.926 136.062 228.88C138.623 227.521 141.323 226.443 144.115 225.663C144.158 225.651 144.195 225.624 144.219 225.588C144.244 225.551 144.254 225.506 144.248 225.463C144.243 225.419 144.222 225.378 144.189 225.349C144.156 225.319 144.113 225.303 144.069 225.302Z" fill="#121316"/>
<path d="M146.337 226.18C143.401 226.18 140.001 227.196 138.179 229.607C138.113 229.699 138.244 229.797 138.33 229.751C140.894 228.397 143.596 227.321 146.389 226.54C146.433 226.529 146.47 226.501 146.494 226.464C146.519 226.426 146.529 226.381 146.523 226.337C146.516 226.293 146.494 226.252 146.459 226.223C146.425 226.194 146.382 226.179 146.337 226.18Z" fill="#121316"/>
<path d="M148.61 227.058C145.668 227.025 142.267 228.074 140.452 230.485C140.38 230.577 140.518 230.675 140.603 230.629C143.167 229.274 145.869 228.198 148.663 227.418C148.706 227.406 148.743 227.379 148.768 227.342C148.792 227.304 148.802 227.259 148.796 227.215C148.79 227.171 148.767 227.13 148.733 227.101C148.699 227.072 148.655 227.057 148.61 227.058Z" fill="#121316"/>
<path d="M115.977 230.347C112.701 230.347 112.701 235.491 115.977 235.472C119.254 235.452 119.28 230.328 115.977 230.347Z" fill="#121316"/>
<path d="M144.94 216.58C143.453 215.348 141.579 216.58 140.668 217.845C139.152 220.08 138.248 222.674 138.047 225.367C138.047 225.426 138.093 225.453 138.139 225.453C138.15 225.508 138.175 225.56 138.211 225.604C138.247 225.648 138.293 225.682 138.345 225.705C138.397 225.727 138.453 225.737 138.51 225.733C138.566 225.729 138.621 225.712 138.669 225.682C140.753 224.234 143.165 222.936 144.744 220.885C145.641 219.693 146.375 217.727 144.94 216.58ZM141.363 222.832C140.353 223.572 139.312 224.26 138.329 225.04C138.853 223.572 139.305 222.091 139.973 220.676C140.282 219.997 140.637 219.34 141.035 218.71C141.69 217.734 144.547 215.27 144.849 218.461C145.019 220.21 142.562 221.953 141.363 222.832Z" fill="#121316"/>
<path d="M130.735 226.481C133.29 226.861 135.931 226.127 138.441 225.728C138.495 225.713 138.546 225.687 138.588 225.649C138.63 225.612 138.663 225.566 138.684 225.513C138.705 225.461 138.714 225.405 138.709 225.349C138.704 225.293 138.687 225.238 138.657 225.19C138.667 225.183 138.674 225.174 138.68 225.163C138.685 225.152 138.688 225.14 138.688 225.128C138.688 225.116 138.685 225.104 138.68 225.093C138.674 225.083 138.667 225.073 138.657 225.066C136.641 223.267 134.186 222.031 131.541 221.481C129.994 221.187 127.806 221.613 127.609 223.532C127.373 225.341 129.241 226.245 130.735 226.481ZM128.952 224.817C126.987 222.301 130.741 222.084 131.868 222.346C132.6 222.529 133.318 222.761 134.018 223.041C135.451 223.635 136.853 224.302 138.218 225.04C136.973 225.164 135.748 225.387 134.509 225.557C133.028 225.754 130.053 226.199 128.952 224.817Z" fill="#121316"/>
<path d="M64.0215 87.459C64.0215 87.459 98.0104 145.28 98.9212 149.343C100.317 155.581 107.715 217.183 107.715 217.183L143.1 216.528C143.1 216.528 137.006 162.212 131.233 144.317C127.078 131.428 97.0799 88.6778 97.0799 88.6778L64.0215 87.459Z" fill="#37474F"/>
<path d="M139.882 211.128C134.804 211.089 116.804 210.886 110.041 211.515C109.989 211.515 109.995 211.607 110.041 211.613C112.368 211.947 134.797 211.43 139.876 211.266C139.886 211.27 139.898 211.271 139.909 211.27C139.92 211.268 139.931 211.264 139.94 211.258C139.95 211.252 139.957 211.244 139.963 211.234C139.969 211.224 139.972 211.213 139.972 211.202C139.973 211.19 139.971 211.179 139.966 211.169C139.962 211.158 139.955 211.149 139.946 211.142C139.937 211.135 139.927 211.13 139.916 211.128C139.905 211.125 139.893 211.126 139.882 211.128Z" fill="#121316"/>
<path d="M69.8206 92.7665C72.0485 96.2591 74.4075 99.6796 76.6747 103.146C78.9419 106.612 81.2223 110.079 83.4699 113.539C87.9519 120.528 92.3204 127.564 96.5753 134.645C98.6518 137.927 100.428 141.39 101.883 144.992C103.211 148.594 104.209 152.309 104.864 156.092C105.559 159.886 106.018 163.719 106.444 167.553C106.881 171.628 107.337 175.706 107.813 179.787C108.744 188.135 109.676 196.483 110.611 204.831C110.723 205.853 110.834 206.875 110.939 207.904C110.939 208.055 110.683 208.081 110.664 207.904C109.622 199.615 108.757 191.293 107.813 183.004C107.341 178.867 106.872 174.732 106.404 170.6C105.965 166.753 105.546 162.9 104.95 159.08C104.402 155.309 103.57 151.585 102.46 147.94C101.236 144.166 99.5966 140.54 97.5713 137.128C93.4759 130.058 89.138 123.112 84.8001 116.16C80.4622 109.207 76.0063 102.196 71.4325 95.3286C70.869 94.4833 70.2989 93.638 69.7092 92.8058C69.6633 92.7599 69.7812 92.7009 69.8206 92.7665Z" fill="#121316"/>
<path d="M75.1609 242.162C73.5489 242.064 31.913 225.197 30.7597 223.598C30.7083 223.504 30.6855 223.397 30.6942 223.29C30.6942 221.855 33.5839 216.849 35.9953 210.27C36.146 209.851 37.2207 207.898 38.7081 205.27C42.8429 198.069 50.0509 185.665 50.0509 185.665L77.2643 196.477L64.2375 215.971L62.2127 220.689C62.2127 220.689 74.984 233.893 76.0586 235.76C77.1333 237.628 76.7663 242.254 75.1609 242.162Z" fill="#EB9481"/>
<path d="M75.1609 242.162C73.5489 242.064 31.913 225.197 30.7597 223.598C30.7083 223.504 30.6855 223.397 30.6942 223.29C30.6942 221.855 33.5839 216.849 35.9953 210.27C36.146 209.85 37.2207 207.898 38.7081 205.27L64.2637 215.971L62.2389 220.689C62.2389 220.689 75.0102 233.892 76.0848 235.76C77.1595 237.627 76.7663 242.254 75.1609 242.162Z" fill="white"/>
<path d="M75.1604 242.162C73.5484 242.064 31.9125 225.197 30.7592 223.598C30.3136 222.989 32.1746 217.308 36.0014 210.27L62.2122 220.696C62.2122 220.696 74.9835 233.886 76.0647 235.767C77.1459 237.648 76.7658 242.254 75.1604 242.162Z" fill="#A6A6A6"/>
<path d="M75.2259 240.301C68.4832 237.405 41.0011 226.357 34.1142 224.011C34.0552 224.011 34.0421 224.011 34.1142 224.05C40.739 227.064 68.3063 237.889 75.1997 240.432C75.3308 240.465 75.3701 240.36 75.2259 240.301Z" fill="#121316"/>
<path d="M74.0472 233.27C73.2995 232.942 72.4918 232.772 71.6751 232.772C70.8585 232.772 70.0507 232.942 69.3031 233.27C67.9587 233.859 66.8931 234.943 66.3281 236.297C66.3281 236.337 66.3871 236.37 66.4068 236.33C67.1792 235.074 68.3381 234.102 69.7097 233.559C71.0813 233.017 72.5917 232.934 74.0145 233.322C74.0255 233.319 74.0349 233.312 74.041 233.303C74.0471 233.293 74.0493 233.281 74.0472 233.27Z" fill="#121316"/>
<path d="M64.5913 222.432C61.885 221.298 58.3335 220.997 55.7452 222.55C55.6469 222.609 55.7452 222.746 55.8303 222.74C58.7157 222.447 61.624 222.462 64.5061 222.786C64.5505 222.791 64.5951 222.779 64.6315 222.753C64.668 222.728 64.6939 222.69 64.7044 222.646C64.7148 222.603 64.7091 222.557 64.6883 222.518C64.6675 222.478 64.633 222.448 64.5913 222.432Z" fill="#121316"/>
<path d="M66.3667 224.096C63.6604 222.963 60.1089 222.661 57.5205 224.214C57.4223 224.273 57.5205 224.411 57.6057 224.404C60.4909 224.108 63.3996 224.124 66.2815 224.45C66.3259 224.455 66.3705 224.443 66.4069 224.418C66.4434 224.392 66.4693 224.354 66.4798 224.311C66.4902 224.267 66.4845 224.221 66.4637 224.182C66.4429 224.143 66.4084 224.112 66.3667 224.096Z" fill="#121316"/>
<path d="M68.1496 225.76C65.4367 224.627 61.8852 224.325 59.3034 225.878C59.1985 225.937 59.3034 226.075 59.382 226.068C62.2672 225.772 65.1759 225.788 68.0578 226.114C68.1031 226.122 68.1495 226.112 68.188 226.087C68.2265 226.062 68.2542 226.024 68.2658 225.979C68.2773 225.935 68.2717 225.888 68.2502 225.847C68.2287 225.807 68.1928 225.776 68.1496 225.76Z" fill="#121316"/>
<path d="M69.9249 227.425C67.2121 226.292 63.6671 225.99 61.0788 227.537C60.9739 227.602 61.0788 227.74 61.1574 227.733C64.0426 227.437 66.9513 227.453 69.8332 227.779C69.8785 227.787 69.9249 227.777 69.9634 227.752C70.0019 227.727 70.0296 227.689 70.0411 227.644C70.0527 227.6 70.0471 227.553 70.0256 227.512C70.0041 227.472 69.9682 227.441 69.9249 227.425Z" fill="#121316"/>
<path d="M38.4388 218.231C35.3787 217.013 33.4784 221.776 36.5516 222.995C39.6249 224.214 41.5317 219.45 38.4388 218.231Z" fill="#121316"/>
<path d="M70.4565 216.338C69.5326 214.64 67.3505 215.06 66.0203 215.905C63.7796 217.406 61.972 219.469 60.7782 221.888C60.7729 221.898 60.7701 221.91 60.77 221.922C60.7699 221.934 60.7725 221.945 60.7775 221.956C60.7826 221.967 60.7899 221.976 60.7991 221.984C60.8083 221.991 60.8191 221.996 60.8306 221.999C60.8306 222.215 60.9748 222.471 61.2303 222.419C63.7138 221.848 66.4332 221.554 68.6611 220.243C69.9389 219.483 71.328 217.943 70.4565 216.338ZM64.7884 220.787C63.5762 221.095 62.3574 221.344 61.1582 221.698C62.1501 220.503 63.2021 219.359 64.3101 218.271C64.8555 217.751 65.4357 217.27 66.0466 216.829C66.9967 216.174 70.5876 214.962 69.6702 218.035C69.1657 219.732 66.2366 220.42 64.7884 220.787Z" fill="#121316"/>
<path d="M53.5695 220.185C55.7974 221.495 58.5168 221.803 60.9937 222.38C61.2493 222.439 61.4196 222.183 61.4 221.96C61.4123 221.959 61.424 221.955 61.4341 221.947C61.4442 221.94 61.4522 221.931 61.4575 221.919C61.4627 221.908 61.465 221.896 61.4642 221.883C61.4633 221.871 61.4592 221.859 61.4524 221.849C60.2605 219.426 58.4527 217.358 56.2102 215.853C54.8997 215.001 52.7045 214.575 51.774 216.266C50.8436 217.957 52.2655 219.418 53.5695 220.185ZM52.5473 217.97C51.6364 214.897 55.2208 216.115 56.1709 216.777C56.781 217.218 57.3591 217.702 57.9008 218.225C59.0067 219.316 60.0565 220.462 61.0461 221.659C59.847 221.305 58.6282 221.05 57.4159 220.742C55.9481 220.348 53.0453 219.693 52.5473 217.97Z" fill="#121316"/>
<path d="M66.3542 214.883L35.8906 202.583C35.8906 202.583 73.6605 147.049 73.9357 142.914C74.1847 139.258 57.5932 107.399 56.9445 98.1135C56.2368 88.0879 61.0596 80.336 66.3673 75.5198L97.7876 88.8808C97.7876 88.8808 94.4719 94.1819 89.2691 97.1372C89.2691 97.1372 105.382 133.963 104.465 145.287C103.547 156.61 66.3542 214.883 66.3542 214.883Z" fill="#37474F"/>
<path d="M67.7036 209.091C63.3001 207.197 64.591 207.675 60.1614 205.814C57.999 204.91 43.7796 198.993 41.591 198.501C41.5451 198.501 41.5124 198.567 41.5582 198.593C43.452 199.753 57.7893 205.421 59.9714 206.286C64.4338 208.042 63.1691 207.492 67.6511 209.196C67.6578 209.204 67.6667 209.211 67.6769 209.216C67.6871 209.221 67.6983 209.222 67.7094 209.221C67.7206 209.22 67.7313 209.217 67.7405 209.21C67.7497 209.204 67.7572 209.195 67.7622 209.185C67.7672 209.175 67.7695 209.164 67.769 209.153C67.7685 209.142 67.7652 209.131 67.7593 209.122C67.7534 209.112 67.7452 209.104 67.7355 209.099C67.7257 209.094 67.7147 209.091 67.7036 209.091Z" fill="#121316"/>
<path d="M94.4189 96.4625C91.1477 97.225 87.9472 98.2641 84.8519 99.5685C84.8394 99.5728 84.8279 99.5795 84.8181 99.5882C84.8082 99.597 84.8001 99.6076 84.7943 99.6195C84.7886 99.6313 84.7852 99.6442 84.7844 99.6574C84.7836 99.6706 84.7854 99.6838 84.7897 99.6962C84.794 99.7087 84.8007 99.7202 84.8094 99.7301C84.8182 99.74 84.8288 99.7481 84.8407 99.7538C84.8525 99.7596 84.8654 99.763 84.8786 99.7638C84.8918 99.7646 84.905 99.7628 84.9175 99.7585C88.1283 98.8215 91.3915 97.9434 94.5499 96.836C94.7924 96.7508 94.6679 96.4101 94.4189 96.4625Z" fill="#121316"/>
<path d="M90.6773 95.1914C90.372 95.7344 90.1027 96.297 89.8713 96.8754C89.6451 97.3144 89.505 97.7926 89.4585 98.2843C89.4585 98.3826 89.5895 98.4022 89.6485 98.3432C89.9773 97.95 90.2426 97.5078 90.4349 97.0327C90.7035 96.515 90.9787 96.0039 91.2343 95.4732C91.4112 95.0865 90.8804 94.8375 90.6773 95.1914Z" fill="#121316"/>
<path d="M91.0709 92.216C91.2675 91.7311 91.4575 91.2527 91.6607 90.7678C91.8638 90.2829 92.1194 89.7849 92.3159 89.2738C92.3159 89.1952 92.4732 89.2738 92.4404 89.3328C92.2439 89.8177 92.1194 90.3288 91.9686 90.8268C91.8179 91.3248 91.6476 91.8228 91.4837 92.3208C91.1758 93.2447 90.8285 94.1621 90.4026 95.0599C90.9182 95.0856 91.433 94.996 91.9097 94.7977C92.3965 94.4862 92.7708 94.0269 92.9778 93.4872C93.253 92.9499 93.5085 92.3995 93.7903 91.8621C94.1371 91.2812 94.4289 90.6691 94.6618 90.0339C94.6618 89.9553 94.8191 90.0339 94.7863 90.0929C94.3591 91.436 93.7993 92.7332 93.1154 93.9656C92.8205 94.4439 92.5912 94.9485 92.0538 95.1319C91.4722 95.2946 90.8635 95.337 90.2649 95.2564C90.1863 95.2564 90.0946 95.2564 90.1208 95.1385C90.3891 94.1492 90.7062 93.1739 91.0709 92.216Z" fill="#121316"/>
<path d="M89.7341 98.3362C90.8546 100.702 91.8375 103.061 92.8794 105.42C93.9212 107.779 94.8452 110.059 95.7822 112.405C97.6563 117.136 99.3338 121.959 100.808 126.821C101.536 129.232 102.21 131.663 102.813 134.114C103.477 136.557 103.963 139.045 104.268 141.558C104.531 144.067 104.308 146.603 103.613 149.028C102.89 151.425 101.963 153.755 100.841 155.994C100.153 157.409 99.9235 157.219 100.251 156.505C101.188 154.473 103.645 148.32 103.469 143.15C103.325 140.675 102.943 138.22 102.328 135.818C101.756 133.341 101.112 130.884 100.395 128.446C98.9996 123.636 97.3418 118.925 95.6381 114.22C94.6814 111.599 93.6722 108.978 92.6893 106.357C91.7064 103.736 90.7235 101.324 89.6227 98.428C89.5899 98.31 89.7013 98.2642 89.7341 98.3362Z" fill="#121316"/>
<path d="M66.6092 90.5192C67.1531 90.3161 67.9198 90.6503 68.4702 90.742C69.1831 90.863 69.9033 90.9353 70.626 90.9583C71.3411 90.9835 72.057 90.9594 72.7688 90.8862C73.4856 90.8677 74.188 90.6814 74.8198 90.3423C75.8563 89.5872 76.7449 88.6476 77.4409 87.5705C78.2703 86.4699 78.9551 85.2675 79.4788 83.9927C79.4788 83.9141 79.6164 83.9927 79.5902 84.0452C79.3608 84.7725 79.1904 85.5064 78.9349 86.2207C78.6524 86.8917 78.3149 87.5383 77.9258 88.1537C77.2949 89.3921 76.3618 90.4514 75.2129 91.2335C73.9483 91.9543 72.3232 91.8888 70.9144 91.8298C70.0973 91.7821 69.2848 91.6748 68.4833 91.5087C67.9067 91.3842 66.9369 91.2925 66.5699 90.7879C66.5527 90.7686 66.5399 90.7457 66.5324 90.7209C66.5249 90.6961 66.523 90.67 66.5268 90.6444C66.5305 90.6188 66.5398 90.5943 66.5541 90.5726C66.5683 90.551 66.5872 90.5328 66.6092 90.5192Z" fill="#121316"/>
<path d="M44.5856 196.758C49.5918 189.174 54.5064 181.53 59.3292 173.824C64.152 166.118 68.9092 158.353 73.601 150.529C74.7215 148.661 76.0124 146.8 76.7332 144.73C77.5195 142.482 77.0739 140.3 76.3662 138.098C75.0299 134.082 73.4679 130.144 71.6876 126.303C69.9315 122.431 68.0377 118.624 66.1768 114.803C64.3158 110.983 62.3696 107.209 60.9346 103.225C59.624 99.4176 59.0933 95.4728 60.1155 91.5281C61.1377 87.5834 63.3394 84.0973 65.6394 80.8144C66.2423 79.9495 66.8648 79.091 67.4742 78.1933C67.5201 78.1278 67.6184 78.1933 67.5725 78.272C65.0366 81.6925 62.5662 85.3161 61.0787 89.3329C60.3185 91.3129 59.8933 93.4056 59.8206 95.5253C59.8082 97.6768 60.1423 99.8164 60.8101 101.862C62.042 105.846 63.9881 109.614 65.8032 113.362C67.6184 117.11 69.558 120.989 71.3469 124.849C73.1924 128.733 74.8328 132.712 76.2614 136.768C76.8708 138.57 77.5719 140.457 77.5195 142.39C77.4736 144.507 76.4645 146.414 75.4161 148.196C70.8292 155.961 66.1309 163.634 61.3474 171.262C56.5639 178.889 51.6428 186.516 46.6628 194.065L44.7756 196.915C44.6773 197.033 44.5069 196.896 44.5856 196.758Z" fill="#121316"/>
<path d="M99.5303 53.5618C102.368 59.7869 116.698 68.3644 123.408 69.2884C128.231 69.9436 142.896 70.1795 147.922 69.4129C153.82 68.5086 149.311 52.6182 145.832 53.0311C136.265 54.145 128.139 55.39 125.584 55.39C122.465 55.39 105.592 49.9775 103.56 49.2108C98.5801 47.3564 97.9249 50.0299 99.5303 53.5618Z" fill="#EB9481"/>
<path d="M99.622 55.2196C103.213 60.5339 115.145 69.2228 115.145 69.2228L116.803 65.5532L122.288 53.4176C122.288 53.4176 111.325 49.9774 104.111 48.4048C103.262 48.2116 102.398 48.0888 101.529 48.0378C96.9222 47.7888 96.5225 50.6327 99.622 55.2196Z" fill="#F8E6F8"/>
<path d="M99.622 55.2198C103.213 60.534 115.145 69.2229 115.145 69.2229L116.803 65.5534C112.354 60.3833 105.48 52.5528 101.529 48.0511C96.9222 47.789 96.5225 50.6329 99.622 55.2198Z" fill="#121316"/>
<path d="M112.996 66.7594C113.907 64.5249 117.956 55.5281 118.966 53.654C119.031 53.5229 119.136 53.536 119.077 53.654C117.32 58.1281 115.321 62.5031 113.088 66.7594C113.062 66.838 112.957 66.8118 112.996 66.7594Z" fill="#121316"/>
<path d="M144.075 53.1948C149.894 52.4347 157.095 51.1307 163.196 53.7191C163.881 53.9878 164.456 54.4795 164.828 55.1148C167.58 56.2288 167.881 57.8604 167.881 57.8604C170.129 59.682 170.207 61.3988 170.207 61.3988C170.207 61.3988 173.431 62.7094 172.94 64.8194C172.403 67.1521 167.986 64.8194 164.775 65.0094C157.403 65.4681 147.083 68.1743 144.953 68.5151L144.075 53.1948Z" fill="#EB9481"/>
<path d="M156.716 60.0619C158.871 59.9145 161.034 59.9145 163.19 60.0619C165.537 60.3564 167.859 60.8274 170.136 61.4708C170.151 61.476 170.167 61.4751 170.181 61.4683C170.195 61.4616 170.206 61.4495 170.211 61.4347C170.216 61.4199 170.215 61.4037 170.209 61.3896C170.202 61.3754 170.19 61.3646 170.175 61.3594C165.898 59.6813 161.242 59.2098 156.716 59.9964C156.611 59.9833 156.611 60.0685 156.716 60.0619Z" fill="#121316"/>
<path d="M155.346 53.2537C158.944 53.4372 161.191 54.0138 164.808 55.1016V55.0622C160.824 53.3979 159.193 53.2406 155.327 53.0964C155.202 53.1489 155.209 53.2537 155.346 53.2537Z" fill="#121316"/>
<path d="M155.929 66.1233C154.992 66.5623 155.222 67.0538 157.011 67.4666C158.8 67.8794 166.237 68.0039 165.975 70.5988C165.713 73.1937 155.222 72.866 152.293 71.9487C149.364 71.0313 144.954 68.515 144.954 68.515C147.031 68.1677 151.906 66.8506 155.929 66.1233Z" fill="#EB9481"/>
<path d="M107.322 63.4824C107.276 64.6029 107.171 65.7431 107.014 66.8767C107.014 66.8309 107.014 66.7916 107.06 66.7522C107.276 66.1625 107.492 65.5596 107.755 64.9896C107.755 64.9896 107.82 64.9896 107.814 64.9896C107.688 65.6142 107.499 66.2245 107.25 66.8112C107.132 67.093 107.021 67.3682 106.896 67.6434C106.818 68.148 106.726 68.646 106.627 69.144C106.431 70.081 105.546 74.0651 105.317 74.74C105.278 74.8776 105.107 74.8448 105.12 74.6876C105.166 73.9537 105.907 69.8058 106.057 68.8622C106.35 67.0403 106.742 65.2356 107.23 63.4562C107.263 63.4235 107.329 63.4497 107.322 63.4824Z" fill="#121316"/>
<path d="M100.507 93.2779C98.7577 94.1757 96.5036 95.5714 86.3469 93.5728C85.6916 93.4417 85.0756 93.2845 84.4335 93.0945C74.9124 90.2375 63.4648 79.0389 62.8423 78.246C62.8423 78.246 77.9725 53.7192 97.3227 46.0066C99.7144 45.0565 103.672 46.8913 105.841 49.1782C106.621 49.9972 108.318 56.0192 107.669 60.8944C107.021 65.7696 102.25 92.3802 100.507 93.2779Z" fill="#F8E6F8"/>
<path d="M99.1435 60.6716C99.2165 61.7081 99.0714 62.7483 98.7175 63.7252C98.6345 62.6884 98.7799 61.6461 99.1435 60.6716Z" fill="white"/>
<path d="M92.5455 77.3748C92.5872 77.8905 92.5696 78.4094 92.4931 78.9212C92.43 79.4368 92.3046 79.9429 92.1196 80.4283C92.0745 79.9104 92.0921 79.389 92.172 78.8753C92.239 78.3626 92.3643 77.8591 92.5455 77.3748Z" fill="white"/>
<path d="M81.3341 64.7476C81.4079 65.7862 81.2628 66.8287 80.9081 67.8077C80.8258 66.7688 80.9712 65.7245 81.3341 64.7476Z" fill="white"/>
<path d="M103.462 76.5225C103.504 77.0404 103.487 77.5615 103.41 78.0755C103.347 78.5911 103.222 79.0972 103.037 79.5826C102.991 79.0647 103.009 78.5433 103.089 78.0296C103.155 77.5145 103.281 77.0088 103.462 76.5225Z" fill="white"/>
<path d="M89.0659 62.5849C89.5815 62.5411 90.1003 62.5564 90.6124 62.6308C91.1282 62.6962 91.6343 62.8238 92.1195 63.0108C91.083 63.0853 90.0425 62.9401 89.0659 62.5849Z" fill="white"/>
<path d="M76.3398 74.6485C77.3763 74.5755 78.4165 74.7206 79.3934 75.0745C78.3567 75.1575 77.3143 75.0121 76.3398 74.6485Z" fill="white"/>
<path d="M91.333 87.7082C92.3695 87.6337 93.41 87.7789 94.3866 88.1341C93.3499 88.2159 92.3078 88.0706 91.333 87.7082Z" fill="white"/>
<path d="M72.415 82.9637C73.4515 82.8906 74.4917 83.0357 75.4686 83.3896C74.4319 83.4715 73.3898 83.3261 72.415 82.9637Z" fill="white"/>
<path d="M99.0449 48.929C100.081 48.856 101.122 49.0011 102.098 49.355C101.062 49.428 100.022 49.2829 99.0449 48.929Z" fill="white"/>
<path d="M95.3439 53.1099C95.0126 53.5081 94.6341 53.8646 94.2168 54.1714C93.8108 54.4854 93.3712 54.7535 92.9062 54.9708C93.2353 54.5752 93.6092 54.2189 94.0202 53.9093C94.4301 53.5941 94.8741 53.326 95.3439 53.1099Z" fill="white"/>
<path d="M75.1673 64.9897C74.832 65.3845 74.4515 65.7386 74.0337 66.0447C73.6318 66.3646 73.1915 66.6332 72.7231 66.8442C73.0602 66.4511 73.4405 66.0972 73.8568 65.7892C74.2596 65.4706 74.6997 65.2022 75.1673 64.9897Z" fill="white"/>
<path d="M100.363 70.3499C100.027 70.7467 99.647 71.1029 99.229 71.4114C98.8261 71.73 98.3861 71.9984 97.9185 72.2108C98.2537 71.814 98.6341 71.4577 99.0521 71.1493C99.4572 70.8339 99.8968 70.5657 100.363 70.3499Z" fill="white"/>
<path d="M84.0467 80.6245C83.7115 81.0213 83.331 81.3776 82.9131 81.686C82.5096 82.0037 82.0696 82.272 81.6025 82.4855C81.9377 82.0887 82.3182 81.7324 82.7362 81.4239C83.1413 81.1086 83.5809 80.8404 84.0467 80.6245Z" fill="white"/>
<path d="M106.614 56.3142C106.278 56.711 105.898 57.0673 105.48 57.3757C105.074 57.6897 104.634 57.9578 104.169 58.1752C104.505 57.7784 104.885 57.4221 105.303 57.1136C105.707 56.796 106.147 56.5277 106.614 56.3142Z" fill="white"/>
<path d="M106.273 68.22C105.876 67.8848 105.52 67.5044 105.212 67.0864C104.893 66.6838 104.624 66.2437 104.412 65.7759C104.81 66.1071 105.167 66.4856 105.474 66.9029C105.787 67.312 106.055 67.7535 106.273 68.22Z" fill="white"/>
<path d="M69.9054 76.4246C69.5086 76.0894 69.1523 75.709 68.8439 75.291C68.5285 74.8859 68.2603 74.4462 68.0444 73.9805C68.4413 74.3157 68.7975 74.6961 69.106 75.1141C69.4236 75.5176 69.692 75.9576 69.9054 76.4246Z" fill="white"/>
<path d="M101.851 86.181C101.452 85.8498 101.096 85.4713 100.789 85.054C100.475 84.6479 100.207 84.2084 99.9897 83.7434C100.387 84.0786 100.743 84.4591 101.051 84.877C101.368 85.2792 101.636 85.7168 101.851 86.181Z" fill="white"/>
<path d="M85.8419 58.3649C85.4452 58.0319 85.089 57.6537 84.7804 57.2378C84.4677 56.8308 84.1997 56.3915 83.981 55.9272C84.3792 56.2585 84.7356 56.637 85.0425 57.0543C85.3552 57.4613 85.6232 57.9006 85.8419 58.3649Z" fill="white"/>
<path d="M86.1232 91.7383C85.7264 91.4031 85.3701 91.0227 85.0616 90.6047C84.7473 90.1989 84.4792 89.7594 84.2622 89.2942C84.6604 89.6255 85.0169 90.0039 85.3237 90.4213C85.6391 90.8287 85.9072 91.2706 86.1232 91.7383Z" fill="white"/>
<path d="M88.8432 72.0535C88.4501 71.7164 88.0962 71.3362 87.7882 70.9199C87.4683 70.518 87.1997 70.0778 86.9888 69.6094C87.3835 69.9447 87.7376 70.3252 88.0438 70.743C88.3623 71.1459 88.6308 71.5859 88.8432 72.0535Z" fill="white"/>
<path d="M102.296 55.7111C99.8255 55.2524 97.5058 50.1479 97.2109 46.7142C97.2109 46.4783 98.3642 44.6108 99.6813 42.2715C100.481 40.8496 101.326 39.2442 102.001 37.7239C102.139 37.4159 102.945 38.4578 102.945 38.4578L104.701 39.7684L110.5 44.2177C109.119 45.8748 107.946 47.6947 107.007 49.6368C106.915 49.8472 106.844 50.0669 106.798 50.292C106.795 50.3291 106.795 50.3663 106.798 50.4034C106.437 51.7009 104.674 56.1502 102.296 55.7111Z" fill="#EB9481"/>
<path d="M106.797 50.3247C106.794 50.3618 106.794 50.399 106.797 50.4361C106.453 50.3351 106.117 50.2058 105.795 50.0495C99.4449 47.0745 102.243 38.5691 102.243 38.5691L104.733 39.801L110.532 44.2503C109.151 45.9074 107.978 47.7273 107.04 49.6694C106.936 49.8785 106.854 50.0982 106.797 50.3247Z" fill="#121316"/>
<path d="M117.164 26.1123C117.164 26.1123 120.066 27.9536 120.08 31.23C120.093 34.5063 118.769 37.7106 118.494 37.8286C118.219 37.9465 117.164 26.1123 117.164 26.1123Z" fill="#121316"/>
<path d="M102.761 27.816C101.018 31.2562 101.11 42.1009 103.285 44.8924C106.443 48.942 112.524 50.3377 116.2 46.334C119.759 42.4548 119.392 28.3271 116.856 25.6929C113.167 21.8006 105.343 22.7246 102.761 27.816Z" fill="#EB9481"/>
<path d="M112.013 36.4985C112.013 36.4985 111.954 36.5379 111.961 36.5641C112 37.3045 111.922 38.1564 111.26 38.4185C111.26 38.4185 111.26 38.4643 111.26 38.4578C112.079 38.3267 112.171 37.1931 112.013 36.4985Z" fill="#121316"/>
<path d="M111.338 35.7447C110.145 35.6792 110.106 38.0644 111.213 38.1234C112.321 38.1823 112.334 35.7972 111.338 35.7447Z" fill="#121316"/>
<path d="M116.056 36.4724C116.056 36.4724 116.115 36.4724 116.115 36.5379C116.076 37.2784 116.161 38.1302 116.829 38.3858C116.829 38.3858 116.829 38.4317 116.829 38.4251C116.004 38.3006 115.905 37.167 116.056 36.4724Z" fill="#121316"/>
<path d="M116.731 35.7121C117.917 35.64 117.976 38.0252 116.876 38.0907C115.775 38.1562 115.735 35.771 116.731 35.7121Z" fill="#121316"/>
<path d="M110.591 33.9298C110.904 33.8408 111.213 33.7358 111.515 33.6153C111.859 33.553 112.173 33.3778 112.406 33.1173C112.463 33.0219 112.487 32.9106 112.474 32.8004C112.461 32.6902 112.412 32.5874 112.334 32.5079C112.157 32.3731 111.947 32.2881 111.726 32.2616C111.505 32.2351 111.28 32.2681 111.076 32.3572C110.634 32.4756 110.251 32.7533 110.002 33.137C109.952 33.2282 109.929 33.3319 109.936 33.4356C109.944 33.5394 109.98 33.6389 110.043 33.7223C110.105 33.8058 110.189 33.8697 110.287 33.9064C110.384 33.9432 110.49 33.9514 110.591 33.9298Z" fill="#121316"/>
<path d="M117.543 34.985C117.225 34.9138 116.91 34.8263 116.6 34.7229C116.255 34.6772 115.934 34.5182 115.689 34.2708C115.626 34.1797 115.595 34.0699 115.603 33.9592C115.61 33.8486 115.654 33.7436 115.728 33.6614C115.897 33.5169 116.102 33.4206 116.321 33.3825C116.54 33.3445 116.766 33.3661 116.973 33.4451C117.422 33.538 117.819 33.7951 118.087 34.1659C118.144 34.2537 118.173 34.3559 118.172 34.4601C118.171 34.5643 118.14 34.6659 118.082 34.7527C118.025 34.8395 117.943 34.9077 117.847 34.9489C117.752 34.9902 117.646 35.0027 117.543 34.985Z" fill="#121316"/>
<path d="M110.336 43.5034C110.513 43.6803 110.684 43.9162 110.952 43.9424C111.228 43.9423 111.5 43.8842 111.752 43.772C111.752 43.772 111.798 43.772 111.752 43.8113C111.644 43.9554 111.5 44.0675 111.334 44.1356C111.167 44.2037 110.986 44.2252 110.808 44.198C110.659 44.1571 110.524 44.0733 110.422 43.9568C110.319 43.8403 110.253 43.6963 110.232 43.5427C110.226 43.5288 110.227 43.5134 110.233 43.4999C110.239 43.4863 110.25 43.4758 110.264 43.4706C110.278 43.4654 110.294 43.4659 110.307 43.4721C110.321 43.4782 110.331 43.4895 110.336 43.5034Z" fill="#121316"/>
<path d="M114.621 40.3453C114.621 40.3453 114.654 41.4461 114.621 41.9638C113.614 41.8569 112.597 41.8922 111.6 42.0686C111.364 42.121 111.39 41.931 111.659 41.8065C112.462 41.4394 113.357 41.3208 114.228 41.4658C114.28 41.3282 114.142 39.7621 114.228 39.7686C114.624 39.8464 115.008 39.9787 115.368 40.1618C115.368 37.8552 115.001 35.5749 115.034 33.2683C115.034 33.1897 115.158 33.1766 115.171 33.2683C115.637 35.7084 115.856 38.189 115.827 40.6729C115.833 40.9547 114.817 40.4501 114.621 40.3453Z" fill="#121316"/>
<path d="M113.147 41.5707C112.886 42.2578 112.401 42.8371 111.771 43.2154C110.782 43.6151 110.461 42.7174 111.457 41.9049C111.979 41.6409 112.564 41.5253 113.147 41.5707Z" fill="#121316"/>
<path d="M112.119 43.012C112.014 43.0972 111.897 43.1657 111.771 43.2152C110.861 43.5821 110.5 42.8548 111.234 42.1208C111.732 42.1602 112.302 42.3436 112.119 43.012Z" fill="#FF99BA"/>
<path d="M102.263 37.0883C103.462 37.4553 104.838 33.8513 105.231 32.5014C105.572 31.2826 105.965 27.41 106.024 27.1413C106.083 26.8726 111.266 30.5684 114.267 29.6903C117.268 28.8122 119.306 26.0929 119.352 24.8282C119.398 23.5635 115.643 20.3527 112.4 20.1889C109.156 20.0251 104.759 24.1205 104.759 24.1205C105.29 23.5178 105.772 22.8736 106.201 22.194C106.148 22.0498 104.051 22.8886 103.665 24.3826C103.665 24.3826 104.084 22.502 103.927 22.4692C103.77 22.4364 102.138 24.0419 102.505 25.2607C102.505 25.2607 100.618 26.8923 100.447 28.6812C100.277 30.4701 100.854 36.6558 102.263 37.0883Z" fill="#121316"/>
<path d="M116.417 29.0089C115.525 29.4928 114.564 29.8375 113.567 30.0311C112.448 30.1309 111.322 29.9507 110.291 29.5069C109.251 29.1054 108.286 28.5341 107.434 27.8163C106.68 27.2003 106.005 26.4468 105.199 25.8963C104.996 25.7522 104.767 26.047 104.891 26.2305C106.236 28.1299 108.157 29.5453 110.369 30.267C111.397 30.602 112.494 30.6646 113.553 30.4487C114.612 30.2328 115.597 29.7457 116.411 29.0351C116.411 29.0351 116.431 29.0089 116.417 29.0089Z" fill="#121316"/>
<path d="M103.515 36.7669C103.515 36.7669 101.654 32.9926 99.9764 33.602C98.2989 34.2114 99.3211 39.4339 101.044 40.3906C101.256 40.5272 101.492 40.6197 101.74 40.6627C101.988 40.7056 102.241 40.6981 102.486 40.6406C102.731 40.5831 102.962 40.4767 103.164 40.3279C103.367 40.1791 103.537 39.9909 103.666 39.7746L103.515 36.7669Z" fill="#EB9481"/>
<path d="M100.31 35.0898C100.31 35.0898 100.271 35.0898 100.31 35.1423C101.503 35.85 101.988 37.1081 102.276 38.4186C102.222 38.2799 102.138 38.1546 102.031 38.0514C101.923 37.9482 101.795 37.8696 101.654 37.821C101.513 37.7724 101.363 37.755 101.215 37.7699C101.067 37.7848 100.924 37.8318 100.795 37.9075C100.756 37.9075 100.795 37.9796 100.795 37.9796C101.03 37.9431 101.27 37.9803 101.482 38.0859C101.695 38.1915 101.869 38.3604 101.981 38.5693C102.169 38.9193 102.318 39.2883 102.427 39.6702C102.466 39.7947 102.683 39.7619 102.663 39.6243C102.945 37.9927 102.027 35.5223 100.31 35.0898Z" fill="#121316"/>
<path d="M91.2286 53.6208C89.9181 61.045 97.9648 86.0568 103.122 90.7289C110.795 97.6747 124.982 102.242 130.126 103.729C132.367 104.385 138.565 88.6123 136.298 87.5704C131.443 85.3622 116.358 80.6442 114.923 79.4647C113.488 78.2852 104.839 65.7892 100.986 58.5943C95.8286 48.9094 91.8773 49.8661 91.2286 53.6208Z" fill="#EB9481"/>
<path d="M132.477 86.1814C132.477 86.1814 139.174 87.8917 143.492 89.2087C145.904 89.9492 149.927 91.5808 151.454 92.9307C153.734 94.9555 161.977 104.863 159.618 106.914C157.482 108.775 151.48 99.3589 151.48 99.3589C151.48 99.3589 158.373 108.323 155.412 110.086C152.45 111.848 147.031 100.309 147.031 100.309C147.031 100.309 153.904 109.679 150.543 111.01C148 112.012 142.549 101.836 142.549 101.836C142.549 101.836 148.407 109.928 145.825 111.075C142.981 112.346 137.365 103.264 137.365 103.264C130.341 105.079 126.226 103.068 123.52 101.299C122.884 100.866 132.477 86.1814 132.477 86.1814Z" fill="#EB9481"/>
<path d="M149.292 96.1024C150.144 97.1246 151.009 98.16 151.762 99.2543C152.516 100.349 153.23 101.476 153.879 102.635C154.758 104.136 155.461 105.732 155.976 107.393C154.848 104.51 152.208 100.545 151.454 99.4508C150.701 98.3565 149.999 97.2229 149.252 96.1286C149.233 96.1024 149.272 96.0762 149.292 96.1024Z" fill="#121316"/>
<path d="M145.288 98.7559C146.743 99.9092 149.79 104.195 150.963 107.071C151.015 107.189 150.963 107.183 150.878 107.071C149.96 105.649 146.238 100.145 145.256 98.7756C145.236 98.7559 145.269 98.7363 145.288 98.7559Z" fill="#121316"/>
<path d="M141.441 100.434C143.249 102.329 144.677 104.554 145.648 106.986C145.694 107.104 145.602 107.085 145.53 106.986C144.174 104.778 143.125 103.055 141.369 100.493C141.343 100.434 141.402 100.375 141.441 100.434Z" fill="#121316"/>
<path d="M98.5412 54.1649C92.5585 45.7053 88.9808 48.8375 90.1799 58.0244C91.307 66.615 94.3147 76.8504 94.3147 76.8504L109.386 69.5375C109.386 69.5375 102.348 59.584 98.5412 54.1649Z" fill="#F8E6F8"/>
<path d="M102.178 57.4937C102.376 57.9715 102.519 58.4706 102.604 58.9811C102.696 59.4933 102.729 60.0144 102.702 60.5341C102.505 60.0538 102.365 59.5525 102.283 59.0401C102.185 58.5308 102.15 58.0115 102.178 57.4937Z" fill="white"/>
<path d="M93.2471 62.6374C94.2088 62.2462 95.2437 62.0674 96.281 62.1132C95.8029 62.3097 95.3038 62.4504 94.7935 62.5326C94.2842 62.6299 93.7649 62.6651 93.2471 62.6374Z" fill="white"/>
<path d="M93.6327 49.4797C93.2269 50.4374 92.6215 51.2974 91.8569 52.0025C92.2627 51.0449 92.8681 50.1848 93.6327 49.4797Z" fill="white"/>
<path d="M106.404 66.5889C106.205 67.0681 105.952 67.5232 105.651 67.9453C105.357 68.3728 105.014 68.7642 104.628 69.1117C105.034 68.154 105.64 67.2939 106.404 66.5889Z" fill="white"/>
<path d="M95.9193 71.7196C95.4389 71.523 94.9836 71.2701 94.5629 70.9661C94.1352 70.6724 93.7437 70.3293 93.3965 69.9438C94.3541 70.3496 95.2142 70.955 95.9193 71.7196Z" fill="white"/>
<path d="M100.507 56.7134C101.313 57.8208 102.145 58.902 102.971 59.9897C102.761 59.4393 102.577 58.8823 102.42 58.3188H102.46C102.623 58.7513 102.813 59.1772 102.971 59.6293L103.207 60.2846C103.227 60.3293 103.244 60.3753 103.259 60.4222C103.914 61.2675 104.569 62.1128 105.172 62.9778C105.913 64.0131 106.627 65.0615 107.348 66.11C108.069 67.1584 108.796 68.4624 109.576 69.5174C109.648 69.6091 108.265 70.1727 108.115 70.2447C107.964 70.3168 107.885 70.1923 108.029 70.1464C108.173 70.1006 109.274 69.4256 109.287 69.4125C108.567 68.351 107.734 67.3746 106.981 66.3459C106.227 65.3171 105.48 64.2883 104.753 63.2464C103.279 61.1234 101.929 58.9216 100.461 56.792L100.507 56.7134Z" fill="#121316"/>
<path d="M90.5338 64.1054C90.7631 64.551 91.0121 64.99 91.189 65.4487L91.438 66.0188C91.0907 64.3872 90.7828 62.7425 90.4224 61.1108C91.117 63.7319 91.8181 66.412 92.4603 69.0724C93.0697 71.6148 93.8101 74.1835 94.164 76.7784C94.6209 76.5779 95.0945 76.4179 95.5793 76.3C95.0928 76.6149 94.5689 76.8681 94.0198 77.0536C93.2299 74.4149 92.5738 71.738 92.054 69.0331C91.8902 68.2992 91.7395 67.5653 91.5822 66.8314C91.4118 66.3858 91.2087 65.9598 91.0056 65.5208C90.8024 65.0818 90.6189 64.5903 90.4355 64.1251C90.4748 64.0989 90.5207 64.0727 90.5338 64.1054Z" fill="#121316"/>
<path d="M94.5368 74.3208C96.6337 73.1413 105.395 68.6068 107.354 67.7681C107.492 67.7091 107.564 67.7681 107.426 67.8598C103.267 70.2762 98.9799 72.4637 94.5827 74.4125C94.5302 74.4256 94.4778 74.3535 94.5368 74.3208Z" fill="#121316"/>
<path d="M334.647 246.591H134.999L163.864 82.8718H363.512L334.647 246.591Z" fill="#F8E6F8"/>
<path d="M232.196 65.9136H166.859L163.865 82.872H233.789L232.196 65.9136Z" fill="#F8E6F8"/>
<g opacity="0.1">
<path d="M334.648 246.591H135L163.865 82.8716H363.513L334.648 246.591Z" fill="black"/>
<path d="M232.196 65.9133H166.859L163.864 82.8717H233.788L232.196 65.9133Z" fill="black"/>
</g>
<path d="M159.808 72.8329C159.371 70.9578 159.371 69.0073 159.808 67.1321C160.245 69.0073 160.245 70.9578 159.808 72.8329Z" fill="#121316"/>
<path d="M154.002 74.5107C153.335 73.8188 152.76 73.0435 152.292 72.2041C151.801 71.3822 151.415 70.5015 151.145 69.583C151.814 70.2708 152.389 71.0442 152.855 71.883C153.345 72.7078 153.73 73.5905 154.002 74.5107Z" fill="#121316"/>
<path d="M149.809 78.8682C147.967 78.3084 146.279 77.3332 144.875 76.0178C145.793 76.2848 146.674 76.668 147.496 77.158C148.335 77.6292 149.112 78.2038 149.809 78.8682Z" fill="#121316"/>
<path d="M148.341 84.7395C146.466 85.1765 144.515 85.1765 142.64 84.7395C144.515 84.3026 146.466 84.3026 148.341 84.7395Z" fill="#121316"/>
<path d="M150.045 90.5452C149.351 91.2089 148.576 91.7834 147.739 92.2554C146.917 92.7454 146.036 93.1286 145.118 93.3956C145.81 92.7284 146.585 92.1535 147.424 91.6853C148.245 91.193 149.126 90.8097 150.045 90.5452Z" fill="#121316"/>
<path d="M154.396 94.7322C153.838 96.5763 152.863 98.2669 151.545 99.6729C151.812 98.7531 152.198 97.872 152.692 97.0518C153.159 96.2094 153.732 95.4299 154.396 94.7322Z" fill="#121316"/>
<path d="M160.267 96.1807C160.496 97.1133 160.606 98.071 160.595 99.0311C160.609 99.9914 160.499 100.949 160.267 101.882C160.033 100.95 159.922 99.9916 159.94 99.0311C159.929 98.071 160.039 97.1133 160.267 96.1807Z" fill="#121316"/>
<path d="M166.073 94.5361C166.74 95.2279 167.315 96.0032 167.784 96.8426C168.276 97.663 168.659 98.5442 168.924 99.4637C167.606 98.0577 166.631 96.367 166.073 94.5229V94.5361Z" fill="#121316"/>
<path d="M170.26 90.1453C171.179 90.4098 172.06 90.7931 172.881 91.2854C173.72 91.7536 174.496 92.3285 175.187 92.9957C174.268 92.7312 173.387 92.3479 172.566 91.8555C171.727 91.3873 170.952 90.8125 170.26 90.1453Z" fill="#121316"/>
<path d="M171.708 84.2741C173.585 83.8373 175.538 83.8373 177.415 84.2741C175.538 84.7109 173.585 84.7109 171.708 84.2741Z" fill="#121316"/>
<path d="M170.03 78.4686C170.724 77.8054 171.499 77.2329 172.337 76.7649C173.156 76.2678 174.037 75.8822 174.958 75.6182C173.552 76.9354 171.861 77.9108 170.017 78.4686H170.03Z" fill="#121316"/>
<path d="M165.673 74.2812C165.943 73.3635 166.326 72.483 166.813 71.6601C167.281 70.8206 167.856 70.0454 168.523 69.3535C168.259 70.273 167.875 71.1542 167.383 71.9746C166.915 72.814 166.34 73.5893 165.673 74.2812Z" fill="#121316"/>
<path d="M334.353 246.592H134.279L105.866 88.8154H305.947L334.353 246.592Z" fill="#F8E6F8"/>
<path d="M175.201 185.265C179.793 185.265 183.516 181.542 183.516 176.949C183.516 172.357 179.793 168.634 175.201 168.634C170.608 168.634 166.885 172.357 166.885 176.949C166.885 181.542 170.608 185.265 175.201 185.265Z" fill="#121316"/>
<path d="M240.937 185.265C245.53 185.265 249.253 181.542 249.253 176.949C249.253 172.357 245.53 168.634 240.937 168.634C236.345 168.634 232.622 172.357 232.622 176.949C232.622 181.542 236.345 185.265 240.937 185.265Z" fill="#121316"/>
<path d="M220.014 186.595L219.555 185.723C219.516 185.645 215.218 177.703 206.575 177.703C198.711 177.703 196.745 185.18 196.693 185.501L196.457 186.451L194.55 185.992L194.78 185.035C194.78 184.944 197.126 175.737 206.575 175.737C216.404 175.737 221.102 184.439 221.298 184.813L221.757 185.678L220.014 186.595Z" fill="#121316"/>
<path d="M321.142 176.314L321.004 175.658C321.43 175.567 321.849 175.468 322.269 175.357L322.432 176.012C321.987 176.124 321.574 176.222 321.142 176.314Z" fill="#121316"/>
<path d="M324.968 175.259L324.758 174.643C325.577 174.361 326.396 174.053 327.189 173.719L327.445 174.322C326.639 174.662 325.806 174.977 324.968 175.259ZM329.849 173.168L329.555 172.592C330.321 172.192 331.088 171.76 331.815 171.281L332.156 171.838C331.409 172.356 330.629 172.795 329.849 173.168ZM334.358 170.397L333.971 169.866C334.679 169.348 335.36 168.804 336.003 168.247L336.435 168.739C335.747 169.335 335.092 169.892 334.351 170.423L334.358 170.397ZM338.355 166.911L337.877 166.458C338.479 165.803 339.05 165.148 339.574 164.493L340.091 164.892C339.548 165.613 338.964 166.288 338.368 166.937L338.355 166.911ZM341.599 162.717L341.042 162.369C341.494 161.637 341.897 160.876 342.247 160.089L342.85 160.358C342.48 161.178 342.059 161.974 341.592 162.743L341.599 162.717ZM343.767 157.855L343.112 157.671C343.352 156.849 343.529 156.01 343.643 155.161L344.298 155.247C344.19 156.138 344.01 157.019 343.761 157.881L343.767 157.855ZM344.495 152.613H343.84V152.422C343.84 151.63 343.794 150.824 343.715 150.031L344.37 149.965C344.456 150.781 344.5 151.602 344.501 152.422L344.495 152.613ZM343.315 147.482C343.139 146.637 342.92 145.801 342.66 144.979L343.315 144.782C343.584 145.634 343.813 146.499 343.971 147.344L343.315 147.482ZM341.762 142.548C341.448 141.774 341.107 140.981 340.688 140.182L341.277 139.887C341.677 140.7 342.044 141.512 342.365 142.299L341.762 142.548ZM339.469 137.875C339.063 137.161 338.617 136.408 338.158 135.634L338.715 135.287C339.194 136.067 339.646 136.827 340.026 137.554L339.469 137.875ZM336.73 133.426C336.251 132.705 335.767 131.978 335.269 131.251L335.812 130.884C336.31 131.611 336.795 132.338 337.274 133.072L336.73 133.426ZM333.781 129.088C333.29 128.367 332.792 127.64 332.307 126.919L332.851 126.552C333.336 127.273 333.827 128.001 334.318 128.715L333.781 129.088ZM330.852 124.724C330.374 123.99 329.908 123.243 329.45 122.496L330.007 122.155C330.465 122.902 330.931 123.636 331.402 124.37L330.852 124.724ZM328.12 120.222C327.674 119.43 327.261 118.643 326.888 117.89L327.477 117.595C327.844 118.342 328.257 119.115 328.69 119.901L328.12 120.222ZM325.793 115.504C325.446 114.685 325.138 113.853 324.85 113.041L325.505 112.831C325.78 113.624 326.088 114.443 326.429 115.249L325.793 115.504ZM324.09 110.505C323.873 109.653 323.683 108.781 323.539 107.884L324.194 107.779C324.339 108.618 324.516 109.469 324.732 110.308L324.09 110.505ZM323.212 105.263C323.146 104.457 323.113 103.644 323.113 102.832V102.615H323.769V102.825C323.769 103.618 323.769 104.417 323.867 105.204L323.212 105.263ZM323.867 100.02L323.212 99.9549C323.212 99.778 323.244 99.5945 323.264 99.4045C323.343 98.7033 323.441 98.0022 323.559 97.3338L324.214 97.4452C324.103 98.1005 324.004 98.7885 323.926 99.4765C323.952 99.6797 323.952 99.8566 323.9 100.04L323.867 100.02ZM324.778 94.9224L324.122 94.7455C324.365 93.8805 324.647 93.0352 324.961 92.2292L325.571 92.4651C325.273 93.2765 325.019 94.1033 324.81 94.9421L324.778 94.9224ZM357.43 91.1022C357.063 91.1022 356.683 91.0498 356.309 90.9973C355.798 90.9253 355.287 90.8401 354.783 90.7418L354.914 90.0865C355.399 90.1782 355.903 90.2634 356.401 90.3355C356.755 90.3814 357.115 90.4141 357.463 90.4338L357.43 91.1022ZM360.123 90.899L359.985 90.2438C360.808 90.074 361.596 89.7684 362.318 89.3395L362.659 89.8965C361.887 90.3741 361.041 90.7196 360.156 90.9187L360.123 90.899ZM326.665 90.1193L326.082 89.8113C326.499 89.0298 326.961 88.2728 327.464 87.544L328.002 87.9175C327.523 88.6312 327.087 89.373 326.698 90.1389L326.665 90.1193ZM352.22 90.0799C351.375 89.8116 350.543 89.4988 349.73 89.1429L349.999 88.5401C350.787 88.8901 351.594 89.1942 352.417 89.4509L352.22 90.0799ZM364.671 88.0355L364.127 87.6686C364.593 86.9917 364.869 86.2018 364.926 85.3817L365.581 85.4275C365.526 86.3675 365.218 87.2752 364.69 88.0552L364.671 88.0355ZM347.371 87.9372C346.605 87.4915 345.863 87.0036 345.15 86.476L345.537 85.9517C346.231 86.4635 346.952 86.936 347.699 87.3671L347.371 87.9372ZM329.614 85.8928L329.129 85.4537C329.722 84.7939 330.354 84.1702 331.022 83.5862L331.455 84.0777C330.812 84.6528 330.204 85.2655 329.633 85.9124L329.614 85.8928ZM343.106 84.7854C342.453 84.1842 341.834 83.5476 341.251 82.8785L341.743 82.446C342.31 83.0959 342.911 83.715 343.545 84.3005L343.106 84.7854ZM364.435 83.0096C364.059 82.2607 363.541 81.5928 362.908 81.0438L363.34 80.5523C364.037 81.1545 364.609 81.8868 365.024 82.7081L364.435 83.0096ZM333.493 82.4919L333.119 81.9546C333.852 81.4541 334.611 80.9926 335.393 80.572L335.701 81.1486C334.948 81.5646 334.218 82.0195 333.512 82.5116L333.493 82.4919ZM339.613 80.7882C339.364 80.4344 339.122 80.074 338.892 79.7005L338.04 80.0346L337.791 79.4318L338.545 79.1304C338.427 78.9338 338.309 78.7372 338.198 78.5406L338.768 78.2195C338.899 78.4489 339.03 78.6782 339.167 78.8748C339.534 78.7438 339.908 78.6193 340.288 78.5013L340.478 79.1566C340.157 79.2549 339.823 79.3597 339.521 79.4711C339.724 79.7922 339.934 80.1264 340.177 80.4081L339.613 80.7882ZM360.798 79.6611C360.164 79.3452 359.507 79.0779 358.832 78.8617L358.4 78.7241L358.59 78.0688L359.035 78.213C359.737 78.4367 360.421 78.715 361.08 79.0452L360.798 79.6611ZM342.988 78.4882L342.85 77.8329C343.695 77.6429 344.573 77.4856 345.471 77.3611L345.569 78.0164C344.704 78.154 343.846 78.3178 343.007 78.5079L342.988 78.4882ZM355.897 78.1343C355.077 77.9902 354.213 77.8788 353.328 77.8002L353.38 77.1449C354.291 77.2235 355.176 77.3349 356.001 77.4856L355.897 78.1343ZM348.132 77.7543L348.086 77.099C348.865 77.0532 349.645 77.0269 350.418 77.0269H350.74V77.6822H350.425C349.685 77.7019 348.911 77.7215 348.151 77.7739L348.132 77.7543ZM337.057 76.1882C336.704 75.3888 336.402 74.5566 336.107 73.7113L336.763 73.5081C337.038 74.3338 337.346 75.1463 337.687 75.9261L337.057 76.1882ZM335.4 71.1557C335.203 70.3104 335.039 69.4324 334.915 68.5346L335.57 68.4429C335.695 69.3078 335.852 70.1663 336.042 70.9984L335.4 71.1557ZM334.666 65.9135C334.633 65.3238 334.613 64.7209 334.613 64.1181C334.613 63.8363 334.613 63.548 334.613 63.2662H335.269C335.269 63.548 335.269 63.8232 335.269 64.105C335.269 64.6947 335.269 65.291 335.314 65.8611L334.666 65.9135ZM335.445 60.6714L334.79 60.6058C334.882 59.7409 335.006 58.8563 335.157 57.9848L335.812 58.0961C335.636 58.9677 335.511 59.8064 335.426 60.6845L335.445 60.6714ZM336.343 55.5537L335.688 55.3964C335.898 54.5511 336.14 53.6993 336.409 52.8474L337.064 53.0506C336.769 53.909 336.527 54.7412 336.324 55.5668L336.343 55.5537ZM337.916 50.5933L337.306 50.3574C337.628 49.5383 337.962 48.7192 338.361 47.9263L338.951 48.2147C338.558 49.001 338.211 49.8004 337.896 50.6326L337.916 50.5933ZM340.17 45.9212L339.6 45.587C340.046 44.8335 340.524 44.0799 341.022 43.3591L341.559 43.7326C341.048 44.4534 340.583 45.1873 340.15 45.9343L340.17 45.9212ZM343.125 41.6554L342.614 41.2426C343.165 40.5873 343.754 39.8927 344.364 39.2768L344.836 39.7289C344.22 40.3448 343.643 41.0001 343.106 41.6685L343.125 41.6554ZM346.69 37.881L346.251 37.3961C346.906 36.8129 347.561 36.2363 348.263 35.6793L348.669 36.197C347.968 36.754 347.299 37.324 346.67 37.8941L346.69 37.881ZM350.759 34.644L350.386 34.1001C351.1 33.6087 351.847 33.1238 352.607 32.6651L352.941 33.222C352.181 33.6873 351.473 34.1656 350.74 34.6571L350.759 34.644ZM355.209 31.9377L354.901 31.3611C355.674 30.9483 356.473 30.5551 357.273 30.1881L357.548 30.7844C356.716 31.1579 355.949 31.5511 355.189 31.9508L355.209 31.9377ZM359.946 29.7622L359.704 29.1463C360.529 28.8252 361.361 28.491 362.187 28.2485L362.397 28.9038C361.565 29.1528 360.739 29.4542 359.926 29.7753L359.946 29.7622Z" fill="#121316"/>
<path d="M364.999 28.1044L364.835 27.4491C365.648 27.2394 366.146 27.1477 366.146 27.1477L366.264 27.803C366.264 27.803 365.792 27.9013 364.999 28.1044Z" fill="#121316"/>
<path d="M376.583 23.8712C374.913 18.6945 363.72 20.5555 365.903 27.3244C368.085 34.0934 378.254 29.0544 376.583 23.8712Z" fill="#121316"/>
<path d="M359.815 21.8006C359.9 19.5269 363.059 17.7773 367.528 18.5833C371.997 19.3892 376.197 22.4035 376.197 22.4035C376.197 22.4035 371.787 25.077 367.272 25.5685C362.757 26.0599 359.73 24.0679 359.815 21.8006Z" fill="#EBEBEB"/>
<path d="M376.197 22.3905C373.877 22.3905 371.564 22.325 369.251 22.2529C366.938 22.1808 364.618 22.0629 362.305 21.8794C364.625 21.8794 366.944 21.9384 369.258 22.0104C371.571 22.0825 373.89 22.2005 376.197 22.3905Z" fill="#121316"/>
<path d="M364.305 19.7759C365.621 20.4059 366.863 21.1818 368.007 22.089C367.348 21.7797 366.709 21.4296 366.094 21.0405C365.473 20.6542 364.876 20.2319 364.305 19.7759Z" fill="#121316"/>
<path d="M370.378 22.1741C369.193 23.1348 367.908 23.9652 366.545 24.651C367.736 23.6891 369.028 22.8587 370.398 22.1741H370.378Z" fill="#121316"/>
<path d="M371.054 20.8965C371.716 21.214 372.294 21.6805 372.745 22.2594C372.414 22.1034 372.104 21.9075 371.821 21.6763C371.536 21.4464 371.279 21.1848 371.054 20.8965Z" fill="#121316"/>
<path d="M364.075 35.2666C365.471 37.062 369.055 36.6296 372.207 33.3663C375.359 30.1031 377.03 25.1951 377.03 25.1951C377.03 25.1951 371.866 25.5882 367.928 27.8162C363.99 30.0441 362.673 33.4646 364.075 35.2666Z" fill="#EBEBEB"/>
<path d="M377.029 25.1951C375.142 26.5056 373.307 27.9603 371.466 29.3691C369.625 30.778 367.823 32.2327 366.06 33.7333C367.947 32.4227 369.782 30.9746 371.617 29.5657C373.452 28.1569 375.24 26.7022 377.029 25.1951Z" fill="#121316"/>
<path d="M368.891 34.2508C369.241 33.6143 369.554 32.9579 369.828 32.285C370.106 31.6102 370.343 30.9187 370.535 30.2144C370.184 30.8503 369.871 31.5068 369.598 32.1802C369.322 32.856 369.086 33.5474 368.891 34.2508Z" fill="#121316"/>
<path d="M372.443 28.7728C370.91 28.6909 369.372 28.7721 367.856 29.0153C368.62 29.0611 369.386 29.0611 370.149 29.0153C370.918 28.9778 371.684 28.8969 372.443 28.7728Z" fill="#121316"/>
<path d="M373.707 29.4215C373.882 29.0979 374.018 28.7548 374.113 28.3993C374.21 28.0464 374.267 27.6837 374.284 27.3181C373.935 27.9668 373.738 28.6859 373.707 29.4215Z" fill="#121316"/>
<path d="M376.584 23.8709C376.214 23.9911 375.817 23.9987 375.442 23.8929C375.068 23.787 374.733 23.5725 374.481 23.2763C374.229 22.9802 374.07 22.6158 374.025 22.2294C373.979 21.8429 374.05 21.4518 374.227 21.1054C374.405 20.7591 374.681 20.4731 375.021 20.2838C375.36 20.0945 375.749 20.0103 376.137 20.0419C376.525 20.0735 376.894 20.2195 377.199 20.4613C377.504 20.7032 377.73 21.0301 377.849 21.4006C378.008 21.8959 377.964 22.434 377.727 22.897C377.49 23.3601 377.079 23.7103 376.584 23.8709Z" fill="#455A64"/>
<path d="M377.79 27.6125C377.42 27.7322 377.023 27.7395 376.649 27.6336C376.275 27.5277 375.941 27.3132 375.688 27.0173C375.436 26.7215 375.277 26.3575 375.232 25.9714C375.187 25.5853 375.257 25.1945 375.434 24.8483C375.611 24.502 375.886 24.216 376.225 24.0263C376.565 23.8366 376.953 23.7518 377.34 23.7825C377.728 23.8133 378.097 23.9582 378.402 24.1991C378.708 24.4399 378.935 24.7658 379.054 25.1356C379.134 25.3813 379.165 25.6402 379.144 25.8977C379.124 26.1552 379.053 26.4061 378.935 26.6361C378.818 26.8661 378.656 27.0708 378.46 27.2383C378.263 27.4058 378.036 27.533 377.79 27.6125Z" fill="#455A64"/>
<path d="M162.958 25.9425C162.644 28.9523 161.5 31.8156 159.653 34.213C157.806 36.6103 155.33 38.4473 152.5 39.5191C149.67 40.5909 146.598 40.8552 143.626 40.2825C140.655 39.7099 137.901 38.3229 135.672 36.2762L127.501 37.4753L131.59 30.4115C130.655 28.1131 130.256 25.6317 130.423 23.156C130.591 20.6803 131.32 18.2753 132.556 16.1238C133.792 13.9722 135.503 12.1306 137.557 10.7389C139.611 9.34717 141.956 8.44194 144.412 8.09195C146.869 7.74197 149.373 7.95644 151.734 8.71906C154.095 9.48168 156.252 10.7724 158.04 12.4932C159.827 14.214 161.199 16.3195 162.052 18.65C162.904 20.9804 163.214 23.4744 162.958 25.9425Z" fill="white"/>
<path d="M162.958 25.9422C162.651 28.9505 161.517 31.8149 159.682 34.2183C158.785 35.4339 157.704 36.5018 156.477 37.3833C155.278 38.2979 153.954 39.037 152.546 39.5784C151.137 40.1333 149.657 40.4863 148.149 40.6269C147.395 40.6945 146.638 40.7099 145.882 40.6728C145.123 40.6533 144.367 40.5744 143.621 40.4369C140.609 39.8828 137.812 38.5009 135.541 36.4462L135.731 36.5052L127.573 37.7568L126.977 37.8485L127.278 37.3243L131.341 30.2474V30.5291C130.383 28.1883 129.975 25.6583 130.15 23.1348C130.325 20.6112 131.078 18.1617 132.35 15.9756C133.621 13.7963 135.369 11.9325 137.461 10.5237C139.551 9.1336 141.928 8.23461 144.414 7.89416C146.901 7.55371 149.432 7.78062 151.818 8.5579C154.179 9.36111 156.331 10.682 158.116 12.424C159.896 14.1616 161.258 16.282 162.097 18.6243C162.936 20.9666 163.23 23.4692 162.958 25.9422ZM162.958 25.9422C163.223 23.4814 162.919 20.9925 162.069 18.6679C161.219 16.3433 159.846 14.2451 158.056 12.5353C156.267 10.8255 154.108 9.54984 151.747 8.80681C149.386 8.06377 146.886 7.87323 144.44 8.24992C142.018 8.60837 139.711 9.51859 137.697 10.9103C135.701 12.313 134.033 14.133 132.809 16.2442C131.604 18.3602 130.894 20.7213 130.732 23.1508C130.572 25.5967 130.966 28.047 131.885 30.3195L131.944 30.4636L131.865 30.6012L127.75 37.6519L127.462 37.2195L135.64 36.0727H135.751L135.83 36.1448C138.016 38.1795 140.725 39.5657 143.654 40.1485C144.384 40.2972 145.124 40.3871 145.869 40.4172C146.612 40.4696 147.359 40.4696 148.103 40.4172C149.595 40.297 151.063 39.9729 152.467 39.4539C153.874 38.9417 155.199 38.2264 156.399 37.3309C157.62 36.4565 158.703 35.4027 159.61 34.2052C161.468 31.8134 162.627 28.9532 162.958 25.9422Z" fill="#121316"/>
<path d="M138.733 31.8593C138.72 31.6424 138.752 31.4252 138.827 31.2212C138.902 31.0172 139.018 30.8307 139.168 30.6734C139.318 30.5161 139.498 30.3913 139.699 30.3068C139.899 30.2222 140.114 30.1797 140.332 30.1818C140.776 30.1818 141.203 30.3586 141.518 30.6732C141.832 30.9878 142.009 31.4144 142.009 31.8593C142.009 32.3042 141.832 32.7309 141.518 33.0455C141.203 33.3601 140.776 33.5368 140.332 33.5368C140.114 33.539 139.899 33.4965 139.699 33.4119C139.498 33.3273 139.318 33.2025 139.168 33.0452C139.018 32.8879 138.902 32.7015 138.827 32.4975C138.752 32.2935 138.72 32.0763 138.733 31.8593ZM139.388 27.9867L139.008 14.9861H141.629L141.249 27.9867H139.388Z" fill="#F8E6F8"/>
<path d="M144.965 31.8593C144.952 31.6429 144.984 31.4263 145.058 31.2227C145.133 31.0192 145.248 30.833 145.398 30.6758C145.547 30.5186 145.727 30.3937 145.926 30.3087C146.125 30.2238 146.34 30.1806 146.557 30.1818C147.002 30.1818 147.428 30.3586 147.743 30.6732C148.058 30.9877 148.234 31.4144 148.234 31.8593C148.234 32.3042 148.058 32.7309 147.743 33.0455C147.428 33.3601 147.002 33.5368 146.557 33.5368C146.34 33.5381 146.125 33.4949 145.926 33.4099C145.727 33.325 145.547 33.2 145.398 33.0428C145.248 32.8856 145.133 32.6995 145.058 32.4959C144.984 32.2924 144.952 32.0757 144.965 31.8593ZM145.62 27.9867L145.259 14.9861H147.881L147.5 27.9867H145.62Z" fill="#F8E6F8"/>
<path d="M151.189 31.8593C151.177 31.6424 151.209 31.4252 151.284 31.2212C151.358 31.0172 151.474 30.8307 151.624 30.6734C151.774 30.5161 151.955 30.3913 152.155 30.3068C152.355 30.2222 152.571 30.1797 152.788 30.1818C153.233 30.1818 153.66 30.3586 153.974 30.6732C154.289 30.9878 154.466 31.4144 154.466 31.8593C154.466 32.3042 154.289 32.7309 153.974 33.0455C153.66 33.3601 153.233 33.5368 152.788 33.5368C152.571 33.539 152.355 33.4965 152.155 33.4119C151.955 33.3273 151.774 33.2025 151.624 33.0452C151.474 32.8879 151.358 32.7015 151.284 32.4975C151.209 32.2935 151.177 32.0763 151.189 31.8593ZM151.844 27.9867L151.464 14.9861H154.085L153.712 27.9867H151.844Z" fill="#F8E6F8"/>
</svg>
