<svg width="166" height="49" viewBox="0 0 166 49" fill="none" xmlns="http://www.w3.org/2000/svg">
<circle cx="14.9708" cy="19.0376" r="14.1176" fill="#B800B8"/>
<circle cx="22.0296" cy="30.8022" r="13.1176" fill="#520052" stroke="white" stroke-width="2"/>
<path d="M61.7252 23.4199V36.0918C61.7252 39.1335 60.8554 41.4512 59.1158 43.0449C57.3867 44.6387 55.0117 45.4355 51.9908 45.4355C50.7408 45.4355 49.7513 45.3418 49.0221 45.1543C48.2929 44.9772 47.7408 44.8053 47.3658 44.6387C47.1263 44.5241 46.97 44.4043 46.8971 44.2793C46.7929 44.1126 46.6731 43.8678 46.5377 43.5449C46.4127 43.222 46.2929 42.8678 46.1783 42.4824C46.1471 42.3366 46.1419 42.2272 46.1627 42.1543C46.2044 42.0501 46.2825 41.9408 46.3971 41.8262C46.5846 41.6387 46.8502 41.4199 47.194 41.1699C47.5481 40.9199 47.819 40.7585 48.0065 40.6855C48.2044 40.6126 48.3867 40.623 48.5533 40.7168C48.8242 40.8626 49.2096 41.0241 49.7096 41.2012C50.22 41.3887 50.9336 41.4824 51.8502 41.4824C53.3086 41.4824 54.4961 41.1074 55.4127 40.3574C56.3294 39.6074 56.7877 38.4512 56.7877 36.8887V36.3262H56.7252C56.4961 36.6178 56.1992 36.9147 55.8346 37.2168C55.47 37.5189 54.9961 37.7741 54.4127 37.9824C53.8398 38.1908 53.1002 38.2949 52.194 38.2949C50.6211 38.2949 49.3294 37.9564 48.319 37.2793C47.319 36.5918 46.5794 35.6491 46.1002 34.4512C45.6315 33.2533 45.3971 31.8887 45.3971 30.3574C45.3971 28.6803 45.6731 27.1751 46.2252 25.8418C46.7773 24.5085 47.7044 23.4564 49.0065 22.6855C50.3086 21.9043 52.0898 21.5137 54.3502 21.5137C55.7044 21.5137 56.8398 21.6126 57.7565 21.8105C58.6836 22.0085 59.4596 22.2533 60.0846 22.5449C60.7096 22.8366 61.2565 23.1283 61.7252 23.4199ZM54.1783 25.2949C52.97 25.2949 52.0481 25.7012 51.4127 26.5137C50.7773 27.3262 50.4596 28.5866 50.4596 30.2949C50.4596 32.972 51.5638 34.3105 53.7721 34.3105C54.6367 34.3105 55.2981 34.1335 55.7565 33.7793C56.2148 33.4251 56.5586 32.9772 56.7877 32.4355V25.9824C56.5586 25.8158 56.2356 25.6595 55.819 25.5137C55.4023 25.3678 54.8554 25.2949 54.1783 25.2949ZM73.7877 38.3105C72.0273 38.3105 70.4961 38.0293 69.194 37.4668C67.8919 36.8939 66.8815 36.0085 66.1627 34.8105C65.444 33.6126 65.0846 32.0658 65.0846 30.1699C65.0846 27.3262 65.8138 25.1751 67.2721 23.7168C68.7304 22.2585 70.6679 21.5293 73.0846 21.5293C74.6575 21.5293 75.9856 21.8105 77.069 22.373C78.1627 22.9355 78.9908 23.7116 79.5533 24.7012C80.1263 25.6908 80.4127 26.821 80.4127 28.0918C80.4127 29.3314 80.095 30.196 79.4596 30.6855C78.8242 31.1751 77.8971 31.4199 76.6783 31.4199H69.9752C70.0586 32.4928 70.4492 33.3105 71.1471 33.873C71.8554 34.4355 72.8138 34.7168 74.0221 34.7168C74.9804 34.7168 75.7461 34.5762 76.319 34.2949C76.9023 34.0033 77.3086 33.7741 77.5377 33.6074C77.7356 33.4616 77.9596 33.3939 78.2096 33.4043C78.4075 33.4043 78.6888 33.446 79.0533 33.5293C79.4283 33.6022 79.7981 33.7428 80.1627 33.9512C80.4231 34.0866 80.5533 34.2741 80.5533 34.5137C80.5533 34.6491 80.5273 34.8418 80.4752 35.0918C80.444 35.2376 80.3919 35.4512 80.319 35.7324C80.2461 36.0033 80.1523 36.2585 80.0377 36.498C79.9752 36.6126 79.8763 36.722 79.7408 36.8262C79.5325 36.972 79.194 37.1647 78.7252 37.4043C78.2669 37.6439 77.6367 37.8522 76.8346 38.0293C76.0325 38.2168 75.0169 38.3105 73.7877 38.3105ZM69.944 28.2168H75.0377C75.569 28.2168 75.8346 27.972 75.8346 27.4824C75.8346 26.7428 75.6002 26.123 75.1315 25.623C74.6731 25.1126 73.9804 24.8574 73.0533 24.8574C72.0429 24.8574 71.2981 25.1803 70.819 25.8262C70.3502 26.472 70.0586 27.2689 69.944 28.2168ZM99.319 27.9668V37.0918C99.319 37.4043 99.2513 37.623 99.1158 37.748C98.9908 37.8626 98.7721 37.9199 98.4596 37.9199H95.2408C94.9283 37.9199 94.7044 37.8626 94.569 37.748C94.444 37.623 94.3815 37.4043 94.3815 37.0918V28.7793C94.3815 27.6439 94.1419 26.8158 93.6627 26.2949C93.1836 25.7741 92.5325 25.5137 91.7096 25.5137C90.8867 25.5137 90.2513 25.6908 89.8033 26.0449C89.3658 26.3991 89.0273 26.847 88.7877 27.3887V37.0918C88.7877 37.4043 88.72 37.623 88.5846 37.748C88.4596 37.8626 88.2408 37.9199 87.9283 37.9199H84.7096C84.3971 37.9199 84.1731 37.8626 84.0377 37.748C83.9127 37.623 83.8502 37.4043 83.8502 37.0918V23.998C83.8502 23.748 83.9023 23.5553 84.0065 23.4199C84.2252 23.1283 84.4856 22.8314 84.7877 22.5293C85.1002 22.2272 85.4804 21.9043 85.9283 21.5605C86.0638 21.4564 86.194 21.4043 86.319 21.4043C86.4336 21.4043 86.5638 21.4564 86.7096 21.5605C87.1471 21.9043 87.5221 22.2324 87.8346 22.5449C88.1471 22.8574 88.4231 23.1803 88.6627 23.5137H88.7408C88.9179 23.2845 89.1836 23.0189 89.5377 22.7168C89.8919 22.4043 90.3867 22.1283 91.0221 21.8887C91.6679 21.6491 92.4908 21.5293 93.4908 21.5293C94.47 21.5293 95.4023 21.7272 96.2877 22.123C97.1731 22.5189 97.8971 23.1855 98.4596 24.123C99.0325 25.0605 99.319 26.3418 99.319 27.9668ZM104.006 37.9199C103.486 37.9199 103.043 37.7793 102.678 37.498C102.314 37.2064 102.116 36.8158 102.085 36.3262C102.064 35.8262 102.298 35.2637 102.788 34.6387L109.866 25.5605H103.881C103.694 25.5605 103.548 25.5241 103.444 25.4512C103.017 25.1074 102.569 24.6335 102.1 24.0293C102.017 23.8939 101.975 23.7949 101.975 23.7324C101.975 23.6595 102.017 23.5658 102.1 23.4512C102.569 22.847 103.017 22.373 103.444 22.0293C103.569 21.9564 103.715 21.9199 103.881 21.9199H114.053C115.095 21.9199 115.756 22.2585 116.038 22.9355C116.319 23.6022 116.137 24.3522 115.491 25.1855L108.522 34.2793H114.944C115.131 34.2793 115.277 34.3158 115.381 34.3887C115.809 34.7324 116.256 35.2064 116.725 35.8105C116.809 35.946 116.85 36.0449 116.85 36.1074C116.85 36.1803 116.809 36.2741 116.725 36.3887C116.256 36.9928 115.809 37.4668 115.381 37.8105C115.256 37.8835 115.111 37.9199 114.944 37.9199H104.006ZM118.881 35.0918C118.881 34.946 118.928 34.821 119.022 34.7168C119.116 34.6022 119.236 34.4512 119.381 34.2637C119.704 33.8991 120.074 33.5189 120.491 33.123C120.918 32.7168 121.345 32.3262 121.772 31.9512C122.043 31.7324 122.246 31.623 122.381 31.623C122.506 31.623 122.715 31.7324 123.006 31.9512C123.913 32.722 124.699 33.4928 125.366 34.2637C125.512 34.4408 125.631 34.5866 125.725 34.7012C125.819 34.8158 125.866 34.946 125.866 35.0918C125.866 35.2376 125.814 35.3678 125.71 35.4824C125.616 35.597 125.496 35.7533 125.35 35.9512C125.038 36.3053 124.673 36.6803 124.256 37.0762C123.85 37.472 123.434 37.8574 123.006 38.2324C122.736 38.4512 122.527 38.5605 122.381 38.5605C122.256 38.5605 122.043 38.4512 121.741 38.2324C121.283 37.8574 120.855 37.472 120.46 37.0762C120.064 36.6699 119.704 36.2793 119.381 35.9043C119.236 35.7272 119.116 35.5866 119.022 35.4824C118.928 35.3678 118.881 35.2376 118.881 35.0918ZM133.147 38.3105C131.616 38.3105 130.397 37.8835 129.491 37.0293C128.595 36.1647 128.147 34.9772 128.147 33.4668C128.147 32.6855 128.288 31.9616 128.569 31.2949C128.861 30.6178 129.361 30.0241 130.069 29.5137C130.788 28.9928 131.788 28.5762 133.069 28.2637C134.361 27.9512 136.006 27.7689 138.006 27.7168C138.006 26.7689 137.767 26.0866 137.288 25.6699C136.819 25.2533 136.111 25.0449 135.163 25.0449C134.309 25.0449 133.611 25.1908 133.069 25.4824C132.527 25.7741 132.189 25.972 132.053 26.0762C131.908 26.2012 131.73 26.248 131.522 26.2168C131.241 26.1751 130.939 26.1022 130.616 25.998C130.303 25.8939 129.965 25.7741 129.6 25.6387C129.548 25.6178 129.491 25.5866 129.428 25.5449C129.366 25.4928 129.329 25.4199 129.319 25.3262C129.319 25.2741 129.324 25.2116 129.335 25.1387C129.345 25.0553 129.371 24.9095 129.413 24.7012C129.454 24.4928 129.517 24.2376 129.6 23.9355C129.684 23.623 129.762 23.3835 129.835 23.2168C129.928 23.0397 130.085 22.873 130.303 22.7168C130.48 22.571 131.017 22.3366 131.913 22.0137C132.809 21.6908 134.105 21.5293 135.803 21.5293C140.48 21.5293 142.819 23.8053 142.819 28.3574V37.2012C142.819 37.3991 142.762 37.571 142.647 37.7168C142.543 37.8522 142.361 37.9199 142.1 37.9199H139.756C139.59 37.9199 139.439 37.8991 139.303 37.8574C139.178 37.8053 139.059 37.7116 138.944 37.5762L137.975 36.3262H137.866C137.387 37.0241 136.741 37.5293 135.928 37.8418C135.126 38.1543 134.199 38.3105 133.147 38.3105ZM134.866 34.6855C135.824 34.6855 136.548 34.4408 137.038 33.9512C137.527 33.4616 137.84 32.9564 137.975 32.4355V30.7012C136.527 30.7012 135.439 30.8158 134.71 31.0449C133.991 31.2637 133.512 31.5553 133.272 31.9199C133.033 32.2741 132.913 32.6595 132.913 33.0762C132.913 33.6803 133.1 34.1022 133.475 34.3418C133.85 34.571 134.314 34.6855 134.866 34.6855ZM152.694 38.3105C151.309 38.3105 150.126 37.972 149.147 37.2949C148.178 36.6074 147.439 35.6647 146.928 34.4668C146.428 33.2585 146.178 31.8678 146.178 30.2949C146.178 28.222 146.543 26.5449 147.272 25.2637C148.012 23.972 149.048 23.0241 150.381 22.4199C151.725 21.8158 153.309 21.5137 155.131 21.5137C155.756 21.5137 156.272 21.5449 156.678 21.6074C157.095 21.6699 157.392 21.7272 157.569 21.7793V15.9512C157.569 15.7012 157.621 15.5085 157.725 15.373C158.163 14.8001 158.803 14.1803 159.647 13.5137C159.793 13.4095 159.923 13.3574 160.038 13.3574C160.173 13.3574 160.303 13.4095 160.428 13.5137C160.876 13.8574 161.251 14.1803 161.553 14.4824C161.866 14.7845 162.131 15.0814 162.35 15.373C162.454 15.5085 162.506 15.7012 162.506 15.9512V37.2012C162.506 37.3991 162.439 37.571 162.303 37.7168C162.168 37.8522 161.996 37.9199 161.788 37.9199H159.46C159.293 37.9199 159.142 37.8991 159.006 37.8574C158.881 37.8053 158.762 37.7116 158.647 37.5762L157.678 36.3262H157.569C157.434 36.5345 157.189 36.8001 156.835 37.123C156.491 37.4355 155.986 37.7116 155.319 37.9512C154.663 38.1908 153.788 38.3105 152.694 38.3105ZM154.21 34.3105C155.147 34.3105 155.881 34.1335 156.413 33.7793C156.954 33.4251 157.34 32.9772 157.569 32.4355V25.8887C157.402 25.7845 157.126 25.6595 156.741 25.5137C156.355 25.3678 155.814 25.2949 155.116 25.2949C153.824 25.2949 152.855 25.7168 152.21 26.5605C151.564 27.4043 151.241 28.5397 151.241 29.9668C151.241 31.446 151.512 32.5397 152.053 33.248C152.595 33.9564 153.314 34.3105 154.21 34.3105Z" fill="#001311"/>
</svg>
