<svg width="184" height="48" viewBox="0 0 184 48" fill="none" xmlns="http://www.w3.org/2000/svg">
<circle cx="14.1176" cy="18.1176" r="14.1176" fill="#B800B8"/>
<circle cx="21.1762" cy="29.8833" r="13.1176" fill="#520052" stroke="white" stroke-width="2"/>
<path d="M57.8564 15.8281C58.4294 16.6302 59.0127 17.6667 59.6064 18.9375C60.2106 20.1979 60.7939 21.5833 61.3564 23.0938C61.9189 24.6042 62.4242 26.151 62.8721 27.7344C63.3304 29.3073 63.7054 30.8229 63.9971 32.2812C64.2887 33.7396 64.4554 35.0365 64.4971 36.1719C64.5075 36.724 64.2575 37 63.7471 37H59.9658C59.4762 37 59.221 36.7552 59.2002 36.2656C59.1585 35.099 58.971 33.6823 58.6377 32.0156H50.1064C49.8148 33.6406 49.6481 35.0573 49.6064 36.2656C49.5856 36.7552 49.32 37 48.8096 37H45.1064C44.9189 37 44.7627 36.9479 44.6377 36.8438C44.5127 36.7292 44.4554 36.5365 44.4658 36.2656C44.5179 35.1094 44.6846 33.7969 44.9658 32.3281C45.2575 30.849 45.6325 29.3177 46.0908 27.7344C46.5492 26.151 47.0596 24.6042 47.6221 23.0938C48.1846 21.5729 48.7679 20.1823 49.3721 18.9219C49.9762 17.6615 50.5648 16.6302 51.1377 15.8281C51.4398 15.401 51.7575 15.0885 52.0908 14.8906C52.4346 14.6927 52.8564 14.5938 53.3564 14.5938H55.6064C56.1169 14.5938 56.5439 14.6927 56.8877 14.8906C57.2314 15.0885 57.5544 15.401 57.8564 15.8281ZM54.3252 19.5312C53.6377 20.625 53.0075 21.9323 52.4346 23.4531C51.8617 24.974 51.3669 26.5365 50.9502 28.1406H57.7314C57.2939 26.5365 56.7887 24.974 56.2158 23.4531C55.6429 21.9323 55.0439 20.625 54.4189 19.5312H54.3252ZM73.4346 37.3906C72.0492 37.3906 70.8669 37.0521 69.8877 36.375C68.9189 35.6875 68.1794 34.7448 67.6689 33.5469C67.1689 32.3385 66.9189 30.9479 66.9189 29.375C66.9189 27.3021 67.2835 25.625 68.0127 24.3438C68.7523 23.0521 69.7887 22.1042 71.1221 21.5C72.4658 20.8958 74.0492 20.5938 75.8721 20.5938C76.4971 20.5938 77.0127 20.625 77.4189 20.6875C77.8356 20.75 78.1325 20.8073 78.3096 20.8594V15.0312C78.3096 14.7812 78.3617 14.5885 78.4658 14.4531C78.9033 13.8802 79.5439 13.2604 80.3877 12.5938C80.5335 12.4896 80.6637 12.4375 80.7783 12.4375C80.9137 12.4375 81.0439 12.4896 81.1689 12.5938C81.6169 12.9375 81.9919 13.2604 82.2939 13.5625C82.6064 13.8646 82.8721 14.1615 83.0908 14.4531C83.195 14.5885 83.2471 14.7812 83.2471 15.0312V36.2812C83.2471 36.4792 83.1794 36.651 83.0439 36.7969C82.9085 36.9323 82.7367 37 82.5283 37H80.2002C80.0335 37 79.8825 36.9792 79.7471 36.9375C79.6221 36.8854 79.5023 36.7917 79.3877 36.6562L78.4189 35.4062H78.3096C78.1742 35.6146 77.9294 35.8802 77.5752 36.2031C77.2314 36.5156 76.7262 36.7917 76.0596 37.0312C75.4033 37.2708 74.5283 37.3906 73.4346 37.3906ZM74.9502 33.3906C75.8877 33.3906 76.6221 33.2135 77.1533 32.8594C77.695 32.5052 78.0804 32.0573 78.3096 31.5156V24.9688C78.1429 24.8646 77.8669 24.7396 77.4814 24.5938C77.096 24.4479 76.5544 24.375 75.8564 24.375C74.5648 24.375 73.596 24.7969 72.9502 25.6406C72.3044 26.4844 71.9814 27.6198 71.9814 29.0469C71.9814 30.526 72.2523 31.6198 72.7939 32.3281C73.3356 33.0365 74.0544 33.3906 74.9502 33.3906ZM102.935 22.5V35.1719C102.935 38.2135 102.065 40.5312 100.325 42.125C98.596 43.7188 96.221 44.5156 93.2002 44.5156C91.9502 44.5156 90.9606 44.4219 90.2314 44.2344C89.5023 44.0573 88.9502 43.8854 88.5752 43.7188C88.3356 43.6042 88.1794 43.4844 88.1064 43.3594C88.0023 43.1927 87.8825 42.9479 87.7471 42.625C87.6221 42.3021 87.5023 41.9479 87.3877 41.5625C87.3564 41.4167 87.3512 41.3073 87.3721 41.2344C87.4137 41.1302 87.4919 41.0208 87.6064 40.9062C87.7939 40.7188 88.0596 40.5 88.4033 40.25C88.7575 40 89.0283 39.8385 89.2158 39.7656C89.4137 39.6927 89.596 39.7031 89.7627 39.7969C90.0335 39.9427 90.4189 40.1042 90.9189 40.2812C91.4294 40.4688 92.1429 40.5625 93.0596 40.5625C94.5179 40.5625 95.7054 40.1875 96.6221 39.4375C97.5387 38.6875 97.9971 37.5312 97.9971 35.9688V35.4062H97.9346C97.7054 35.6979 97.4085 35.9948 97.0439 36.2969C96.6794 36.599 96.2054 36.8542 95.6221 37.0625C95.0492 37.2708 94.3096 37.375 93.4033 37.375C91.8304 37.375 90.5387 37.0365 89.5283 36.3594C88.5283 35.6719 87.7887 34.7292 87.3096 33.5312C86.8408 32.3333 86.6064 30.9688 86.6064 29.4375C86.6064 27.7604 86.8825 26.2552 87.4346 24.9219C87.9867 23.5885 88.9137 22.5365 90.2158 21.7656C91.5179 20.9844 93.2992 20.5938 95.5596 20.5938C96.9137 20.5938 98.0492 20.6927 98.9658 20.8906C99.8929 21.0885 100.669 21.3333 101.294 21.625C101.919 21.9167 102.466 22.2083 102.935 22.5ZM95.3877 24.375C94.1794 24.375 93.2575 24.7812 92.6221 25.5938C91.9867 26.4062 91.6689 27.6667 91.6689 29.375C91.6689 32.0521 92.7731 33.3906 94.9814 33.3906C95.846 33.3906 96.5075 33.2135 96.9658 32.8594C97.4242 32.5052 97.7679 32.0573 97.9971 31.5156V25.0625C97.7679 24.8958 97.445 24.7396 97.0283 24.5938C96.6117 24.4479 96.0648 24.375 95.3877 24.375ZM114.997 37.3906C113.237 37.3906 111.705 37.1094 110.403 36.5469C109.101 35.974 108.091 35.0885 107.372 33.8906C106.653 32.6927 106.294 31.1458 106.294 29.25C106.294 26.4062 107.023 24.2552 108.481 22.7969C109.94 21.3385 111.877 20.6094 114.294 20.6094C115.867 20.6094 117.195 20.8906 118.278 21.4531C119.372 22.0156 120.2 22.7917 120.763 23.7812C121.336 24.7708 121.622 25.901 121.622 27.1719C121.622 28.4115 121.304 29.276 120.669 29.7656C120.034 30.2552 119.106 30.5 117.888 30.5H111.185C111.268 31.5729 111.659 32.3906 112.356 32.9531C113.065 33.5156 114.023 33.7969 115.231 33.7969C116.19 33.7969 116.955 33.6562 117.528 33.375C118.112 33.0833 118.518 32.8542 118.747 32.6875C118.945 32.5417 119.169 32.474 119.419 32.4844C119.617 32.4844 119.898 32.526 120.263 32.6094C120.638 32.6823 121.007 32.8229 121.372 33.0312C121.632 33.1667 121.763 33.3542 121.763 33.5938C121.763 33.7292 121.737 33.9219 121.685 34.1719C121.653 34.3177 121.601 34.5312 121.528 34.8125C121.455 35.0833 121.362 35.3385 121.247 35.5781C121.185 35.6927 121.086 35.8021 120.95 35.9062C120.742 36.0521 120.403 36.2448 119.935 36.4844C119.476 36.724 118.846 36.9323 118.044 37.1094C117.242 37.2969 116.226 37.3906 114.997 37.3906ZM111.153 27.2969H116.247C116.778 27.2969 117.044 27.0521 117.044 26.5625C117.044 25.8229 116.81 25.2031 116.341 24.7031C115.882 24.1927 115.19 23.9375 114.263 23.9375C113.252 23.9375 112.507 24.2604 112.028 24.9062C111.56 25.5521 111.268 26.349 111.153 27.2969ZM140.528 27.0469V36.1719C140.528 36.4844 140.461 36.7031 140.325 36.8281C140.2 36.9427 139.981 37 139.669 37H136.45C136.138 37 135.914 36.9427 135.778 36.8281C135.653 36.7031 135.591 36.4844 135.591 36.1719V27.8594C135.591 26.724 135.351 25.8958 134.872 25.375C134.393 24.8542 133.742 24.5938 132.919 24.5938C132.096 24.5938 131.461 24.7708 131.013 25.125C130.575 25.4792 130.237 25.9271 129.997 26.4688V36.1719C129.997 36.4844 129.929 36.7031 129.794 36.8281C129.669 36.9427 129.45 37 129.138 37H125.919C125.606 37 125.382 36.9427 125.247 36.8281C125.122 36.7031 125.06 36.4844 125.06 36.1719V23.0781C125.06 22.8281 125.112 22.6354 125.216 22.5C125.435 22.2083 125.695 21.9115 125.997 21.6094C126.31 21.3073 126.69 20.9844 127.138 20.6406C127.273 20.5365 127.403 20.4844 127.528 20.4844C127.643 20.4844 127.773 20.5365 127.919 20.6406C128.356 20.9844 128.731 21.3125 129.044 21.625C129.356 21.9375 129.632 22.2604 129.872 22.5938H129.95C130.127 22.3646 130.393 22.099 130.747 21.7969C131.101 21.4844 131.596 21.2083 132.231 20.9688C132.877 20.7292 133.7 20.6094 134.7 20.6094C135.679 20.6094 136.612 20.8073 137.497 21.2031C138.382 21.599 139.106 22.2656 139.669 23.2031C140.242 24.1406 140.528 25.4219 140.528 27.0469ZM145.388 30.3438C145.065 30.3438 144.903 30.1823 144.903 29.8594V27.0625C144.903 26.7396 145.065 26.5781 145.388 26.5781H152.966C153.289 26.5781 153.45 26.7396 153.45 27.0625V29.8594C153.45 30.1823 153.289 30.3438 152.966 30.3438H145.388ZM161.981 37.3906C160.45 37.3906 159.231 36.9635 158.325 36.1094C157.429 35.2448 156.981 34.0573 156.981 32.5469C156.981 31.7656 157.122 31.0417 157.403 30.375C157.695 29.6979 158.195 29.1042 158.903 28.5938C159.622 28.0729 160.622 27.6562 161.903 27.3438C163.195 27.0312 164.841 26.849 166.841 26.7969C166.841 25.849 166.601 25.1667 166.122 24.75C165.653 24.3333 164.945 24.125 163.997 24.125C163.143 24.125 162.445 24.2708 161.903 24.5625C161.362 24.8542 161.023 25.0521 160.888 25.1562C160.742 25.2812 160.565 25.3281 160.356 25.2969C160.075 25.2552 159.773 25.1823 159.45 25.0781C159.138 24.974 158.799 24.8542 158.435 24.7188C158.382 24.6979 158.325 24.6667 158.263 24.625C158.2 24.5729 158.164 24.5 158.153 24.4062C158.153 24.3542 158.159 24.2917 158.169 24.2188C158.179 24.1354 158.205 23.9896 158.247 23.7812C158.289 23.5729 158.351 23.3177 158.435 23.0156C158.518 22.7031 158.596 22.4635 158.669 22.2969C158.763 22.1198 158.919 21.9531 159.138 21.7969C159.315 21.651 159.851 21.4167 160.747 21.0938C161.643 20.7708 162.94 20.6094 164.638 20.6094C169.315 20.6094 171.653 22.8854 171.653 27.4375V36.2812C171.653 36.4792 171.596 36.651 171.481 36.7969C171.377 36.9323 171.195 37 170.935 37H168.591C168.424 37 168.273 36.9792 168.138 36.9375C168.013 36.8854 167.893 36.7917 167.778 36.6562L166.81 35.4062H166.7C166.221 36.1042 165.575 36.6094 164.763 36.9219C163.961 37.2344 163.034 37.3906 161.981 37.3906ZM163.7 33.7656C164.659 33.7656 165.382 33.5208 165.872 33.0312C166.362 32.5417 166.674 32.0365 166.81 31.5156V29.7812C165.362 29.7812 164.273 29.8958 163.544 30.125C162.825 30.3438 162.346 30.6354 162.106 31C161.867 31.3542 161.747 31.7396 161.747 32.1562C161.747 32.7604 161.935 33.1823 162.31 33.4219C162.685 33.651 163.148 33.7656 163.7 33.7656ZM175.153 15.75C175.153 15.6146 175.195 15.4948 175.278 15.3906C175.362 15.2865 175.471 15.151 175.606 14.9844C175.898 14.651 176.237 14.3021 176.622 13.9375C177.007 13.5625 177.398 13.2031 177.794 12.8594C178.044 12.6615 178.231 12.5625 178.356 12.5625C178.481 12.5625 178.674 12.6615 178.935 12.8594C179.778 13.5885 180.497 14.2969 181.091 14.9844C181.226 15.1406 181.336 15.276 181.419 15.3906C181.513 15.4948 181.56 15.6146 181.56 15.75C181.56 15.8854 181.513 16.0052 181.419 16.1094C181.336 16.2135 181.221 16.3542 181.075 16.5312C180.794 16.8542 180.466 17.2031 180.091 17.5781C179.716 17.9427 179.33 18.2917 178.935 18.625C178.789 18.75 178.674 18.8333 178.591 18.875C178.507 18.9062 178.429 18.9219 178.356 18.9219C178.284 18.9219 178.205 18.9062 178.122 18.875C178.049 18.8333 177.929 18.75 177.763 18.625C177.346 18.2917 176.955 17.9427 176.591 17.5781C176.226 17.2031 175.898 16.8438 175.606 16.5C175.471 16.3333 175.362 16.2031 175.278 16.1094C175.195 16.0052 175.153 15.8854 175.153 15.75ZM180.81 36.1719C180.81 36.4844 180.742 36.7031 180.606 36.8281C180.481 36.9427 180.263 37 179.95 37H176.731C176.419 37 176.195 36.9427 176.06 36.8281C175.935 36.7031 175.872 36.4844 175.872 36.1719V21.8281C175.872 21.5156 175.935 21.3021 176.06 21.1875C176.195 21.0625 176.419 21 176.731 21H179.95C180.263 21 180.481 21.0625 180.606 21.1875C180.742 21.3021 180.81 21.5156 180.81 21.8281V36.1719Z" fill="#001311"/>
</svg>
