<svg width="48" height="48" viewBox="0 0 48 48" fill="none" xmlns="http://www.w3.org/2000/svg">
<rect width="48" height="48" rx="24" fill="#E9EEF4"/>
<path d="M32.1667 13.5H15.8333C14.5447 13.5 13.5 14.5447 13.5 15.8333V32.1667C13.5 33.4553 14.5447 34.5 15.8333 34.5H32.1667C33.4553 34.5 34.5 33.4553 34.5 32.1667V15.8333C34.5 14.5447 33.4553 13.5 32.1667 13.5Z" fill="#667185" stroke="#667185" stroke-width="1.5" stroke-linecap="round" stroke-linejoin="round"/>
<path d="M20.4998 22.8334C21.7885 22.8334 22.8332 21.7887 22.8332 20.5001C22.8332 19.2114 21.7885 18.1667 20.4998 18.1667C19.2112 18.1667 18.1665 19.2114 18.1665 20.5001C18.1665 21.7887 19.2112 22.8334 20.4998 22.8334Z" stroke="#E9EEF4" stroke-width="1.5" stroke-linecap="round" stroke-linejoin="round"/>
<path d="M34.5 27.5001L30.8997 23.8997C30.4621 23.4623 29.8687 23.2166 29.25 23.2166C28.6313 23.2166 28.0379 23.4623 27.6003 23.8997L17 34.5001" stroke="#E9EEF4" stroke-width="1.5" stroke-linecap="round" stroke-linejoin="round"/>
</svg>
