<svg width="124" height="32" viewBox="0 0 124 32" fill="none" xmlns="http://www.w3.org/2000/svg">
<circle cx="9.98012" cy="12.078" r="9.41177" fill="#B800B8"/>
<circle cx="14.6862" cy="19.9218" r="8.7451" fill="#520052" stroke="black" stroke-width="1.33333"/>
<path d="M39.14 9.88542C39.5219 10.4201 39.9108 11.1111 40.3066 11.9583C40.7094 12.7986 41.0983 13.7222 41.4733 14.7292C41.8483 15.7361 42.1851 16.7674 42.4837 17.8229C42.7893 18.8715 43.0393 19.8819 43.2337 20.8542C43.4282 21.8264 43.5393 22.691 43.5671 23.4479C43.574 23.816 43.4073 24 43.0671 24H40.5462C40.2198 24 40.0497 23.8368 40.0358 23.5104C40.008 22.7326 39.883 21.7882 39.6608 20.6771H33.9733C33.7789 21.7604 33.6678 22.7049 33.64 23.5104C33.6261 23.8368 33.449 24 33.1087 24H30.64C30.515 24 30.4108 23.9653 30.3275 23.8958C30.2441 23.8194 30.2059 23.691 30.2129 23.5104C30.2476 22.7396 30.3587 21.8646 30.5462 20.8854C30.7407 19.8993 30.9907 18.8785 31.2962 17.8229C31.6018 16.7674 31.9421 15.7361 32.3171 14.7292C32.6921 13.7153 33.0809 12.7882 33.4837 11.9479C33.8865 11.1076 34.2789 10.4201 34.6608 9.88542C34.8622 9.60069 35.074 9.39236 35.2962 9.26042C35.5254 9.12847 35.8066 9.0625 36.14 9.0625H37.64C37.9803 9.0625 38.265 9.12847 38.4941 9.26042C38.7233 9.39236 38.9386 9.60069 39.14 9.88542ZM36.7858 12.3542C36.3275 13.0833 35.9073 13.9549 35.5254 14.9687C35.1434 15.9826 34.8136 17.0243 34.5358 18.0937H39.0566C38.765 17.0243 38.4282 15.9826 38.0462 14.9687C37.6643 13.9549 37.265 13.0833 36.8483 12.3542H36.7858ZM49.5254 24.2604C48.6018 24.2604 47.8136 24.0347 47.1608 23.5833C46.515 23.125 46.0219 22.4965 45.6816 21.6979C45.3483 20.8924 45.1816 19.9653 45.1816 18.9167C45.1816 17.5347 45.4247 16.4167 45.9108 15.5625C46.4039 14.7014 47.0948 14.0694 47.9837 13.6667C48.8796 13.2639 49.9351 13.0625 51.1504 13.0625C51.5671 13.0625 51.9108 13.0833 52.1816 13.125C52.4594 13.1667 52.6573 13.2049 52.7754 13.2396V9.35417C52.7754 9.1875 52.8101 9.05903 52.8796 8.96875C53.1712 8.58681 53.5983 8.17361 54.1608 7.72917C54.258 7.65972 54.3448 7.625 54.4212 7.625C54.5115 7.625 54.5983 7.65972 54.6816 7.72917C54.9803 7.95833 55.2303 8.17361 55.4316 8.375C55.64 8.57639 55.8171 8.77431 55.9629 8.96875C56.0323 9.05903 56.0671 9.1875 56.0671 9.35417V23.5208C56.0671 23.6528 56.0219 23.7674 55.9316 23.8646C55.8414 23.9549 55.7268 24 55.5879 24H54.0358C53.9247 24 53.824 23.9861 53.7337 23.9583C53.6504 23.9236 53.5705 23.8611 53.4941 23.7708L52.8483 22.9375H52.7754C52.6851 23.0764 52.5219 23.2535 52.2858 23.4687C52.0566 23.6771 51.7198 23.8611 51.2754 24.0208C50.8379 24.1806 50.2546 24.2604 49.5254 24.2604ZM50.5358 21.5937C51.1608 21.5937 51.6504 21.4757 52.0046 21.2396C52.3657 21.0035 52.6226 20.7049 52.7754 20.3437V15.9792C52.6643 15.9097 52.4803 15.8264 52.2233 15.7292C51.9664 15.6319 51.6053 15.5833 51.14 15.5833C50.2789 15.5833 49.633 15.8646 49.2025 16.4271C48.7719 16.9896 48.5566 17.7465 48.5566 18.6979C48.5566 19.684 48.7372 20.4132 49.0983 20.8854C49.4594 21.3576 49.9386 21.5937 50.5358 21.5937ZM69.1921 14.3333V22.7812C69.1921 24.809 68.6122 26.3542 67.4525 27.4167C66.2997 28.4792 64.7164 29.0104 62.7025 29.0104C61.8691 29.0104 61.2094 28.9479 60.7233 28.8229C60.2372 28.7049 59.8691 28.5903 59.6191 28.4792C59.4594 28.4028 59.3553 28.3229 59.3066 28.2396C59.2372 28.1285 59.1573 27.9653 59.0671 27.75C58.9837 27.5347 58.9039 27.2986 58.8275 27.0417C58.8066 26.9444 58.8032 26.8715 58.8171 26.8229C58.8448 26.7535 58.8969 26.6806 58.9733 26.6042C59.0983 26.4792 59.2754 26.3333 59.5046 26.1667C59.7407 26 59.9212 25.8924 60.0462 25.8438C60.1782 25.7951 60.2997 25.8021 60.4108 25.8646C60.5914 25.9618 60.8483 26.0694 61.1816 26.1875C61.5219 26.3125 61.9976 26.375 62.6087 26.375C63.5809 26.375 64.3726 26.125 64.9837 25.625C65.5948 25.125 65.9004 24.3542 65.9004 23.3125V22.9375H65.8587C65.7059 23.1319 65.508 23.3299 65.265 23.5312C65.0219 23.7326 64.7059 23.9028 64.3171 24.0417C63.9351 24.1806 63.4421 24.25 62.8379 24.25C61.7893 24.25 60.9282 24.0243 60.2546 23.5729C59.5879 23.1146 59.0948 22.4861 58.7754 21.6875C58.4629 20.8889 58.3066 19.9792 58.3066 18.9583C58.3066 17.8403 58.4907 16.8368 58.8587 15.9479C59.2268 15.059 59.8448 14.3576 60.7129 13.8437C61.5809 13.3229 62.7684 13.0625 64.2754 13.0625C65.1782 13.0625 65.9351 13.1285 66.5462 13.2604C67.1643 13.3924 67.6816 13.5556 68.0983 13.75C68.515 13.9444 68.8796 14.1389 69.1921 14.3333ZM64.1608 15.5833C63.3553 15.5833 62.7407 15.8542 62.3171 16.3958C61.8934 16.9375 61.6816 17.7778 61.6816 18.9167C61.6816 20.7014 62.4178 21.5937 63.89 21.5937C64.4664 21.5937 64.9073 21.4757 65.2129 21.2396C65.5184 21.0035 65.7476 20.7049 65.9004 20.3437V16.0417C65.7476 15.9306 65.5323 15.8264 65.2546 15.7292C64.9768 15.6319 64.6122 15.5833 64.1608 15.5833ZM77.2337 24.2604C76.0601 24.2604 75.0393 24.0729 74.1712 23.6979C73.3032 23.316 72.6296 22.7257 72.1504 21.9271C71.6712 21.1285 71.4316 20.0972 71.4316 18.8333C71.4316 16.9375 71.9178 15.5035 72.89 14.5312C73.8622 13.559 75.1539 13.0729 76.765 13.0729C77.8136 13.0729 78.699 13.2604 79.4212 13.6354C80.1504 14.0104 80.7025 14.5278 81.0775 15.1875C81.4594 15.8472 81.6504 16.6007 81.6504 17.4479C81.6504 18.2743 81.4386 18.8507 81.015 19.1771C80.5914 19.5035 79.9733 19.6667 79.1608 19.6667H74.6921C74.7476 20.3819 75.008 20.9271 75.4733 21.3021C75.9455 21.6771 76.5844 21.8646 77.39 21.8646C78.0289 21.8646 78.5393 21.7708 78.9212 21.5833C79.3101 21.3889 79.5809 21.2361 79.7337 21.125C79.8657 21.0278 80.015 20.9826 80.1816 20.9896C80.3136 20.9896 80.5011 21.0174 80.7441 21.0729C80.9941 21.1215 81.2407 21.2153 81.4837 21.3542C81.6573 21.4444 81.7441 21.5694 81.7441 21.7292C81.7441 21.8194 81.7268 21.9479 81.6921 22.1146C81.6712 22.2118 81.6365 22.3542 81.5879 22.5417C81.5393 22.7222 81.4768 22.8924 81.4004 23.0521C81.3587 23.1285 81.2928 23.2014 81.2025 23.2708C81.0636 23.3681 80.8379 23.4965 80.5254 23.6562C80.2198 23.816 79.7997 23.9549 79.265 24.0729C78.7303 24.1979 78.0532 24.2604 77.2337 24.2604ZM74.6712 17.5312H78.0671C78.4212 17.5312 78.5983 17.3681 78.5983 17.0417C78.5983 16.5486 78.4421 16.1354 78.1296 15.8021C77.824 15.4618 77.3622 15.2917 76.7441 15.2917C76.0705 15.2917 75.574 15.5069 75.2546 15.9375C74.9421 16.3681 74.7476 16.8993 74.6712 17.5312ZM94.2546 17.3646V23.4479C94.2546 23.6562 94.2094 23.8021 94.1191 23.8854C94.0358 23.9618 93.89 24 93.6816 24H91.5358C91.3275 24 91.1782 23.9618 91.0879 23.8854C91.0046 23.8021 90.9629 23.6562 90.9629 23.4479V17.9062C90.9629 17.1493 90.8032 16.5972 90.4837 16.25C90.1643 15.9028 89.7303 15.7292 89.1816 15.7292C88.633 15.7292 88.2094 15.8472 87.9108 16.0833C87.6191 16.3194 87.3934 16.6181 87.2337 16.9792V23.4479C87.2337 23.6562 87.1886 23.8021 87.0983 23.8854C87.015 23.9618 86.8691 24 86.6608 24H84.515C84.3066 24 84.1573 23.9618 84.0671 23.8854C83.9837 23.8021 83.9421 23.6562 83.9421 23.4479V14.7187C83.9421 14.5521 83.9768 14.4236 84.0462 14.3333C84.1921 14.1389 84.3657 13.941 84.5671 13.7396C84.7754 13.5382 85.0289 13.3229 85.3275 13.0937C85.4178 13.0243 85.5046 12.9896 85.5879 12.9896C85.6643 12.9896 85.7511 13.0243 85.8483 13.0937C86.14 13.3229 86.39 13.5417 86.5983 13.75C86.8066 13.9583 86.9907 14.1736 87.1504 14.3958H87.2025C87.3205 14.2431 87.4976 14.066 87.7337 13.8646C87.9698 13.6562 88.2997 13.4722 88.7233 13.3125C89.1539 13.1528 89.7025 13.0729 90.3691 13.0729C91.0219 13.0729 91.6434 13.2049 92.2337 13.4687C92.824 13.7326 93.3066 14.1771 93.6816 14.8021C94.0636 15.4271 94.2546 16.2812 94.2546 17.3646ZM97.4941 19.5625C97.2789 19.5625 97.1712 19.4549 97.1712 19.2396V17.375C97.1712 17.1597 97.2789 17.0521 97.4941 17.0521H102.546C102.761 17.0521 102.869 17.1597 102.869 17.375V19.2396C102.869 19.4549 102.761 19.5625 102.546 19.5625H97.4941ZM108.557 24.2604C107.536 24.2604 106.723 23.9757 106.119 23.4062C105.522 22.8299 105.223 22.0382 105.223 21.0312C105.223 20.5104 105.317 20.0278 105.505 19.5833C105.699 19.1319 106.032 18.7361 106.505 18.3958C106.984 18.0486 107.65 17.7708 108.505 17.5625C109.366 17.3542 110.463 17.2326 111.796 17.1979C111.796 16.566 111.637 16.1111 111.317 15.8333C111.005 15.5556 110.532 15.4167 109.9 15.4167C109.331 15.4167 108.866 15.5139 108.505 15.7083C108.143 15.9028 107.918 16.0347 107.827 16.1042C107.73 16.1875 107.612 16.2187 107.473 16.1979C107.286 16.1701 107.084 16.1215 106.869 16.0521C106.661 15.9826 106.435 15.9028 106.192 15.8125C106.157 15.7986 106.119 15.7778 106.077 15.75C106.036 15.7153 106.012 15.6667 106.005 15.6042C106.005 15.5694 106.008 15.5278 106.015 15.4792C106.022 15.4236 106.039 15.3264 106.067 15.1875C106.095 15.0486 106.137 14.8785 106.192 14.6771C106.248 14.4687 106.3 14.309 106.348 14.1979C106.411 14.0799 106.515 13.9687 106.661 13.8646C106.779 13.7674 107.137 13.6111 107.734 13.3958C108.331 13.1806 109.196 13.0729 110.327 13.0729C113.446 13.0729 115.005 14.5903 115.005 17.625V23.5208C115.005 23.6528 114.966 23.7674 114.89 23.8646C114.821 23.9549 114.699 24 114.525 24H112.963C112.852 24 112.751 23.9861 112.661 23.9583C112.577 23.9236 112.498 23.8611 112.421 23.7708L111.775 22.9375H111.702C111.383 23.4028 110.952 23.7396 110.411 23.9479C109.876 24.1563 109.258 24.2604 108.557 24.2604ZM109.702 21.8437C110.341 21.8437 110.824 21.6806 111.15 21.3542C111.477 21.0278 111.685 20.691 111.775 20.3437V19.1875C110.81 19.1875 110.084 19.2639 109.598 19.4167C109.119 19.5625 108.8 19.7569 108.64 20C108.48 20.2361 108.4 20.4931 108.4 20.7708C108.4 21.1736 108.525 21.4549 108.775 21.6146C109.025 21.7674 109.334 21.8437 109.702 21.8437ZM117.338 9.83333C117.338 9.74306 117.366 9.66319 117.421 9.59375C117.477 9.52431 117.55 9.43403 117.64 9.32292C117.834 9.10069 118.06 8.86806 118.317 8.625C118.574 8.375 118.834 8.13542 119.098 7.90625C119.265 7.77431 119.39 7.70833 119.473 7.70833C119.557 7.70833 119.685 7.77431 119.859 7.90625C120.421 8.39236 120.9 8.86458 121.296 9.32292C121.387 9.42708 121.459 9.51736 121.515 9.59375C121.577 9.66319 121.609 9.74306 121.609 9.83333C121.609 9.92361 121.577 10.0035 121.515 10.0729C121.459 10.1424 121.383 10.2361 121.286 10.3542C121.098 10.5694 120.88 10.8021 120.63 11.0521C120.38 11.2951 120.123 11.5278 119.859 11.75C119.762 11.8333 119.685 11.8889 119.63 11.9167C119.574 11.9375 119.522 11.9479 119.473 11.9479C119.425 11.9479 119.373 11.9375 119.317 11.9167C119.268 11.8889 119.189 11.8333 119.077 11.75C118.8 11.5278 118.539 11.2951 118.296 11.0521C118.053 10.8021 117.834 10.5625 117.64 10.3333C117.55 10.2222 117.477 10.1354 117.421 10.0729C117.366 10.0035 117.338 9.92361 117.338 9.83333ZM121.109 23.4479C121.109 23.6562 121.064 23.8021 120.973 23.8854C120.89 23.9618 120.744 24 120.536 24H118.39C118.182 24 118.032 23.9618 117.942 23.8854C117.859 23.8021 117.817 23.6562 117.817 23.4479V13.8854C117.817 13.6771 117.859 13.5347 117.942 13.4583C118.032 13.375 118.182 13.3333 118.39 13.3333H120.536C120.744 13.3333 120.89 13.375 120.973 13.4583C121.064 13.5347 121.109 13.6771 121.109 13.8854V23.4479Z" fill="black"/>
</svg>
