<svg width="1448" height="417" viewBox="0 0 1448 417" fill="none" xmlns="http://www.w3.org/2000/svg">
<path d="M4 64.018L181.877 121.143C291.738 156.425 408.548 164.367 522.173 144.28L603.098 129.975C665.207 118.995 729.067 123.555 788.986 143.249V143.249C865.012 168.236 946.964 168.732 1023.29 144.665L1444 12" stroke="#B800B8" stroke-opacity="0.04" stroke-width="25"/>
<path d="M4 181.674L181.877 238.799C291.738 274.081 408.548 282.023 522.173 261.937L603.098 247.631C665.207 236.651 729.067 241.212 788.986 260.905V260.905C865.012 285.893 946.964 286.388 1023.29 262.321L1444 129.656" stroke="#B800B8" stroke-opacity="0.04" stroke-width="25"/>
<path d="M4 299.346L181.877 356.471C291.738 391.753 408.548 399.695 522.173 379.609L603.098 365.303C665.207 354.323 729.067 358.884 788.986 378.577V378.577C865.012 403.564 946.964 404.06 1023.29 379.993L1444 247.328" stroke="#B800B8" stroke-opacity="0.04" stroke-width="25"/>
</svg>
