<svg width="24" height="24" viewBox="0 0 24 24" fill="none" xmlns="http://www.w3.org/2000/svg">
<path id="Vector" fill-rule="evenodd" clip-rule="evenodd" d="M24 12C24 18.6274 18.6274 24 12 24C5.37258 24 0 18.6274 0 12C0 5.37258 5.37258 0 12 0C18.6274 0 24 5.37258 24 12ZM16.8364 8.3636C17.1878 8.71507 17.1878 9.28493 16.8364 9.63636L10.8364 15.6364C10.4849 15.9878 9.91512 15.9878 9.5636 15.6364L7.1636 13.2364C6.81214 12.8849 6.81214 12.3151 7.1636 11.9636C7.51507 11.6122 8.08493 11.6122 8.4364 11.9636L10.2 13.7272L12.8818 11.0454L15.5636 8.3636C15.9151 8.01214 16.4849 8.01214 16.8364 8.3636Z" fill="#458DE1"/>
</svg>
