<svg width="28" height="28" viewBox="0 0 28 28" fill="none" xmlns="http://www.w3.org/2000/svg">
<g id="icon/image">
<path id="Vector" d="M22.1667 3.5H5.83333C4.54467 3.5 3.5 4.54467 3.5 5.83333V22.1667C3.5 23.4553 4.54467 24.5 5.83333 24.5H22.1667C23.4553 24.5 24.5 23.4553 24.5 22.1667V5.83333C24.5 4.54467 23.4553 3.5 22.1667 3.5Z" fill="#F3F8FD" stroke="#667185" stroke-width="1.5" stroke-linecap="round" stroke-linejoin="round"/>
<path id="Vector_2" d="M10.4998 12.8334C11.7885 12.8334 12.8332 11.7887 12.8332 10.5001C12.8332 9.21142 11.7885 8.16675 10.4998 8.16675C9.21117 8.16675 8.1665 9.21142 8.1665 10.5001C8.1665 11.7887 9.21117 12.8334 10.4998 12.8334Z" fill="#F3F8FD" stroke="#667185" stroke-width="1.5" stroke-linecap="round" stroke-linejoin="round"/>
<g id="Vector_3">
<path d="M24.5 17.5001L20.8997 13.8997C20.4621 13.4623 19.8687 13.2166 19.25 13.2166C18.6313 13.2166 18.0379 13.4623 17.6003 13.8997L7 24.5001" fill="#F3F8FD"/>
<path d="M24.5 17.5001L20.8997 13.8997C20.4621 13.4623 19.8687 13.2166 19.25 13.2166C18.6313 13.2166 18.0379 13.4623 17.6003 13.8997L7 24.5001" stroke="#667185" stroke-width="1.5" stroke-linecap="round" stroke-linejoin="round"/>
</g>
</g>
</svg>
