<svg width="126" height="32" viewBox="0 0 126 32" fill="none" xmlns="http://www.w3.org/2000/svg">
<path fill-rule="evenodd" clip-rule="evenodd" d="M0.760254 16.3482L0.761798 16.1879L0.764982 16.0275L0.769814 15.8671L0.776286 15.7067L0.784414 15.5463L0.794182 15.3859L0.805606 15.2256L0.81867 15.0653L0.83339 14.905L0.849758 14.7448L0.867774 14.5848L0.88743 14.4248L0.908742 14.265L0.931702 14.1053L0.956302 13.9458L0.98255 13.7865L1.01045 13.6273L1.03997 13.4684L1.07115 13.3097L1.10397 13.1512L1.13842 12.993L1.1745 12.835L1.21223 12.6774L1.25157 12.5201L1.29256 12.3631L1.33516 12.2064L1.37939 12.0501L1.42524 11.8942L1.4727 11.7386L1.52177 11.5835L1.57246 11.4288L1.62476 11.2745L1.67865 11.1206L1.73414 10.9673L1.79123 10.8144L1.8499 10.662L1.91017 10.5102L1.97201 10.3588L2.03542 10.2081L2.10041 10.0578L2.16696 9.90816L2.23507 9.75912L2.30473 9.61072L2.37595 9.46288L2.44871 9.31568L2.52301 9.1692L2.59883 9.02336L2.67618 8.87816L2.75505 8.73376L2.83542 8.59L2.91731 8.44696L3.00069 8.30472L3.08556 8.1632L3.17191 8.02248L3.25974 7.88256L3.34904 7.74344L3.4398 7.6052L3.53201 7.46768L3.62567 7.33112L3.72077 7.19536L3.81729 7.06048L3.91522 6.92656L4.01457 6.79344L4.11533 6.66136L4.21748 6.53016L4.32101 6.39987L4.42591 6.27059L4.53218 6.14229L4.63981 6.01498L4.74878 5.88866L4.85909 5.76338L4.97073 5.63913L5.08368 5.51592L5.19794 5.39378L5.31349 5.2727L5.43033 5.15272L5.54845 5.03383L5.66782 4.91606L5.78845 4.79941L5.91033 4.6839L6.03343 4.56954L6.15775 4.45634L6.28328 4.34433L6.41001 4.2335L6.53792 4.12386L6.667 4.01544L6.79724 3.90825L6.92863 3.80229L7.06116 3.69758L7.19481 3.59412L7.32953 3.49194L7.46545 3.39104L7.60241 3.29144L7.74041 3.19314L7.87945 3.09616L8.01961 3.0005L8.16073 2.90618L8.30289 2.81321L8.44609 2.72159L8.59033 2.63135L8.73545 2.54249L8.88161 2.45501L9.02865 2.36894L9.17665 2.28427L9.32561 2.20102L9.47545 2.11921L9.62617 2.03882L9.77777 1.9599L9.93025 1.88242L10.0836 1.80641L10.2378 1.73187L10.3928 1.65882L10.5486 1.58726L10.7052 1.5172L10.8626 1.44865L11.0207 1.38162L11.1796 1.31611L11.3392 1.25214L11.4995 1.1897L11.6606 1.12882L11.8223 1.06948L11.9847 1.01172L12.1477 0.95552L12.3114 0.900896L12.4756 0.847864L12.6405 0.796416L12.806 0.746568L12.9721 0.698328L13.1387 0.651696L13.3059 0.606672L13.4735 0.563272L13.6417 0.521504L13.8103 0.481376L13.9795 0.442872L14.1491 0.406024L14.3191 0.370816L14.4896 0.337264L14.6605 0.305376L14.8318 0.275144L15.0035 0.246584L15.1755 0.219696L15.3478 0.19448L15.5204 0.170952L15.6934 0.149104L15.8667 0.128944L16.0402 0.110464L16.2139 0.093696L16.3879 0.078616L16.5622 0.0652321L16.7366 0.0535601L17.6745 0L17.728 4.51894L17.7587 4.51858L17.8882 4.5184L18.0177 4.51949L18.1472 4.52185L18.2769 4.52549L18.4065 4.5304L18.5362 4.53658L18.6659 4.54404L18.7955 4.55278L18.9251 4.56279L19.0548 4.57409L19.1843 4.58666L19.3139 4.60052L19.4432 4.61565L19.5726 4.63206L19.7018 4.64974L19.8309 4.6687L19.9599 4.68895L20.0887 4.71047L20.2174 4.73326L20.3459 4.75734L20.4743 4.78268L20.6023 4.8093L20.7303 4.83719L20.858 4.86635L20.9855 4.89678L21.1127 4.92847L21.2397 4.96144L21.3663 4.99566L21.4927 5.03115L21.6189 5.0679L21.7447 5.1059L21.8701 5.14515L21.9952 5.18566L22.12 5.22742L22.2444 5.27042L22.3684 5.31467L22.4921 5.36015L22.6153 5.40688L22.7381 5.45483L22.8605 5.50402L22.9824 5.55444L23.1039 5.60607L23.2249 5.65893L23.3455 5.713L23.4655 5.76828L23.585 5.82476L23.704 5.88245L23.8225 5.94134L23.9404 6.00142L24.0578 6.06268L24.1746 6.12513L24.2908 6.18876L24.4064 6.25356L24.5215 6.31953L24.6359 6.38666L24.7496 6.45496L24.8627 6.5244L24.9752 6.59496L25.087 6.66672L25.1981 6.73952L25.3085 6.81352L25.4183 6.88864L25.5272 6.9648L25.6355 7.04216L25.7431 7.12056L25.8498 7.20008L25.9559 7.28072L26.0611 7.3624L26.1655 7.4452L26.2691 7.52896L26.372 7.61384L26.474 7.69984L26.5752 7.7868L26.6756 7.8748L26.7751 7.96384L26.8737 8.05392L26.9715 8.14504L27.0683 8.23712L27.1643 8.33016L27.2594 8.42424L27.3535 8.51928L27.4467 8.61536L27.5391 8.71232L27.6303 8.81024L27.7207 8.90912L27.8101 9.00896L27.8985 9.10968L27.9859 9.21136L28.0723 9.31392L28.1578 9.41736L28.2422 9.52176L28.3255 9.62696L28.4079 9.73304L28.4891 9.84L28.5694 9.94784L28.6485 10.0565L28.7266 10.166L28.8035 10.2763L28.8795 10.3874L28.9543 10.4993L29.0279 10.612L29.1005 10.7255L29.1719 10.8398L29.2422 10.9547L29.3113 11.0705L29.3793 11.187L29.4461 11.3042L29.5118 11.4221L29.5763 11.5407L29.6395 11.66L29.7016 11.78L29.7625 11.9006L29.8222 12.0219L29.8807 12.1439L29.9379 12.2665L29.9939 12.3897L30.0487 12.5135L30.1023 12.6379L30.1545 12.763L30.2055 12.8885L30.2553 13.0146L30.3038 13.1413L30.351 13.2686L30.3969 13.3962L30.4415 13.5246L30.4849 13.6533L30.527 13.7826L30.5677 13.9122L30.6071 14.0424L30.6452 14.173L30.682 14.3041L30.7175 14.4356L30.7516 14.5675L30.7843 14.6998L30.8159 14.8325L30.8459 14.9655L30.8747 15.099L30.9021 15.2326L30.9281 15.3668L30.9527 15.5012L30.9761 15.6359L30.998 15.7709L31.0186 15.9062L31.0378 16.0418L31.0555 16.1775L31.0719 16.3136L31.087 16.4498L31.1006 16.5863L31.1128 16.723L31.1237 16.8598L31.1331 16.9969L31.1411 17.1341L31.1478 17.2714L31.1531 17.4089L31.1568 17.5464L31.1593 17.6841L31.1603 17.8218L31.1599 17.9597L31.158 18.0976L31.1547 18.2356L31.1501 18.3735L31.144 18.5115L31.1366 18.6495L31.1276 18.7875L31.1173 18.9255L31.1055 19.0634L31.0923 19.2014L31.0778 19.3392L31.0617 19.4769L31.0443 19.6146L31.0255 19.7521L31.0051 19.8895L30.9835 20.0268L30.9603 20.1639L30.9358 20.3009L30.9099 20.4377L30.8825 20.5743L30.8537 20.7107L30.8235 20.8469L30.7919 20.9829L30.7589 21.1186L30.7244 21.254L30.6886 21.3891L30.6514 21.524L30.6127 21.6586L30.5727 21.7928L30.5313 21.9268L30.4884 22.0603L30.4443 22.1936L30.3987 22.3264L30.3516 22.4589L30.3033 22.591L30.2535 22.7226L30.2024 22.8538L30.1499 22.9846L30.0961 23.1149L30.0409 23.2447L29.9843 23.3742L29.9264 23.503L29.8671 23.6314L29.8065 23.7592L29.7446 23.8865L29.6812 24.0133L29.6167 24.1394L29.5507 24.2651L29.4835 24.3901L29.4148 24.5146L29.345 24.6383L29.2738 24.7615L29.2013 24.8841L29.1275 25.0059L29.0525 25.1272L28.9761 25.2477L28.8985 25.3675L28.8197 25.4866L28.7395 25.605L28.6582 25.7227L28.5755 25.8397L28.4917 25.9558L28.4066 26.0713L28.3203 26.1859L28.2327 26.2998L28.144 26.4127L28.0541 26.525L27.963 26.6363L27.8707 26.7468L27.7771 26.8565L27.6825 26.9653L27.5867 27.0732L27.4897 27.1802L27.3916 27.2864L27.2924 27.3916L27.192 27.4959L27.0906 27.5992L26.9879 27.7016L26.8843 27.803L26.7795 27.9035L26.6737 28.003L26.5668 28.1015L26.4588 28.199L26.3498 28.2954L26.2398 28.3909L26.1287 28.4854L26.0166 28.5787L25.9035 28.671L25.7894 28.7622L25.6743 28.8524L25.5582 28.9414L25.4411 29.0294L25.3231 29.1162L25.2043 29.202L25.0843 29.2866L24.9635 29.3701L24.8419 29.4524L24.7193 29.5335L24.5958 29.6135L24.4715 29.6924L24.3463 29.77L24.2202 29.8465L24.0932 29.9217L23.9655 29.9958L23.837 30.0686L23.7075 30.1401L23.5775 30.2105L23.4465 30.2795L23.3148 30.3474L23.1823 30.414L23.0491 30.4793L22.9152 30.5433L22.7806 30.6061L22.6452 30.6675L22.5092 30.7277L22.3725 30.7865L22.2351 30.844L22.0971 30.9002L21.9585 30.9551L21.8192 31.0086L21.6793 31.0609L21.5388 31.1117L21.3977 31.1612L21.2561 31.2093L21.1139 31.2561L20.9711 31.3014L20.8279 31.3454L20.6841 31.3881L20.5399 31.4293L20.3951 31.4691L20.2499 31.5076L20.1041 31.5446L19.958 31.5802L19.8115 31.6144L19.6644 31.6471L19.5171 31.6785L19.3693 31.7084L19.2211 31.7369L19.0727 31.7639L18.9239 31.7894L18.7747 31.8136L18.6252 31.8363L18.4754 31.8575L18.3254 31.8773L18.1751 31.8956L18.0244 31.9124L17.8736 31.9278L17.7226 31.9417L17.5714 31.9541L17.4199 31.965L17.2683 31.9745L17.1165 31.9825L16.9646 31.989L16.8126 31.9939L16.6603 31.9974L16.5081 31.9994L16.3557 32L16.2033 31.999L16.0508 31.9966L15.8983 31.9926L15.7457 31.9871L15.5931 31.9802L15.4406 31.9718L15.2881 31.9618L15.1355 31.9503L14.9831 31.9374L14.8307 31.9229L14.6784 31.907L14.5263 31.8895L14.3742 31.8706L14.2222 31.8501L14.0704 31.8281L13.9187 31.8046L13.7673 31.7797L13.616 31.7533L13.4649 31.7253L13.3141 31.6958L13.1635 31.665L13.0131 31.6325L12.863 31.5986L12.7132 31.5632L12.5637 31.5263L12.4145 31.4879L12.2656 31.4481L12.1171 31.4068L11.969 31.364L11.8211 31.3198L11.6738 31.274L11.5268 31.2268L11.3803 31.1782L11.2341 31.128L11.0884 31.0764L10.9432 31.0234L10.7985 30.969L10.6543 30.913L10.5106 30.8557L10.3674 30.7969L10.2247 30.7366L10.0827 30.675L9.94113 30.612L9.80017 30.5475L9.65985 30.4816L9.52017 30.4143L9.38113 30.3456L9.24265 30.2755L9.10489 30.2041L8.96785 30.1312L8.83137 30.057L8.69569 29.9814L8.56073 29.9045L8.42649 29.8262L8.29297 29.7465L8.16025 29.6655L8.02825 29.5831L7.89705 29.4995L7.76673 29.4145L7.63713 29.3282L7.50841 29.2406L7.38057 29.1517L7.25353 29.0615L7.12738 28.97L7.00212 28.8773L6.87775 28.7832L6.7543 28.6879L6.63177 28.5914L6.51018 28.4936L6.38955 28.3946L6.26988 28.2944L6.15118 28.193L6.03348 28.0903L5.91678 27.9864L5.8011 27.8814L5.68645 27.7752L5.57284 27.6678L5.46029 27.5593L5.3488 27.4495L5.23838 27.3387L5.12906 27.2268L5.02085 27.1137L4.91374 26.9995L4.80777 26.8842L4.70293 26.7678L4.59925 26.6504L4.49672 26.5319L4.39537 26.4123L4.2952 26.2918L4.19623 26.1701L4.09846 26.0474L4.00192 25.9238L3.9066 25.7991L3.81252 25.6734L3.71969 25.5468L3.62812 25.4192L3.53781 25.2906L3.4488 25.1612L3.36107 25.0308L3.27465 24.8994L3.18953 24.7673L3.10573 24.6342L3.02327 24.5002L2.94215 24.3654L2.86237 24.2296L2.78397 24.0931L2.70692 23.9558L2.63125 23.8176L2.55697 23.6786L2.48407 23.5388L2.41259 23.3983L2.34251 23.257L2.27386 23.115L2.20664 22.9722L2.14085 22.8288L2.0765 22.6846L2.01361 22.5398L1.95217 22.3942L1.89221 22.248L1.83372 22.1011L1.77671 21.9536L1.7212 21.8055L1.66717 21.6568L1.61465 21.5075L1.56364 21.3577L1.51414 21.2072L1.46617 21.0562L1.41973 20.9047L1.37482 20.7527L1.33145 20.6002L1.28963 20.4471L1.24936 20.2937L1.21065 20.1398L1.17349 19.9854L1.13792 19.8306L1.10391 19.6753L1.07148 19.5197L1.04063 19.3637L1.01137 19.2074L0.983694 19.0506L0.957622 18.8936L0.933142 18.7362L0.91027 18.5786L0.889006 18.4206L0.869358 18.2623L0.851318 18.1038L0.834894 17.9451L0.820094 17.7862L0.806918 17.627L0.795366 17.4677L0.785446 17.3082L0.777158 17.1485L0.770502 16.9886L0.765478 16.8287L0.762094 16.6686L0.760358 16.5085L0.760254 16.3482ZM16.2627 4.61359L16.2263 1.53343L16.1916 1.53678L16.0326 1.5537L15.8739 1.57217L15.7154 1.5922L15.5575 1.61372L15.3997 1.63681L15.2421 1.66144L15.085 1.68758L14.928 1.71529L14.7719 1.74443L14.6155 1.77521L14.4602 1.80737L14.3047 1.84115L14.1499 1.87637L13.9954 1.91315L13.8415 1.95134L13.6881 1.99107L13.5351 2.03228L13.3825 2.07498L13.2307 2.1191L13.0791 2.16475L12.9283 2.21182L12.7779 2.26038L12.6283 2.31028L12.4789 2.36176L12.3303 2.41462L12.1825 2.46887L12.0351 2.52461L11.8884 2.5817L11.7426 2.64018L11.5971 2.70015L11.4524 2.76149L11.3084 2.82422L11.1652 2.88828L11.0227 2.95373L10.8811 3.0205L10.7399 3.08874L10.5997 3.15822L10.4603 3.22906L10.3216 3.30124L10.1838 3.37475L10.0469 3.44952L9.91057 3.52567L9.77513 3.60314L9.64089 3.68172L9.50705 3.76183L9.37449 3.84301L9.24281 3.92545L9.11177 4.00924L8.98177 4.09426L8.85273 4.18051L8.72489 4.26778L8.59753 4.3566L8.47145 4.44637L8.34633 4.53738L8.22209 4.62963L8.09897 4.72298L7.97697 4.81746L7.85569 4.91326L7.73577 5.00997L7.61673 5.10795L7.49881 5.207L7.38193 5.3072L7.26625 5.40836L7.15144 5.5108L7.03793 5.61415L6.9254 5.7187L6.81417 5.82412L6.70395 5.93069L6.59496 6.03822L6.48708 6.14681L6.38025 6.25652L6.27481 6.36698L6.17057 6.4784L6.06725 6.59112L5.96536 6.70456L5.86472 6.8188L5.76511 6.93424L5.66695 7.0504L5.56988 7.1676L5.47411 7.2856L5.3796 7.40456L5.28632 7.52432L5.19441 7.64488L5.10371 7.76632L5.01425 7.88872L4.92624 8.01168L4.8394 8.13568L4.75394 8.26032L4.66981 8.38576L4.58693 8.512L4.50546 8.63896L4.42533 8.76656L4.34653 8.89496L4.26915 9.024L4.19304 9.15384L4.11829 9.2844L4.04502 9.41544L3.97306 9.5472L3.90248 9.67968L3.83333 9.81272L3.76553 9.9464L3.6992 10.0806L3.63425 10.2154L3.57073 10.3507L3.50859 10.4867L3.44793 10.6231L3.38864 10.7602L3.3308 10.8977L3.27444 11.0356L3.21949 11.1741L3.16597 11.313L3.11393 11.4524L3.06333 11.5922L3.01423 11.7324L2.96654 11.8731L2.92033 12.0142L2.87561 12.1556L2.83236 12.2973L2.79055 12.4395L2.75025 12.5819L2.71143 12.7247L2.67408 12.8678L2.63821 13.0112L2.60385 13.1548L2.57097 13.2987L2.53957 13.4429L2.50968 13.5873L2.48128 13.7318L2.45437 13.8766L2.42896 14.0216L2.40505 14.1668L2.38264 14.3121L2.36173 14.4575L2.34232 14.6031L2.32441 14.7488L2.308 14.8946L2.29309 15.0405L2.27969 15.1864L2.26779 15.3323L2.25739 15.4784L2.24849 15.6245L2.24109 15.7705L2.2352 15.9166L2.2308 16.0626L2.2279 16.2086L2.22649 16.3545L2.22659 16.5004L2.22817 16.6462L2.23125 16.7919L2.23582 16.9375L2.24188 17.083L2.24943 17.2283L2.25845 17.3734L2.26897 17.5185L2.28096 17.6633L2.29443 17.8079L2.30937 17.9524L2.32578 18.0966L2.34366 18.2406L2.36301 18.3842L2.38381 18.5277L2.40609 18.6709L2.4298 18.8137L2.45497 18.9562L2.48159 19.0985L2.50965 19.2403L2.53914 19.3819L2.57007 19.523L2.60243 19.6638L2.63621 19.8042L2.67141 19.9442L2.70804 20.0838L2.74605 20.2229L2.78549 20.3616L2.82633 20.4998L2.86855 20.6376L2.91217 20.7749L2.95715 20.9116L3.00352 21.0478L3.05126 21.1835L3.10037 21.3187L3.15081 21.4533L3.20265 21.5874L3.25579 21.7208L3.31028 21.8537L3.36611 21.9859L3.42325 22.1175L3.48173 22.2486L3.5415 22.379L3.60258 22.5086L3.66495 22.6377L3.72861 22.766L3.79355 22.8937L3.85977 23.0206L3.92724 23.1469L3.99597 23.2724L4.06595 23.3971L4.13717 23.5211L4.20961 23.6444L4.28329 23.7668L4.35815 23.8885L4.43426 24.0094L4.51153 24.1294L4.59001 24.2486L4.66967 24.367L4.75048 24.4846L4.83245 24.6013L4.91559 24.7171L4.99985 24.8321L5.08526 24.9462L5.17176 25.0593L5.25941 25.1715L5.34812 25.2828L5.43794 25.3932L5.52887 25.5027L5.62081 25.6112L5.71385 25.7187L5.80793 25.8253L5.90307 25.9309L5.99921 26.0354L6.09636 26.139L6.19453 26.2416L6.29369 26.3432L6.39387 26.4438L6.49499 26.5432L6.5971 26.6417L6.70013 26.739L6.8041 26.8354L6.90904 26.9307L7.01487 27.0249L7.12155 27.1179L7.22921 27.2099L7.33777 27.3008L7.44705 27.3906L7.55737 27.4793L7.66841 27.5667L7.78033 27.6531L7.89305 27.7384L8.00665 27.8225L8.12097 27.9054L8.23609 27.9871L8.35193 28.0677L8.46865 28.1471L8.58601 28.2253L8.70425 28.3023L8.82305 28.3782L8.94265 28.4527L9.06297 28.5262L9.18385 28.5983L9.30553 28.6693L9.42777 28.739L9.55073 28.8074L9.67425 28.8746L9.79849 28.9406L9.92321 29.0054L10.0486 29.0689L10.1746 29.131L10.3011 29.192L10.4282 29.2517L10.5558 29.3101L10.6839 29.3671L10.8126 29.423L10.9417 29.4774L11.0714 29.5307L11.2015 29.5826L11.332 29.6332L11.4631 29.6826L11.5944 29.7306L11.7263 29.7772L11.8586 29.8226L11.9912 29.8666L12.1243 29.9094L12.2575 29.9507L12.3914 29.9908L12.5254 30.0295L12.6598 30.0669L12.7945 30.103L12.9295 30.1377L13.0647 30.171L13.2002 30.203L13.336 30.2338L13.472 30.263L13.6082 30.291L13.7447 30.3177L13.8813 30.343L14.0181 30.3669L14.1551 30.3894L14.2922 30.4106L14.4295 30.4305L14.5669 30.449L14.7043 30.4662L14.8419 30.4819L14.9796 30.4963L15.1174 30.5094L15.2552 30.5211L15.3931 30.5315L15.5309 30.5405L15.6688 30.5482L15.8067 30.5544L15.9445 30.5594L16.0823 30.563L16.2202 30.5651L16.3579 30.566L16.4955 30.5655L16.6331 30.5637L16.7706 30.5606L16.9079 30.556L17.0452 30.5502L17.1823 30.543L17.3192 30.5344L17.456 30.5246L17.5927 30.5134L17.7291 30.5008L17.8652 30.4869L18.0012 30.4717L18.1369 30.4552L18.2724 30.4374L18.4076 30.4182L18.5426 30.3977L18.6772 30.3759L18.8116 30.3528L18.9457 30.3284L19.0794 30.3027L19.2127 30.2758L19.3458 30.2474L19.4784 30.2179L19.6107 30.187L19.7426 30.1549L19.874 30.1215L20.0051 30.0868L20.1356 30.0509L20.2659 30.0137L20.3955 29.9752L20.5248 29.9355L20.6535 29.8946L20.7819 29.8524L20.9096 29.809L21.0367 29.7644L21.1635 29.7185L21.2897 29.6714L21.4153 29.6231L21.5403 29.5737L21.6647 29.523L21.7886 29.4711L21.9119 29.4181L22.0345 29.3638L22.1564 29.3085L22.2779 29.2519L22.3986 29.1942L22.5186 29.1354L22.638 29.0753L22.7567 29.0142L22.8747 28.9519L22.992 28.8885L23.1085 28.824L23.2243 28.7584L23.3394 28.6918L23.4539 28.6239L23.5673 28.5551L23.6803 28.4851L23.7922 28.4142L23.9034 28.3421L24.0139 28.269L24.1235 28.1947L24.2322 28.1197L24.3401 28.0434L24.4472 27.9662L24.5535 27.8881L24.6589 27.8088L24.7633 27.7287L24.8671 27.6474L24.9697 27.5654L25.0715 27.4823L25.1725 27.3982L25.2725 27.3132L25.3715 27.2274L25.4696 27.1405L25.5667 27.0528L25.663 26.9642L25.7583 26.8746L25.8524 26.7843L25.9458 26.693L26.0381 26.6008L26.1294 26.5078L26.2197 26.414L26.3089 26.3194L26.3971 26.2241L26.4844 26.1276L26.5705 26.0306L26.6557 25.9327L26.7397 25.8342L26.8227 25.7347L26.9047 25.6346L26.9855 25.5338L27.0653 25.4321L27.1439 25.3298L27.2216 25.2267L27.298 25.123L27.3735 25.0186L27.4479 24.9134L27.5208 24.8078L27.5929 24.7013L27.6637 24.5943L27.7335 24.4866L27.8022 24.3782L27.8695 24.2694L27.9358 24.1599L28.001 24.0496L28.0648 23.9391L28.1276 23.8278L28.1893 23.716L28.2496 23.6038L28.3089 23.4909L28.367 23.3774L28.4237 23.2639L28.4794 23.1494L28.5339 23.0346L28.5871 22.9194L28.6391 22.8037L28.6899 22.6875L28.7394 22.571L28.7878 22.4539L28.8349 22.3365L28.8807 22.219L28.9254 22.1006L28.9687 21.9822L29.011 21.8632L29.0519 21.744L29.0916 21.6244L29.1299 21.5048L29.1672 21.3843L29.2031 21.264L29.2377 21.1433L29.2711 21.0224L29.3033 20.901L29.3341 20.7797L29.3638 20.6579L29.3921 20.5359L29.4192 20.4138L29.4451 20.2914L29.4695 20.1691L29.4928 20.0462L29.5148 19.9237L29.5355 19.8006L29.555 19.6775L29.5731 19.5544L29.5901 19.431L29.6057 19.3078L29.6201 19.1841L29.6331 19.0608L29.645 18.9371L29.6555 18.8137L29.6647 18.6898L29.6727 18.5665L29.6795 18.4427L29.6849 18.3189L29.6891 18.1954L29.692 18.0721L29.6936 17.9483L29.694 17.8248L29.6931 17.7014L29.691 17.5782L29.6875 17.4549L29.6828 17.3321L29.6769 17.2088L29.6697 17.0861L29.6612 16.9634L29.6515 16.841L29.6406 16.7185L29.6284 16.5965L29.615 16.4744L29.6003 16.3527L29.5843 16.2311L29.5672 16.1099L29.5487 15.9886L29.5291 15.8679L29.5083 15.7476L29.4863 15.6272L29.4629 15.5072L29.4384 15.3877L29.4127 15.2681L29.3859 15.1494L29.3576 15.0305L29.3284 14.9124L29.2978 14.7942L29.2661 14.6768L29.2332 14.5596L29.1991 14.4426L29.1639 14.3264L29.1275 14.2106L29.0899 14.0948L29.0512 13.9799L29.0112 13.8651L28.9703 13.751L28.928 13.6372L28.8847 13.5242L28.8402 13.4113L28.7946 13.299L28.7479 13.1875L28.7002 13.0765L28.6511 12.9656L28.6012 12.8558L28.5499 12.746L28.4978 12.6373L28.4445 12.529L28.39 12.421L28.3347 12.314L28.2781 12.2074L28.2204 12.1014L28.162 11.9963L28.1023 11.8915L28.0416 11.7876L27.9798 11.6842L27.9172 11.5818L27.8533 11.4796L27.7887 11.3784L27.7228 11.2777L27.6561 11.1778L27.5885 11.0789L27.5197 10.9803L27.45 10.8826L27.3795 10.7857L27.3079 10.6896L27.2354 10.5941L27.1619 10.4995L27.0876 10.4056L27.0123 10.3126L26.9362 10.2203L26.8591 10.1288L26.7811 10.0382L26.7023 9.94832L26.6227 9.85936L26.5421 9.7712L26.4605 9.68376L26.3785 9.59752L26.2951 9.51176L26.2114 9.4272L26.1267 9.34328L26.0412 9.2604L25.9547 9.17816L25.8678 9.0972L25.7798 9.01688L25.6911 8.93752L25.6019 8.8592L25.5118 8.78176L25.4207 8.70504L25.3291 8.62944L25.2368 8.5548L25.1438 8.48112L25.05 8.40832L24.9558 8.33672L24.8605 8.26568L24.7649 8.196L24.6685 8.1272L24.5714 8.05928L24.4739 7.99248L24.3753 7.92648L24.2767 7.86184L24.1771 7.79792L24.0771 7.73512L23.9763 7.67328L23.8751 7.61248L23.7733 7.5528L23.6711 7.49424L23.568 7.4364L23.4649 7.37992L23.3609 7.32432L23.2565 7.26984L23.1517 7.21648L23.0463 7.16408L22.9404 7.11272L22.8342 7.06256L22.7274 7.01336L22.6203 6.96536L22.5127 6.91832L22.4013 6.87096L22.2965 6.82768L22.1875 6.78384L22.0786 6.74136L21.9688 6.69968L21.8591 6.65936L21.7488 6.62L21.6383 6.58184L21.5274 6.54464L21.4163 6.50872L21.3048 6.47384L21.1931 6.44008L21.0812 6.40752L20.9689 6.37597L20.8562 6.3455L20.7436 6.31628L20.6308 6.28817L20.5173 6.26109L20.4042 6.23526L20.2905 6.21046L20.1768 6.18686L20.0627 6.16433L19.9488 6.14298L19.8346 6.12274L19.7204 6.10368L19.6057 6.08568L19.4913 6.06887L19.3767 6.05318L19.2619 6.03861L19.1471 6.02518L19.0323 6.01291L18.9174 6.00176L18.8024 5.99174L18.6874 5.98286L18.5723 5.9751L18.4575 5.96849L18.3426 5.96301L18.2273 5.95865L18.1127 5.95543L17.9978 5.95334L17.883 5.95238L17.768 5.95254L17.745 5.9528L17.7812 9.01056L17.8464 9.01024L17.9303 9.01072L18.0143 9.012L18.0983 9.01416L18.1823 9.01712L18.2664 9.02096L18.3505 9.0256L18.4347 9.03104L18.5188 9.03736L18.603 9.04448L18.6871 9.05248L18.7712 9.06128L18.8554 9.07096L18.9395 9.08144L19.0235 9.09272L19.1075 9.10496L19.1914 9.11792L19.2752 9.13176L19.3591 9.14648L19.4427 9.162L19.5263 9.1784L19.6099 9.1956L19.6933 9.2136L19.7766 9.23248L19.8597 9.25224L19.9427 9.2728L20.0255 9.29416L20.1083 9.3164L20.1908 9.33944L20.2732 9.36336L20.3555 9.38808L20.4375 9.4136L20.5192 9.44L20.6008 9.4672L20.6823 9.49528L20.7634 9.52416L20.8443 9.55384L20.925 9.58432L21.0055 9.61568L21.0856 9.64784L21.1655 9.6808L21.2451 9.71464L21.3245 9.7492L21.4035 9.78464L21.4823 9.8208L21.5607 9.85784L21.6388 9.89568L21.7166 9.93432L21.794 9.97376L21.8711 10.014L21.9479 10.055L22.0243 10.0968L22.1003 10.1394L22.1759 10.1827L22.2511 10.2269L22.326 10.2718L22.4004 10.3175L22.4744 10.364L22.548 10.4113L22.6212 10.4593L22.6939 10.508L22.7663 10.5575L22.8381 10.6078L22.9095 10.6588L22.9803 10.7106L23.0507 10.7631L23.1207 10.8163L23.1901 10.8703L23.2591 10.925L23.3275 10.9804L23.3954 11.0366L23.4627 11.0934L23.5296 11.151L23.5959 11.2092L23.6617 11.2682L23.7269 11.3278L23.7915 11.3882L23.8555 11.4492L23.919 11.5109L23.9819 11.5733L24.0442 11.6363L24.1059 11.7001L24.167 11.7644L24.2274 11.8294L24.2872 11.8951L24.3464 11.9614L24.405 12.0283L24.4629 12.0959L24.5202 12.1641L24.5768 12.2329L24.6327 12.3023L24.688 12.3723L24.7426 12.443L24.7965 12.5142L24.8497 12.586L24.9022 12.6583L24.954 12.7313L25.0051 12.8048L25.0555 12.8789L25.1051 12.9535L25.1539 13.0286L25.2021 13.1044L25.2495 13.1806L25.2963 13.2574L25.3422 13.3346L25.3873 13.4125L25.4317 13.4907L25.4753 13.5695L25.5181 13.6488L25.5602 13.7286L25.6015 13.8088L25.6419 13.8895L25.6815 13.9707L25.7204 14.0523L25.7584 14.1343L25.7956 14.2169L25.832 14.2998L25.8676 14.3831L25.9023 14.4669L25.9363 14.551L25.9693 14.6356L26.0015 14.7205L26.0328 14.8058L26.0633 14.8915L26.093 14.9776L26.1218 15.064L26.1496 15.1508L26.1767 15.2378L26.2028 15.3253L26.2281 15.413L26.2525 15.5011L26.2759 15.5895L26.2986 15.6782L26.3203 15.7671L26.3411 15.8563L26.361 15.9458L26.3799 16.0356L26.398 16.1256L26.4151 16.2158L26.4314 16.3064L26.4467 16.3971L26.4611 16.488L26.4746 16.5792L26.4871 16.6705L26.4987 16.762L26.5095 16.8538L26.5191 16.9457L26.5279 17.0377L26.5359 17.1299L26.5427 17.2222L26.5487 17.3147L26.5537 17.4073L26.5578 17.5L26.5609 17.5929L26.5631 17.6858L26.5643 17.7788L26.5645 17.8719L26.5638 17.965L26.5621 18.0582L26.5595 18.1515L26.5559 18.2449L26.5513 18.3382L26.5458 18.4315L26.5393 18.525L26.5319 18.6183L26.5234 18.7117L26.514 18.805L26.5036 18.8983L26.4923 18.9917L26.48 19.0849L26.4667 19.1781L26.4525 19.2712L26.4373 19.3642L26.4211 19.4572L26.4039 19.5501L26.3859 19.6429L26.3667 19.7355L26.3467 19.8281L26.3257 19.9205L26.3037 20.0127L26.2807 20.1048L26.2568 20.1968L26.2319 20.2886L26.2061 20.3802L26.1793 20.4715L26.1515 20.5627L26.1228 20.6538L26.0931 20.7446L26.0624 20.835L26.0308 20.9254L25.9983 21.0154L25.9648 21.1052L25.9303 21.1947L25.895 21.284L25.8587 21.373L25.8214 21.4617L25.7831 21.55L25.744 21.6381L25.7039 21.7258L25.6629 21.8132L25.621 21.9002L25.5781 21.987L25.5343 22.0733L25.4895 22.1593L25.4439 22.2448L25.3974 22.33L25.3499 22.4148L25.3016 22.4992L25.2523 22.5831L25.2022 22.6667L25.1511 22.7498L25.0992 22.8325L25.0463 22.9146L24.9927 22.9964L24.938 23.0776L24.8826 23.1584L24.8263 23.2387L24.7691 23.3185L24.711 23.3978L24.6521 23.4766L24.5923 23.5548L24.5317 23.6325L24.4703 23.7096L24.4079 23.7862L24.3448 23.8622L24.2809 23.9378L24.2161 24.0126L24.1505 24.087L24.0841 24.1606L24.0169 24.2338L23.9489 24.3062L23.8802 24.3782L23.8106 24.4494L23.7403 24.52L23.6691 24.5899L23.5972 24.6593L23.5245 24.7279L23.4511 24.7958L23.377 24.8632L23.302 24.9298L23.2264 24.9957L23.15 25.061L23.073 25.1254L22.9951 25.1893L22.9167 25.2523L22.8374 25.3146L22.7575 25.3762L22.6769 25.4371L22.5956 25.4972L22.5136 25.5566L22.4311 25.6152L22.3478 25.673L22.2639 25.73L22.1792 25.7862L22.094 25.8417L22.0082 25.8963L21.9218 25.9502L21.8347 26.0031L21.7471 26.0554L21.6587 26.1067L21.5699 26.1572L21.4805 26.2069L21.3905 26.2558L21.2999 26.3038L21.2088 26.3509L21.1171 26.3971L21.025 26.4425L20.9323 26.487L20.839 26.5306L20.7452 26.5734L20.651 26.6152L20.5563 26.6562L20.461 26.6962L20.3653 26.7353L20.2691 26.7735L20.1725 26.8108L20.0755 26.8472L19.9779 26.8826L19.88 26.9171L19.7816 26.9506L19.6829 26.9833L19.5837 27.0149L19.4842 27.0456L19.3843 27.0754L19.2839 27.1041L19.1833 27.1319L19.0823 27.1587L18.9809 27.1846L18.8792 27.2094L18.7772 27.2334L18.6748 27.2562L18.5723 27.2782L18.4693 27.299L18.3661 27.319L18.2627 27.3379L18.1589 27.3558L18.0549 27.3727L17.9507 27.3886L17.8463 27.4034L17.7415 27.4173L17.6367 27.4302L17.5316 27.4419L17.4263 27.4527L17.3209 27.4625L17.2153 27.4712L17.1095 27.4789L17.0036 27.4855L16.8975 27.4911L16.7914 27.4957L16.6851 27.4992L16.5787 27.5017L16.4722 27.5031L16.3655 27.5035L16.2589 27.5029L16.1523 27.5011L16.0455 27.4984L15.9387 27.4946L15.8319 27.4897L15.725 27.4838L15.6182 27.4768L15.5113 27.4688L15.4045 27.4597L15.2977 27.4495L15.1909 27.4383L15.0842 27.4261L14.9775 27.4128L14.8709 27.3984L14.7644 27.383L14.658 27.3665L14.5517 27.349L14.4455 27.3303L14.3394 27.3107L14.2335 27.29L14.1277 27.2682L14.022 27.2454L13.9166 27.2215L13.8113 27.1966L13.7062 27.1706L13.6013 27.1435L13.4966 27.1154L13.3921 27.0863L13.2879 27.0562L13.1839 27.025L13.0802 26.9927L12.9767 26.9594L12.8736 26.925L12.7707 26.8897L12.6681 26.8533L12.5659 26.8158L12.4639 26.7774L12.3623 26.7378L12.261 26.6974L12.16 26.6558L12.0595 26.6132L11.9593 26.5697L11.8595 26.525L11.7601 26.4794L11.6611 26.4329L11.5626 26.3853L11.4644 26.3366L11.3667 26.287L11.2695 26.2365L11.1727 26.1849L11.0763 26.1323L10.9805 26.0788L10.8851 26.0242L10.7903 25.9688L10.6959 25.9123L10.6021 25.8549L10.5088 25.7966L10.4161 25.7372L10.3239 25.677L10.2323 25.6157L10.1413 25.5535L10.0508 25.4905L9.96097 25.4265L9.87169 25.3615L9.78305 25.2957L9.69497 25.2289L9.60761 25.1612L9.52089 25.0926L9.43481 25.0231L9.34937 24.9528L9.26457 24.8815L9.18049 24.8094L9.09713 24.7364L9.01441 24.6626L8.93241 24.5878L8.85121 24.5123L8.77065 24.4359L8.69081 24.3586L8.61177 24.2806L8.53353 24.2017L8.45601 24.1219L8.37921 24.0414L8.30321 23.9601L8.22809 23.878L8.15369 23.795L8.08009 23.7114L8.00737 23.6269L7.93537 23.5417L7.86433 23.4557L7.79401 23.3689L7.72465 23.2814L7.65609 23.1932L7.58841 23.1042L7.52161 23.0146L7.45561 22.9242L7.39057 22.8331L7.32649 22.7414L7.26321 22.6489L7.20089 22.5558L7.1395 22.462L7.07903 22.3675L7.01949 22.2724L6.96089 22.1766L6.90325 22.0802L6.84656 21.9833L6.79083 21.8856L6.73607 21.7874L6.68229 21.6886L6.6295 21.5892L6.57769 21.4892L6.52689 21.3886L6.47709 21.2875L6.42829 21.1858L6.38052 21.0837L6.33377 20.9809L6.28804 20.8777L6.24335 20.7739L6.1997 20.6696L6.15709 20.5649L6.11555 20.4597L6.07505 20.3539L6.03562 20.2478L5.99725 20.1412L5.95997 20.0341L5.92376 19.9266L5.88863 19.8187L5.85459 19.7104L5.82165 19.6018L5.7898 19.4926L5.75905 19.3832L5.72941 19.2734L5.70089 19.1631L5.67349 19.0526L5.64719 18.9418L5.62203 18.8306L5.59799 18.719L5.57509 18.6073L5.55332 18.4952L5.53269 18.3828L5.5132 18.2702L5.49486 18.1573L5.47767 18.0442L5.46163 17.9308L5.44675 17.8172L5.43303 17.7034L5.42047 17.5894L5.40907 17.4752L5.39884 17.3608L5.38978 17.2462L5.38189 17.1316L5.37517 17.0167L5.36964 16.9018L5.36528 16.7867L5.3621 16.6715L5.3601 16.5562L5.35929 16.4408L5.35966 16.3254L5.36121 16.2098L5.36397 16.0943L5.36789 15.9787L5.37302 15.863L5.37934 15.7474L5.38685 15.6318L5.39555 15.5162L5.40544 15.4005L5.41653 15.285L5.42881 15.1694L5.44229 15.0539L5.45696 14.9385L5.47282 14.8231L5.48988 14.7078L5.50813 14.5927L5.52757 14.4777L5.54821 14.3628L5.57005 14.248L5.59307 14.1334L5.61728 14.019L5.64269 13.9046L5.66928 13.7906L5.69705 13.6766L5.72601 13.563L5.75617 13.4495L5.78749 13.3362L5.82001 13.2233L5.8537 13.1106L5.88857 12.9981L5.92461 12.8858L5.96183 12.774L6.00021 12.6624L6.03977 12.5511L6.08049 12.4402L6.12237 12.3295L6.16541 12.2193L6.20961 12.1094L6.25497 11.9998L6.30147 11.8907L6.34912 11.7819L6.39792 11.6736L6.44785 11.5657L6.49892 11.4582L6.55112 11.3511L6.60445 11.2446L6.65891 11.1384L6.71449 11.0328L6.77117 10.9276L6.82898 10.823L6.88789 10.7188L6.9479 10.6151L7.00901 10.5121L7.07122 10.4095L7.13451 10.3075L7.19889 10.2061L7.26433 10.1052L7.33089 10.005L7.39841 9.90528L7.46713 9.80624L7.53681 9.70776L7.60753 9.60992L7.67937 9.5128L7.75217 9.41624L7.82609 9.3204L7.90097 9.2252L7.97689 9.13072L8.05377 9.03696L8.13169 8.94384L8.21065 8.85144L8.29057 8.75976L8.37145 8.66888L8.45337 8.57872L8.53617 8.48928L8.62001 8.40064L8.70481 8.31272L8.79049 8.22568L8.87713 8.13936L8.96473 8.05384L9.05329 7.9692L9.14273 7.88528L9.23305 7.80232L9.32433 7.72008L9.41649 7.6388L9.50945 7.55832L9.60337 7.47872L9.69817 7.4L9.79377 7.32216L9.89025 7.2452L9.98761 7.1692L10.0858 7.09408L10.1847 7.01992L10.2846 6.94664L10.3851 6.87432L10.4865 6.80296L10.5887 6.73256L10.6917 6.66312L10.7954 6.59472L10.8999 6.5272L11.0051 6.46072L11.1111 6.39523L11.2179 6.33074L11.3253 6.26727L11.4334 6.20482L11.5423 6.1434L11.6518 6.08301L11.7619 6.02367L11.8728 5.96538L11.9843 5.90815L12.0965 5.85198L12.2093 5.79689L12.3227 5.74287L12.4368 5.68994L12.5515 5.6381L12.6667 5.58736L12.7826 5.53773L12.899 5.48921L13.0159 5.4418L13.1334 5.39552L13.2515 5.35037L13.37 5.30635L13.4891 5.26348L13.6087 5.22175L13.7288 5.18118L13.8494 5.14176L13.9703 5.10351L14.0919 5.06642L14.2138 5.03051L14.3362 4.99578L14.4589 4.96223L14.5821 4.92987L14.7057 4.8987L14.8297 4.86874L14.954 4.83998L15.0787 4.81241L15.2038 4.78606L15.3291 4.76092L15.4549 4.73701L15.5809 4.71431L15.7072 4.69284L15.8339 4.6726L15.9607 4.65359L16.0879 4.63582L16.2152 4.61929L16.2627 4.61359ZM16.3165 9.14888L16.2799 6.05751L16.1755 6.0721L16.0632 6.08893L15.9509 6.10687L15.8393 6.12584L15.7275 6.14597L15.6163 6.16713L15.5054 6.18938L15.3948 6.21266L15.2845 6.23706L15.1744 6.26253L15.0647 6.28905L14.9554 6.31662L14.8462 6.34529L14.7413 6.37392L14.6295 6.40568L14.5216 6.43744L14.4142 6.47024L14.3073 6.504L14.2007 6.53888L14.0944 6.5748L13.9887 6.61168L13.8835 6.64952L13.7787 6.68848L13.6743 6.72832L13.5704 6.76928L13.4673 6.81112L13.3642 6.85408L13.2619 6.89792L13.16 6.94272L13.0589 6.98848L12.958 7.03528L12.8577 7.08304L12.7583 7.1316L12.659 7.18128L12.5607 7.23176L12.4627 7.28336L12.3655 7.3356L12.2686 7.38912L12.1726 7.4432L12.0772 7.49832L11.9823 7.5544L11.8882 7.61128L11.7945 7.6692L11.7018 7.72776L11.6095 7.78736L11.518 7.84776L11.4272 7.90896L11.3371 7.97112L11.2475 8.03416L11.1589 8.09776L11.0708 8.16248L10.9835 8.22792L10.8969 8.29416L10.8111 8.36112L10.7259 8.42904L10.6417 8.4976L10.5582 8.56696L10.4753 8.63728L10.3935 8.70808L10.3122 8.77984L10.2317 8.85232L10.1521 8.92544L10.0734 8.99928L9.99521 9.074L9.91817 9.1492L9.84185 9.2252L9.76625 9.302L9.69161 9.37936L9.61777 9.45752L9.54481 9.53624L9.47273 9.6156L9.40145 9.69568L9.33097 9.77648L9.26169 9.85768L9.19305 9.93968L9.12529 10.0223L9.05849 10.1054L8.99265 10.1891L8.92753 10.2736L8.86345 10.3585L8.80025 10.444L8.73801 10.5301L8.67665 10.6167L8.61633 10.7038L8.55689 10.7914L8.49833 10.8797L8.44073 10.9684L8.38417 11.0575L8.32857 11.1472L8.27385 11.2375L8.22009 11.3281L8.16737 11.4192L8.11553 11.5108L8.06481 11.6026L8.01497 11.6951L7.96601 11.7881L7.91825 11.8812L7.87137 11.975L7.82553 12.069L7.78065 12.1634L7.73681 12.2582L7.69393 12.3534L7.65209 12.4489L7.61121 12.5447L7.57145 12.6409L7.53265 12.7374L7.49481 12.8342L7.45801 12.9314L7.42233 13.0287L7.38753 13.1265L7.35393 13.2243L7.32121 13.3226L7.28961 13.421L7.25897 13.5198L7.22945 13.6186L7.20089 13.7178L7.17345 13.817L7.14698 13.9166L7.12157 14.0163L7.09721 14.1162L7.0739 14.2163L7.05162 14.3165L7.03038 14.4169L7.01021 14.5174L6.99107 14.6179L6.97297 14.7187L6.95594 14.8195L6.93993 14.9205L6.925 15.0214L6.91109 15.1225L6.89824 15.2236L6.88643 15.3248L6.87567 15.426L6.86596 15.5273L6.85729 15.6286L6.84968 15.7298L6.8431 15.8311L6.83757 15.9324L6.83308 16.0336L6.82964 16.1348L6.82723 16.2359L6.82587 16.337L6.82554 16.4382L6.82625 16.5391L6.82801 16.64L6.83079 16.7408L6.8346 16.8414L6.83945 16.9421L6.84532 17.0426L6.85221 17.1428L6.86014 17.243L6.86909 17.343L6.87905 17.4429L6.89004 17.5426L6.90203 17.6421L6.91505 17.7414L6.92906 17.8405L6.94409 17.9394L6.96012 18.038L6.97715 18.1365L6.99518 18.2347L7.0142 18.3326L7.03421 18.4303L7.05521 18.5277L7.0772 18.6249L7.10014 18.7216L7.12409 18.8182L7.14901 18.9144L7.17489 19.0103L7.20169 19.1058L7.22953 19.2011L7.25825 19.296L7.28801 19.3906L7.31865 19.4848L7.35025 19.5786L7.38281 19.6719L7.41625 19.765L7.45065 19.8576L7.48601 19.9498L7.52225 20.0416L7.55937 20.133L7.59745 20.2239L7.63641 20.3144L7.67633 20.4044L7.71705 20.494L7.75873 20.583L7.80129 20.6717L7.84465 20.7598L7.88897 20.8474L7.93409 20.9346L7.98009 21.0213L8.02697 21.1074L8.07465 21.193L8.12321 21.278L8.17257 21.3625L8.22281 21.4464L8.27385 21.5298L8.32569 21.6126L8.37833 21.6949L8.43185 21.7766L8.48601 21.8576L8.54113 21.9382L8.59689 22.018L8.65353 22.0973L8.71089 22.1759L8.76905 22.2539L8.82793 22.3313L8.88761 22.4081L8.94793 22.4842L9.00905 22.5596L9.07089 22.6344L9.13345 22.7086L9.19673 22.7819L9.26073 22.8548L9.32537 22.9268L9.39073 22.9982L9.45673 23.0689L9.52345 23.1389L9.59081 23.2082L9.65889 23.2767L9.72753 23.3446L9.79689 23.4117L9.86689 23.4781L9.93737 23.5437L10.0087 23.6086L10.0804 23.6727L10.1528 23.7361L10.2259 23.7987L10.2995 23.8606L10.3736 23.9217L10.4483 23.9819L10.5236 24.0414L10.5995 24.1002L10.6759 24.1582L10.7528 24.2153L10.8302 24.2716L10.9081 24.3271L10.9866 24.3818L11.0655 24.4358L11.1451 24.4889L11.225 24.5411L11.3054 24.5926L11.3863 24.6432L11.4675 24.693L11.5493 24.7419L11.6315 24.79L11.7141 24.8372L11.7972 24.8836L11.8806 24.9291L11.9645 24.9738L12.0487 25.0177L12.1333 25.0606L12.2183 25.1027L12.3038 25.1439L12.3895 25.1843L12.4755 25.2238L12.5619 25.2624L12.6486 25.3001L12.7356 25.3369L12.823 25.3729L12.9107 25.4079L12.9985 25.4421L13.0867 25.4754L13.1752 25.5078L13.2639 25.5393L13.3529 25.5698L13.4422 25.5996L13.5316 25.6283L13.6213 25.6562L13.7112 25.6832L13.8013 25.7093L13.8915 25.7345L13.982 25.7587L14.0727 25.7822L14.1635 25.8046L14.2544 25.8261L14.3455 25.8467L14.4368 25.8665L14.5282 25.8853L14.6196 25.9031L14.7113 25.9201L14.8029 25.9362L14.8947 25.9514L14.9866 25.9655L15.0785 25.9789L15.1705 25.9913L15.2625 26.0028L15.3546 26.0134L15.4467 26.023L15.5388 26.0318L15.631 26.0396L15.7231 26.0465L15.8153 26.0526L15.9074 26.0576L15.9995 26.0618L16.0916 26.0651L16.1836 26.0675L16.2755 26.069L16.3675 26.0695L16.4593 26.0692L16.5511 26.0679L16.6427 26.0658L16.7343 26.0628L16.8258 26.0589L16.9171 26.054L17.0083 26.0483L17.0993 26.0417L17.1903 26.0342L17.281 26.0258L17.3716 26.0165L17.4621 26.0063L17.5523 25.9953L17.6424 25.9834L17.7323 25.9706L17.8219 25.957L17.9114 25.9424L18.0005 25.927L18.0895 25.9107L18.1783 25.8936L18.2667 25.8757L18.3551 25.8568L18.4429 25.8371L18.5306 25.8166L18.6179 25.7952L18.7051 25.773L18.7919 25.75L18.8783 25.7261L18.9645 25.7014L19.0503 25.6758L19.1358 25.6495L19.2209 25.6223L19.3058 25.5943L19.3902 25.5655L19.4743 25.5359L19.5579 25.5055L19.6412 25.4743L19.7241 25.4423L19.8066 25.4095L19.8887 25.3759L19.9704 25.3416L20.0516 25.3065L20.1325 25.2706L20.2128 25.234L20.2928 25.1966L20.3723 25.1584L20.4512 25.1196L20.5299 25.0798L20.6079 25.0395L20.6856 24.9983L20.7626 24.9566L20.8392 24.914L20.9154 24.8707L20.9909 24.8267L21.066 24.782L21.1406 24.7366L21.2145 24.6906L21.2881 24.6438L21.3609 24.5964L21.4333 24.5482L21.5052 24.4994L21.5764 24.4499L21.647 24.3999L21.7172 24.349L21.7867 24.2978L21.8556 24.2457L21.924 24.193L21.9915 24.1398L22.0588 24.0858L22.1254 24.0312L22.1911 23.9762L22.2565 23.9202L22.3211 23.864L22.385 23.8072L22.4485 23.7495L22.5111 23.6916L22.5731 23.633L22.6346 23.5738L22.6952 23.5141L22.7553 23.4538L22.8147 23.393L22.8735 23.3316L22.9314 23.2698L22.9887 23.2074L23.0455 23.1445L23.1013 23.0812L23.1567 23.0172L23.2111 22.9529L23.2649 22.8881L23.3181 22.8226L23.3704 22.757L23.4221 22.6907L23.4731 22.6241L23.5233 22.5569L23.5727 22.4894L23.6214 22.4215L23.6695 22.353L23.7167 22.2842L23.7631 22.215L23.809 22.1454L23.8538 22.0755L23.8981 22.0051L23.9415 21.9343L23.9843 21.8633L24.0261 21.7918L24.0674 21.7199L24.1076 21.648L24.1473 21.5754L24.1861 21.5026L24.224 21.4296L24.2614 21.356L24.2977 21.2826L24.3335 21.2083L24.3682 21.1343L24.4024 21.0595L24.4355 20.9849L24.4681 20.9096L24.4998 20.8344L24.5306 20.7589L24.5607 20.683L24.5899 20.607L24.6183 20.5309L24.646 20.4543L24.6727 20.3777L24.6987 20.3009L24.7239 20.2238L24.7483 20.1466L24.7719 20.0692L24.7947 19.9918L24.8166 19.914L24.8376 19.8362L24.8579 19.7582L24.8774 19.6802L24.896 19.6021L24.9139 19.5236L24.9308 19.4452L24.9471 19.3667L24.9623 19.2882L24.9769 19.2096L24.9906 19.1306L25.0035 19.052L25.0155 18.9731L25.0267 18.8942L25.0371 18.8154L25.0467 18.7364L25.0555 18.6572L25.0635 18.5786L25.0707 18.4993L25.077 18.4203L25.0824 18.3415L25.0871 18.2625L25.091 18.1836L25.094 18.1048L25.0963 18.0258L25.0976 17.9472L25.0983 17.8683L25.098 17.7897L25.0971 17.711L25.0952 17.6327L25.0926 17.5542L25.0891 17.4759L25.0849 17.3979L25.0799 17.3197L25.074 17.2417L25.0675 17.1641L25.06 17.0862L25.0518 17.0089L25.0427 16.9314L25.033 16.8542L25.0224 16.7772L25.0111 16.7002L24.9989 16.6236L24.986 16.5472L24.9723 16.471L24.9579 16.395L24.9426 16.3189L24.9266 16.2434L24.9099 16.1681L24.8923 16.0929L24.874 16.0178L24.8551 15.9434L24.8352 15.8688L24.8147 15.7948L24.7935 15.7209L24.7715 15.6474L24.7487 15.5741L24.7252 15.501L24.7011 15.4285L24.6762 15.3562L24.6504 15.2839L24.6242 15.2123L24.5971 15.1409L24.5693 15.0699L24.5408 14.9991L24.5116 14.9286L24.4818 14.8588L24.4511 14.789L24.4199 14.7198L24.388 14.651L24.3554 14.5824L24.322 14.5142L24.2882 14.4466L24.2535 14.3791L24.2183 14.3123L24.1823 14.2459L24.1457 14.1796L24.1086 14.1141L24.0707 14.0488L24.0322 13.9841L23.993 13.9196L23.9534 13.8558L23.9129 13.7922L23.872 13.7294L23.8304 13.6669L23.7883 13.6049L23.7454 13.5432L23.702 13.4822L23.6582 13.4217L23.6135 13.3614L23.5685 13.3019L23.5227 13.2428L23.4767 13.1843L23.4298 13.1262L23.3824 13.0686L23.3345 13.0116L23.2861 12.955L23.2372 12.8992L23.1876 12.8437L23.1377 12.7889L23.0871 12.7345L23.0363 12.6809L22.9846 12.6275L22.9327 12.575L22.88 12.5227L22.8271 12.4713L22.7737 12.4204L22.7198 12.37L22.6653 12.3202L22.6104 12.271L22.5551 12.2225L22.4992 12.1743L22.4433 12.1271L22.3866 12.0802L22.3295 12.034L22.2721 11.9885L22.2142 11.9434L22.1559 11.899L22.0975 11.8554L22.0383 11.8122L21.9787 11.7696L21.9191 11.7279L21.8587 11.6866L21.7983 11.6462L21.7375 11.6062L21.6762 11.5668L21.6145 11.5281L21.5527 11.4902L21.4903 11.4527L21.4279 11.4161L21.3648 11.3799L21.3019 11.3446L21.2383 11.3099L21.1745 11.2758L21.1104 11.2423L21.0462 11.2097L20.9815 11.1775L20.9166 11.1461L20.8515 11.1154L20.7863 11.0854L20.7204 11.0558L20.6548 11.0272L20.5887 10.9992L20.5223 10.9718L20.4559 10.9451L20.3893 10.9192L20.3224 10.8939L20.2551 10.8692L20.188 10.8454L20.1205 10.8221L20.0528 10.7995L19.9852 10.7777L19.9173 10.7566L19.8494 10.7361L19.7809 10.7162L19.7127 10.6972L19.6443 10.6788L19.5757 10.6611L19.5071 10.6441L19.4381 10.6278L19.3693 10.6122L19.3005 10.5973L19.2314 10.583L19.1621 10.5694L19.0932 10.5567L19.0239 10.5446L18.9547 10.5331L18.8851 10.5223L18.816 10.5123L18.7463 10.5029L18.6771 10.4943L18.6077 10.4863L18.5383 10.479L18.4689 10.4725L18.3994 10.4666L18.3302 10.4614L18.2606 10.4569L18.1913 10.453L18.1222 10.4499L18.0526 10.4474L17.9835 10.4457L17.9144 10.4446L17.8454 10.4442L17.7982 10.4444L17.8339 13.4647L17.8553 13.4648L17.895 13.4654L17.9347 13.4663L17.9746 13.4676L18.0144 13.4694L18.0543 13.4716L18.0943 13.4742L18.1343 13.4772L18.1743 13.4806L18.2143 13.4845L18.2544 13.4887L18.2945 13.4934L18.3347 13.4985L18.3747 13.504L18.4149 13.5099L18.4551 13.5163L18.4952 13.5231L18.5353 13.5303L18.5755 13.538L18.6155 13.546L18.6556 13.5546L18.6957 13.5634L18.7358 13.5728L18.7757 13.5826L18.8157 13.5927L18.8556 13.6034L18.8955 13.6144L18.9353 13.6258L18.9751 13.6378L19.0147 13.6501L19.0543 13.6629L19.0939 13.6761L19.1334 13.6897L19.1728 13.7037L19.2121 13.7182L19.2513 13.733L19.2904 13.7483L19.3295 13.7641L19.3683 13.7802L19.4071 13.7968L19.4459 13.8138L19.4844 13.8313L19.5229 13.8491L19.5612 13.8674L19.5994 13.8861L19.6375 13.9052L19.6753 13.9248L19.7131 13.9447L19.7507 13.9651L19.7881 13.9859L19.8254 14.0071L19.8625 14.0287L19.8994 14.0507L19.9362 14.0732L19.9727 14.0961L20.0091 14.1194L20.0453 14.143L20.0813 14.167L20.1171 14.1916L20.1527 14.2165L20.1881 14.2418L20.2233 14.2674L20.2583 14.2935L20.293 14.32L20.3275 14.3469L20.3618 14.3742L20.3958 14.4018L20.4295 14.4298L20.4631 14.4583L20.4964 14.4871L20.5295 14.5163L20.5623 14.5459L20.5947 14.5759L20.627 14.6062L20.6589 14.637L20.6907 14.6681L20.722 14.6995L20.7531 14.7314L20.784 14.7635L20.8145 14.7961L20.8447 14.829L20.8747 14.8623L20.9043 14.8959L20.9336 14.9299L20.9626 14.9642L20.9913 14.9989L21.0196 15.0339L21.0476 15.0693L21.0753 15.105L21.1027 15.141L21.1297 15.1774L21.1563 15.2141L21.1826 15.251L21.2086 15.2884L21.2342 15.3261L21.2594 15.3641L21.2843 15.4023L21.3088 15.441L21.3329 15.4798L21.3567 15.519L21.38 15.5586L21.403 15.5983L21.4256 15.6384L21.4478 15.6788L21.4696 15.7194L21.4911 15.7604L21.512 15.8016L21.5327 15.843L21.5528 15.8848L21.5726 15.9269L21.5919 15.9691L21.6109 16.0117L21.6295 16.0545L21.6475 16.0975L21.6652 16.1408L21.6824 16.1843L21.6992 16.2281L21.7156 16.2721L21.7315 16.3163L21.747 16.3608L21.762 16.4054L21.7766 16.4503L21.7907 16.4954L21.8043 16.5407L21.8175 16.5862L21.8303 16.632L21.8426 16.6778L21.8544 16.7239L21.8657 16.7702L21.8766 16.8167L21.887 16.8633L21.8969 16.9102L21.9063 16.9571L21.9152 17.0042L21.9237 17.0515L21.9317 17.099L21.9392 17.1465L21.9462 17.1942L21.9527 17.2421L21.9587 17.2901L21.9642 17.3382L21.9692 17.3865L21.9737 17.4348L21.9777 17.4833L21.9812 17.5319L21.9842 17.5806L21.9867 17.6294L21.9886 17.6782L21.9901 17.7272L21.991 17.7762L21.9915 17.8254L21.9913 17.8745L21.9907 17.9238L21.9896 17.9731L21.9879 18.0225L21.9858 18.0719L21.9831 18.1214L21.9799 18.1709L21.9761 18.2204L21.9718 18.27L21.967 18.3196L21.9617 18.3692L21.9558 18.4188L21.9494 18.4685L21.9425 18.5182L21.9351 18.5678L21.9271 18.6174L21.9185 18.667L21.9095 18.7166L21.8999 18.7662L21.8898 18.8157L21.8791 18.8652L21.8679 18.9146L21.8562 18.9641L21.8439 19.0134L21.8311 19.0628L21.8178 19.112L21.8039 19.1612L21.7895 19.2102L21.7745 19.2593L21.7591 19.3082L21.7431 19.357L21.7265 19.4058L21.7095 19.4545L21.6918 19.503L21.6736 19.5514L21.655 19.5997L21.6358 19.6479L21.616 19.6959L21.5958 19.7438L21.575 19.7916L21.5536 19.8393L21.5318 19.8867L21.5094 19.934L21.4864 19.9812L21.4631 20.0282L21.4391 20.075L21.4146 20.1216L21.3895 20.168L21.364 20.2142L21.338 20.2603L21.3115 20.3062L21.2843 20.3518L21.2568 20.3972L21.2287 20.4425L21.2001 20.4874L21.171 20.5322L21.1413 20.5767L21.1112 20.621L21.0806 20.665L21.0495 20.7088L21.0178 20.7523L20.9857 20.7956L20.9531 20.8386L20.9199 20.8813L20.8863 20.9238L20.8523 20.9659L20.8177 21.0078L20.7827 21.0494L20.7471 21.0906L20.7111 21.1316L20.6746 21.1722L20.6376 21.2126L20.6002 21.2526L20.5623 21.2923L20.5239 21.3318L20.4851 21.3708L20.4459 21.4094L20.4062 21.4478L20.3659 21.4858L20.3253 21.5234L20.2843 21.5607L20.2427 21.5977L20.2008 21.6342L20.1584 21.6704L20.1156 21.7062L20.0723 21.7416L20.0287 21.7766L19.9846 21.8112L19.9401 21.8454L19.8952 21.8793L19.8499 21.9127L19.8042 21.9457L19.758 21.9782L19.7115 22.0105L19.6646 22.0422L19.6173 22.0735L19.5696 22.1043L19.5215 22.1348L19.4731 22.1648L19.4243 22.1943L19.3751 22.2234L19.3255 22.252L19.2756 22.2802L19.2253 22.3078L19.1747 22.3351L19.1238 22.3618L19.0725 22.3882L19.0208 22.4139L18.9689 22.4393L18.9166 22.4641L18.8639 22.4884L18.8111 22.5122L18.7578 22.5355L18.7043 22.5584L18.6504 22.5807L18.5963 22.6025L18.5418 22.6238L18.4871 22.6446L18.432 22.6648L18.3767 22.6846L18.3212 22.7038L18.2654 22.7224L18.2093 22.7406L18.153 22.7581L18.0964 22.7751L18.0395 22.7917L17.9825 22.8076L17.9252 22.823L17.8677 22.8378L17.8099 22.8522L17.7519 22.8658L17.6938 22.879L17.6354 22.8916L17.5768 22.9037L17.518 22.9151L17.4591 22.926L17.3999 22.9363L17.3406 22.9461L17.2811 22.9552L17.2215 22.9638L17.1617 22.9718L17.1017 22.9792L17.0416 22.986L16.9814 22.9922L16.921 22.9978L16.8605 23.0028L16.7999 23.0073L16.7391 23.011L16.6783 23.0143L16.6173 23.017L16.5563 23.019L16.4951 23.0203L16.4339 23.0211L16.3726 23.0214L16.3112 23.021L16.2498 23.0199L16.1883 23.0182L16.1267 23.016L16.0651 23.0131L16.0035 23.0096L15.9418 23.0055L15.8801 23.0008L15.8184 22.9954L15.7567 22.9894L15.695 22.9829L15.6332 22.9756L15.5715 22.9678L15.5098 22.9593L15.4481 22.9502L15.3864 22.9405L15.3248 22.9302L15.2632 22.9192L15.2017 22.9076L15.1402 22.8954L15.0787 22.8826L15.0174 22.8691L14.9561 22.855L14.8949 22.8402L14.8337 22.825L14.7727 22.809L14.7118 22.7923L14.6509 22.7751L14.5903 22.7573L14.5296 22.7388L14.4691 22.7197L14.4088 22.7L14.3486 22.6797L14.2886 22.6587L14.2287 22.6371L14.1689 22.6149L14.1094 22.5921L14.0499 22.5686L13.9907 22.5446L13.9317 22.5199L13.8729 22.4946L13.8143 22.4687L13.7558 22.4422L13.6976 22.4151L13.6395 22.3874L13.5818 22.359L13.5243 22.3301L13.467 22.3006L13.4099 22.2704L13.3531 22.2397L13.2966 22.2083L13.2403 22.1764L13.1843 22.1438L13.1286 22.1107L13.0731 22.077L13.018 22.0427L12.9631 22.0078L12.9086 21.9724L12.8543 21.9363L12.8004 21.8997L12.7469 21.8625L12.6936 21.8247L12.6407 21.7864L12.5881 21.7474L12.5359 21.708L12.484 21.668L12.4325 21.6274L12.3814 21.5862L12.3306 21.5446L12.2802 21.5023L12.2302 21.4595L12.1806 21.4162L12.1314 21.3723L12.0826 21.3279L12.0342 21.283L11.9862 21.2375L11.9387 21.1915L11.8915 21.145L11.8448 21.098L11.7986 21.0505L11.7527 21.0024L11.7074 20.9539L11.6625 20.9048L11.6181 20.8553L11.5741 20.8053L11.5307 20.7547L11.4876 20.7038L11.4451 20.6522L11.4031 20.6002L11.3615 20.5478L11.3205 20.495L11.2799 20.4416L11.2399 20.3878L11.2005 20.3335L11.1615 20.2788L11.1231 20.2236L11.0851 20.168L11.0478 20.112L11.011 20.0555L10.9747 19.9986L10.939 19.9414L10.9039 19.8837L10.8692 19.8255L10.8352 19.767L10.8018 19.7081L10.7689 19.6488L10.7366 19.5891L10.7049 19.529L10.6738 19.4686L10.6432 19.4078L10.6133 19.3466L10.584 19.285L10.5553 19.2232L10.5272 19.161L10.4998 19.0984L10.4729 19.0354L10.4467 18.9722L10.4211 18.9086L10.3961 18.8448L10.3718 18.7806L10.3482 18.7161L10.3251 18.6513L10.3027 18.5862L10.281 18.5209L10.2599 18.4552L10.2395 18.3893L10.2198 18.3231L10.2007 18.2566L10.1823 18.1899L10.1646 18.123L10.1475 18.0558L10.1311 17.9883L10.1155 17.9207L10.1004 17.8528L10.0861 17.7847L10.0725 17.7164L10.0595 17.6479L10.0473 17.5792L10.0358 17.5103L10.025 17.4413L10.0148 17.372L10.0054 17.3026L9.99673 17.233L9.98873 17.1634L9.98145 17.0934L9.97489 17.0234L9.96905 16.9533L9.96393 16.883L9.95953 16.8126L9.95585 16.7422L9.95289 16.6716L9.95065 16.6009L9.94921 16.5301L9.94849 16.4593L9.94841 16.3883L9.94913 16.3173L9.95065 16.2462L9.95281 16.1751L9.95577 16.1039L9.95945 16.0327L9.96385 15.9615L9.96897 15.8902L9.97489 15.819L9.98153 15.7477L9.98889 15.6764L9.99705 15.6051L10.0059 15.5338L10.0155 15.4626L10.0259 15.3914L10.0371 15.3202L10.049 15.2491L10.0615 15.178L10.0749 15.107L10.0891 15.036L10.1039 14.9651L10.1195 14.8943L10.1359 14.8236L10.153 14.753L10.1708 14.6825L10.1895 14.6121L10.2088 14.5418L10.2289 14.4717L10.2497 14.4016L10.2713 14.3318L10.2936 14.262L10.3167 14.1924L10.3405 14.123L10.3651 14.0538L10.3903 13.9847L10.4163 13.9158L10.4431 13.8472L10.4707 13.7787L10.4989 13.7104L10.5279 13.6424L10.5575 13.5746L10.588 13.507L10.6191 13.4396L10.6511 13.3725L10.6836 13.3057L10.717 13.239L10.751 13.1727L10.7858 13.1067L10.8212 13.041L10.8575 12.9755L10.8943 12.9103L10.9319 12.8454L10.9703 12.781L11.0093 12.7167L11.049 12.6528L11.0895 12.5893L11.1306 12.526L11.1723 12.4631L11.2148 12.4006L11.258 12.3385L11.3019 12.2767L11.3464 12.2154L11.3916 12.1543L11.4375 12.0937L11.484 12.0335L11.5312 11.9737L11.5791 11.9143L11.6277 11.8553L11.6768 11.7968L11.7267 11.7386L11.7771 11.681L11.8283 11.6238L11.88 11.567L11.9324 11.5107L11.9855 11.4549L12.0391 11.3995L12.0934 11.3446L12.1483 11.2902L12.2038 11.2363L12.2599 11.183L12.3166 11.1301L12.3739 11.0777L12.4317 11.0258L12.4902 10.9745L12.5493 10.9238L12.6089 10.8734L12.6691 10.8238L12.7299 10.7746L12.7912 10.726L12.8531 10.678L12.9155 10.6306L12.9785 10.5837L13.042 10.5374L13.1061 10.4917L13.1707 10.4466L13.2358 10.402L13.3015 10.3581L13.3675 10.3148L13.4342 10.2722L13.5014 10.2301L13.569 10.1886L13.6371 10.1478L13.7057 10.1077L13.7748 10.0682L13.8443 10.0293L13.9143 9.99104L13.9848 9.95352L14.0557 9.91664L14.1271 9.8804L14.1988 9.84488L14.2711 9.81L14.3437 9.77584L14.4167 9.74232L14.4902 9.70952L14.564 9.67744L14.6383 9.646L14.713 9.61528L14.7879 9.58536L14.8634 9.55608L14.9391 9.52752L15.0152 9.49968L15.0917 9.47264L15.1686 9.44624L15.2457 9.42064L15.3232 9.39576L15.401 9.3716L15.4791 9.34824L15.5575 9.3256L15.6363 9.30376L15.7153 9.28264L15.7946 9.26224L15.8742 9.24264L15.954 9.22384L16.0342 9.20584L16.1145 9.18856L16.1951 9.17208L16.2759 9.1564L16.3165 9.14888ZM17.31 14.9571L16.3879 15.1774L16.3338 10.6098L16.2903 10.6196L16.2249 10.635L16.1595 10.6511L16.0947 10.6678L16.0299 10.685L15.9655 10.703L15.9011 10.7216L15.8373 10.7406L15.7734 10.7605L15.7103 10.7807L15.647 10.8018L15.5841 10.8234L15.5215 10.8455L15.4592 10.8682L15.3975 10.8915L15.3358 10.9155L15.2744 10.94L15.2135 10.965L15.1526 10.9908L15.0925 11.0169L15.0324 11.0438L14.9729 11.071L14.9135 11.099L14.8546 11.1274L14.7959 11.1565L14.7378 11.186L14.6799 11.2161L14.6225 11.2467L14.5655 11.2778L14.5087 11.3095L14.4524 11.3418L14.3967 11.3744L14.341 11.4078L14.2859 11.4414L14.2314 11.4757L14.1771 11.5104L14.1232 11.5457L14.0699 11.5814L14.0169 11.6177L13.9643 11.6543L13.9123 11.6914L13.8606 11.7291L13.8094 11.7673L13.7587 11.8058L13.7083 11.8449L13.6586 11.8842L13.6093 11.9242L13.5603 11.9646L13.5119 12.0054L13.464 12.0466L13.4166 12.0882L13.3696 12.1302L13.3231 12.1727L13.2771 12.2157L13.2317 12.259L13.1867 12.3026L13.1422 12.3467L13.0983 12.3911L13.0548 12.436L13.0119 12.4811L12.9694 12.5269L12.9275 12.5727L12.8862 12.619L12.8453 12.6658L12.8051 12.7126L12.7652 12.7601L12.7261 12.8076L12.6873 12.8558L12.6492 12.904L12.6115 12.9527L12.5745 13.0018L12.538 13.051L12.502 13.1005L12.4667 13.1503L12.4318 13.2006L12.3975 13.251L12.3638 13.3018L12.3307 13.3526L12.2981 13.4038L12.266 13.4554L12.2347 13.5071L12.2037 13.5593L12.1735 13.6114L12.1437 13.6639L12.1145 13.7166L12.086 13.7695L12.058 13.8226L12.0307 13.876L12.0038 13.9297L11.9776 13.9833L11.9519 14.0374L11.9269 14.0914L11.9025 14.1458L11.8786 14.2002L11.8553 14.255L11.8327 14.3097L11.8106 14.3647L11.7891 14.4198L11.7682 14.4751L11.7479 14.5304L11.7283 14.586L11.7091 14.6417L11.6907 14.6974L11.6727 14.7533L11.6555 14.8094L11.6387 14.8654L11.6227 14.9215L11.6072 14.9778L11.5923 15.0342L11.578 15.0906L11.5643 15.1471L11.5512 15.2037L11.5387 15.2603L11.5269 15.317L11.5156 15.3737L11.5049 15.4304L11.4948 15.4873L11.4854 15.544L11.4765 15.6008L11.4682 15.6578L11.4605 15.7145L11.4535 15.7714L11.447 15.8282L11.4411 15.885L11.4358 15.942L11.4311 15.9987L11.427 16.0555L11.4235 16.1123L11.4205 16.169L11.4182 16.2256L11.4164 16.2822L11.4153 16.3388L11.4147 16.3953L11.4147 16.4517L11.4153 16.508L11.4165 16.5643L11.4183 16.6205L11.4206 16.6766L11.4235 16.7326L11.427 16.7884L11.4311 16.8442L11.4357 16.8998L11.4409 16.9554L11.4467 17.0109L11.453 17.066L11.4599 17.1213L11.4673 17.1762L11.4754 17.2311L11.4839 17.2858L11.4931 17.3403L11.5027 17.3948L11.513 17.449L11.5238 17.503L11.5351 17.5568L11.547 17.6106L11.5594 17.664L11.5723 17.7174L11.5858 17.7703L11.5999 17.8234L11.6143 17.8759L11.6294 17.9285L11.645 17.9806L11.6611 18.0327L11.6777 18.0845L11.6948 18.1359L11.7125 18.1874L11.7307 18.2384L11.7493 18.2891L11.7684 18.3398L11.7881 18.3901L11.8083 18.4401L11.8289 18.4898L11.8499 18.5393L11.8716 18.5886L11.8937 18.6375L11.9163 18.6862L11.9393 18.7345L11.9627 18.7825L11.9868 18.8304L12.0111 18.8778L12.036 18.9249L12.0614 18.9718L12.0872 19.0182L12.1135 19.0645L12.1401 19.1104L12.1672 19.1558L12.1948 19.2011L12.2227 19.246L12.2511 19.2905L12.28 19.3347L12.3092 19.3786L12.3389 19.4222L12.3689 19.4651L12.3994 19.508L12.4303 19.5504L12.4615 19.5924L12.4932 19.6342L12.5252 19.6754L12.5576 19.7163L12.5904 19.7569L12.6236 19.7971L12.6571 19.8368L12.6911 19.8762L12.7253 19.9153L12.7599 19.9538L12.795 19.9921L12.8302 20.0298L12.8659 20.0673L12.9019 20.1042L12.9381 20.1408L12.9748 20.177L13.0118 20.2127L13.0491 20.2481L13.0867 20.283L13.1246 20.3174L13.1628 20.3515L13.2013 20.3851L13.2401 20.4183L13.2791 20.4511L13.3185 20.4834L13.3582 20.5154L13.3982 20.5468L13.4383 20.5778L13.4787 20.6083L13.5195 20.6385L13.5604 20.6682L13.6016 20.6974L13.6431 20.7262L13.6847 20.7545L13.7267 20.7823L13.7687 20.8097L13.8111 20.8366L13.8538 20.8632L13.8965 20.8891L13.9395 20.9147L13.9827 20.9398L14.026 20.9644L14.0695 20.9886L14.1135 21.0123L14.1574 21.0355L14.2015 21.0582L14.2457 21.0805L14.2903 21.1023L14.3347 21.1236L14.3796 21.1445L14.4245 21.1649L14.4695 21.1847L14.5147 21.2042L14.5601 21.2231L14.6055 21.2416L14.6511 21.2596L14.6967 21.277L14.7427 21.2941L14.7884 21.3106L14.8346 21.3267L14.8806 21.3422L14.9267 21.3574L14.9731 21.372L15.0195 21.3862L15.0659 21.3998L15.1123 21.413L15.159 21.4256L15.2056 21.4378L15.2523 21.4495L15.299 21.4608L15.3457 21.4715L15.3925 21.4818L15.4394 21.4916L15.4863 21.5009L15.5331 21.5098L15.58 21.5181L15.627 21.526L15.6739 21.5334L15.7209 21.5403L15.7677 21.5467L15.8147 21.5526L15.8615 21.5582L15.9085 21.5632L15.9554 21.5677L16.0023 21.5718L16.0491 21.5754L16.0958 21.5785L16.1426 21.5811L16.1892 21.5833L16.2358 21.585L16.2825 21.5862L16.3289 21.587L16.3753 21.5874L16.4217 21.5872L16.4679 21.5866L16.5143 21.5855L16.5604 21.584L16.6063 21.5821L16.6523 21.5796L16.6983 21.5767L16.7439 21.5734L16.7895 21.5696L16.835 21.5654L16.8804 21.5607L16.9257 21.5555L16.9707 21.55L17.0159 21.544L17.0607 21.5375L17.1053 21.5306L17.15 21.5234L17.1944 21.5156L17.2387 21.5074L17.2828 21.4988L17.3268 21.4898L17.3705 21.4803L17.414 21.4705L17.4575 21.4602L17.5008 21.4494L17.5439 21.4384L17.5867 21.4269L17.6294 21.415L17.672 21.4026L17.7143 21.3898L17.7562 21.3767L17.7983 21.3631L17.8399 21.3492L17.8813 21.335L17.9225 21.3202L17.9635 21.3051L18.0043 21.2896L18.0449 21.2738L18.0851 21.2575L18.1252 21.241L18.1651 21.2239L18.2047 21.2066L18.2439 21.1889L18.2831 21.1708L18.3219 21.1524L18.3604 21.1336L18.3988 21.1145L18.4367 21.095L18.4746 21.0752L18.5121 21.055L18.5493 21.0345L18.5862 21.0137L18.6229 20.9925L18.6593 20.971L18.6953 20.9491L18.7311 20.927L18.7666 20.9045L18.8018 20.8818L18.8367 20.8586L18.8713 20.8353L18.9056 20.8115L18.9396 20.7875L18.9732 20.7633L19.0066 20.7386L19.0396 20.7138L19.0723 20.6886L19.1047 20.6631L19.1369 20.6374L19.1686 20.6114L19.2 20.5852L19.2311 20.5586L19.2618 20.5318L19.2923 20.5048L19.3223 20.4774L19.3521 20.4499L19.3814 20.4222L19.4105 20.3941L19.4392 20.3658L19.4676 20.3373L19.4956 20.3086L19.5232 20.2795L19.5505 20.2504L19.5775 20.2209L19.604 20.1914L19.6303 20.1614L19.6562 20.1314L19.6816 20.1012L19.7069 20.0706L19.7315 20.0401L19.756 20.0092L19.7801 19.9782L19.8037 19.947L19.8271 19.9156L19.8499 19.8842L19.8725 19.8523L19.8947 19.8204L19.9165 19.7885L19.9379 19.7562L19.9591 19.7238L19.9796 19.6914L19.9999 19.6587L20.0199 19.6259L20.0394 19.593L20.0586 19.5599L20.0773 19.5267L20.0957 19.4934L20.1137 19.4599L20.1313 19.4265L20.1485 19.3928L20.1654 19.359L20.1819 19.3252L20.1979 19.2911L20.2136 19.2571L20.2289 19.223L20.2438 19.1888L20.2583 19.1544L20.2724 19.1201L20.2863 19.0854L20.2995 19.0511L20.3126 19.0162L20.3251 18.9819L20.3373 18.947L20.3491 18.9122L20.3605 18.8774L20.3715 18.8426L20.3822 18.8078L20.3925 18.7726L20.4023 18.7378L20.4119 18.7026L20.4209 18.6678L20.4296 18.6326L20.4379 18.5974L20.4459 18.5625L20.4534 18.5276L20.4606 18.4922L20.4674 18.4573L20.4738 18.422L20.4798 18.3871L20.4855 18.3521L20.4907 18.317L20.4956 18.2818L20.5001 18.2468L20.5043 18.2119L20.508 18.1771L20.5114 18.142L20.5144 18.1072L20.5171 18.0723L20.5193 18.0375L20.5212 18.0028L20.5227 17.9682L20.5239 17.9337L20.5247 17.899L20.5251 17.8643L20.5252 17.83L20.5249 17.7957L20.5243 17.7614L20.5232 17.7273L20.5219 17.693L20.5201 17.6593L20.518 17.6249L20.5156 17.5914L20.5128 17.5577L20.5097 17.5238L20.5062 17.4902L20.5024 17.457L20.4982 17.4234L20.4937 17.3904L20.4888 17.3572L20.4837 17.3245L20.4781 17.2914L20.4723 17.2586L20.4661 17.2262L20.4596 17.1938L20.4527 17.1613L20.4455 17.1292L20.4381 17.0971L20.4303 17.0653L20.4222 17.0337L20.4136 17.0018L20.405 16.9706L20.3959 16.9391L20.3865 16.9082L20.3768 16.8772L20.3668 16.8465L20.3565 16.8158L20.3459 16.7853L20.3351 16.7552L20.3239 16.7252L20.3123 16.6951L20.3006 16.6655L20.2885 16.6358L20.2763 16.6067L20.2635 16.5774L20.2507 16.5485L20.2375 16.5198L20.2241 16.4912L20.2104 16.4629L20.1964 16.4347L20.1822 16.4067L20.1677 16.379L20.1529 16.3515L20.1379 16.3242L20.1227 16.2971L20.1071 16.2702L20.0914 16.2436L20.0754 16.2172L20.0591 16.1909L20.0426 16.165L20.0259 16.1393L20.0089 16.1138L19.9917 16.0884L19.9743 16.0634L19.9567 16.0386L19.9388 16.014L19.9207 15.9897L19.9024 15.9656L19.884 15.9418L19.8652 15.9181L19.8463 15.8948L19.8272 15.8717L19.8079 15.8488L19.7884 15.8262L19.7688 15.8038L19.7489 15.7818L19.7288 15.7599L19.7086 15.7382L19.6882 15.717L19.6675 15.6959L19.6467 15.675L19.6259 15.6546L19.6047 15.6343L19.5835 15.6143L19.5619 15.5945L19.5405 15.575L19.5187 15.5558L19.4969 15.5369L19.4748 15.5182L19.4527 15.4998L19.4303 15.4817L19.4079 15.4638L19.3854 15.4462L19.3627 15.4289L19.3399 15.4119L19.3169 15.3951L19.2938 15.3786L19.2707 15.3625L19.2474 15.3465L19.224 15.3309L19.2005 15.3155L19.1768 15.3004L19.1532 15.2856L19.1293 15.271L19.1055 15.2568L19.0815 15.2429L19.0575 15.2292L19.0332 15.2158L19.0091 15.2026L18.9848 15.1898L18.9604 15.1772L18.9361 15.165L18.9115 15.1529L18.887 15.1412L18.8623 15.1298L18.8377 15.1186L18.813 15.1078L18.7881 15.0971L18.7635 15.0869L18.7385 15.0769L18.7135 15.0671L18.6887 15.0577L18.6637 15.0485L18.6387 15.0396L18.6137 15.031L18.5887 15.0226L18.5637 15.0146L18.5386 15.0067L18.5135 14.9992L18.4885 14.992L18.4632 14.985L18.4383 14.9784L18.4131 14.972L18.388 14.9658L18.3629 14.96L18.3379 14.9544L18.3127 14.9491L18.2877 14.9441L18.2627 14.9393L18.2378 14.9348L18.2127 14.9306L18.1879 14.9266L18.1627 14.923L18.138 14.9195L18.1131 14.9163L18.0883 14.9134L18.0636 14.9108L18.0388 14.9085L18.0142 14.9063L17.9895 14.9045L17.965 14.9029L17.9404 14.9015L17.9159 14.9005L17.8917 14.8997L17.8673 14.899L17.8431 14.8987L17.8188 14.8986L17.7947 14.8989L17.7707 14.8993L17.7467 14.8999L17.7228 14.9009L17.6991 14.902L17.6753 14.9034L17.6518 14.905L17.6283 14.9069L17.6048 14.909L17.5815 14.9114L17.5582 14.9139L17.5351 14.9167L17.5121 14.9198L17.4892 14.923L17.4663 14.9266L17.4437 14.9302L17.4211 14.9342L17.3987 14.9383L17.3763 14.9427L17.3541 14.9473L17.3319 14.9521L17.31 14.9571Z" fill="#94A3B8"/>
<path d="M49.5664 19.5352C49.5664 19.2305 49.5195 18.957 49.4258 18.7148C49.3398 18.4648 49.1758 18.2383 48.9336 18.0352C48.6914 17.8242 48.3516 17.6172 47.9141 17.4141C47.4766 17.2109 46.9102 17 46.2148 16.7812C45.4414 16.5312 44.707 16.25 44.0117 15.9375C43.3242 15.625 42.7148 15.2617 42.1836 14.8477C41.6602 14.4258 41.2461 13.9375 40.9414 13.3828C40.6445 12.8281 40.4961 12.1836 40.4961 11.4492C40.4961 10.7383 40.6523 10.0938 40.9648 9.51562C41.2773 8.92969 41.7148 8.42969 42.2773 8.01562C42.8398 7.59375 43.5039 7.26953 44.2695 7.04297C45.043 6.81641 45.8906 6.70312 46.8125 6.70312C48.0703 6.70312 49.168 6.92969 50.1055 7.38281C51.043 7.83594 51.7695 8.45703 52.2852 9.24609C52.8086 10.0352 53.0703 10.9375 53.0703 11.9531H49.5781C49.5781 11.4531 49.4727 11.0156 49.2617 10.6406C49.0586 10.2578 48.7461 9.95703 48.3242 9.73828C47.9102 9.51953 47.3867 9.41016 46.7539 9.41016C46.1445 9.41016 45.6367 9.50391 45.2305 9.69141C44.8242 9.87109 44.5195 10.1172 44.3164 10.4297C44.1133 10.7344 44.0117 11.0781 44.0117 11.4609C44.0117 11.75 44.082 12.0117 44.2227 12.2461C44.3711 12.4805 44.5898 12.6992 44.8789 12.9023C45.168 13.1055 45.5234 13.2969 45.9453 13.4766C46.3672 13.6562 46.8555 13.832 47.4102 14.0039C48.3398 14.2852 49.1562 14.6016 49.8594 14.9531C50.5703 15.3047 51.1641 15.6992 51.6406 16.1367C52.1172 16.5742 52.4766 17.0703 52.7188 17.625C52.9609 18.1797 53.082 18.8086 53.082 19.5117C53.082 20.2539 52.9375 20.918 52.6484 21.5039C52.3594 22.0898 51.9414 22.5859 51.3945 22.9922C50.8477 23.3984 50.1953 23.707 49.4375 23.918C48.6797 24.1289 47.832 24.2344 46.8945 24.2344C46.0508 24.2344 45.2188 24.125 44.3984 23.9062C43.5781 23.6797 42.832 23.3398 42.1602 22.8867C41.4961 22.4336 40.9648 21.8555 40.5664 21.1523C40.168 20.4492 39.9688 19.6172 39.9688 18.6562H43.4961C43.4961 19.1875 43.5781 19.6367 43.7422 20.0039C43.9062 20.3711 44.1367 20.668 44.4336 20.8945C44.7383 21.1211 45.0977 21.2852 45.5117 21.3867C45.9336 21.4883 46.3945 21.5391 46.8945 21.5391C47.5039 21.5391 48.0039 21.4531 48.3945 21.2812C48.793 21.1094 49.0859 20.8711 49.2734 20.5664C49.4688 20.2617 49.5664 19.918 49.5664 19.5352ZM66.8516 13.8867V16.6289H57.9453V13.8867H66.8516ZM58.9883 6.9375V24H55.4727V6.9375H58.9883ZM69.3594 6.9375V24H65.8555V6.9375H69.3594ZM83.8672 21.2578V24H74.7852V21.2578H83.8672ZM75.9336 6.9375V24H72.418V6.9375H75.9336ZM82.6836 13.8867V16.5586H74.7852V13.8867H82.6836ZM83.8555 6.9375V9.69141H74.7852V6.9375H83.8555ZM96.8867 21.2578V24H88.2969V21.2578H96.8867ZM89.4336 6.9375V24H85.918V6.9375H89.4336ZM109.871 21.2578V24H101.281V21.2578H109.871ZM102.418 6.9375V24H98.9023V6.9375H102.418ZM120.77 19.5352C120.77 19.2305 120.723 18.957 120.629 18.7148C120.543 18.4648 120.379 18.2383 120.137 18.0352C119.895 17.8242 119.555 17.6172 119.117 17.4141C118.68 17.2109 118.113 17 117.418 16.7812C116.645 16.5312 115.91 16.25 115.215 15.9375C114.527 15.625 113.918 15.2617 113.387 14.8477C112.863 14.4258 112.449 13.9375 112.145 13.3828C111.848 12.8281 111.699 12.1836 111.699 11.4492C111.699 10.7383 111.855 10.0938 112.168 9.51562C112.48 8.92969 112.918 8.42969 113.48 8.01562C114.043 7.59375 114.707 7.26953 115.473 7.04297C116.246 6.81641 117.094 6.70312 118.016 6.70312C119.273 6.70312 120.371 6.92969 121.309 7.38281C122.246 7.83594 122.973 8.45703 123.488 9.24609C124.012 10.0352 124.273 10.9375 124.273 11.9531H120.781C120.781 11.4531 120.676 11.0156 120.465 10.6406C120.262 10.2578 119.949 9.95703 119.527 9.73828C119.113 9.51953 118.59 9.41016 117.957 9.41016C117.348 9.41016 116.84 9.50391 116.434 9.69141C116.027 9.87109 115.723 10.1172 115.52 10.4297C115.316 10.7344 115.215 11.0781 115.215 11.4609C115.215 11.75 115.285 12.0117 115.426 12.2461C115.574 12.4805 115.793 12.6992 116.082 12.9023C116.371 13.1055 116.727 13.2969 117.148 13.4766C117.57 13.6562 118.059 13.832 118.613 14.0039C119.543 14.2852 120.359 14.6016 121.062 14.9531C121.773 15.3047 122.367 15.6992 122.844 16.1367C123.32 16.5742 123.68 17.0703 123.922 17.625C124.164 18.1797 124.285 18.8086 124.285 19.5117C124.285 20.2539 124.141 20.918 123.852 21.5039C123.562 22.0898 123.145 22.5859 122.598 22.9922C122.051 23.3984 121.398 23.707 120.641 23.918C119.883 24.1289 119.035 24.2344 118.098 24.2344C117.254 24.2344 116.422 24.125 115.602 23.9062C114.781 23.6797 114.035 23.3398 113.363 22.8867C112.699 22.4336 112.168 21.8555 111.77 21.1523C111.371 20.4492 111.172 19.6172 111.172 18.6562H114.699C114.699 19.1875 114.781 19.6367 114.945 20.0039C115.109 20.3711 115.34 20.668 115.637 20.8945C115.941 21.1211 116.301 21.2852 116.715 21.3867C117.137 21.4883 117.598 21.5391 118.098 21.5391C118.707 21.5391 119.207 21.4531 119.598 21.2812C119.996 21.1094 120.289 20.8711 120.477 20.5664C120.672 20.2617 120.77 19.918 120.77 19.5352Z" fill="#94A3B8"/>
</svg>
