<svg width="177" height="32" viewBox="0 0 177 32" fill="none" xmlns="http://www.w3.org/2000/svg">
<path d="M23.2831 26.4845L1.87045 11.714C-0.299456 10.2173 0.43817 7.10088 3.14399 6.36802L25.9018 0.191307C26.3838 0.0173566 26.9004 -0.0391112 27.4088 0.0265948C27.917 0.0923008 28.4023 0.278283 28.8243 0.569108C29.2463 0.859932 29.5929 1.24721 29.8352 1.6988C30.0775 2.15038 30.2086 2.65326 30.2177 3.16568L28.869 24.1116C28.709 26.5978 25.453 27.9812 23.2831 26.4845Z" fill="#94A3B8"/>
<path d="M16.4917 30.1296L3.87681 5.45981C3.58844 4.89545 3.46155 4.26239 3.51012 3.63048C3.55869 2.99857 3.78083 2.39234 4.15204 1.87867C4.52327 1.36499 5.02914 0.963808 5.61388 0.719365C6.19862 0.474922 6.83951 0.39672 7.46587 0.493387L30.8443 4.10153C31.3825 4.18462 31.8934 4.39427 32.3349 4.71325C32.7762 5.03224 33.1356 5.45145 33.3835 5.93641C33.6313 6.42137 33.7606 6.95822 33.7605 7.50285C33.7603 8.04746 33.6309 8.58429 33.383 9.06917L22.6135 30.1308C22.3243 30.6936 21.8855 31.1658 21.3454 31.4953C20.8053 31.825 20.1849 31.9992 19.5522 31.9991C18.9195 31.999 18.2991 31.8245 17.7591 31.4947C17.2191 31.1648 16.7806 30.6925 16.4917 30.1296Z" fill="#94A3B8"/>
<path d="M24.1812 8.72693L19.6924 8L14.1812 9.57011L16.3809 14.0856L21.5322 17.8153C21.6458 17.8966 21.7708 17.959 21.9027 18L23.8593 13.9852L24.1812 8.72693Z" fill="white"/>
<path d="M52.1665 19.5352C52.1665 19.2305 52.1196 18.957 52.0259 18.7148C51.9399 18.4648 51.7759 18.2383 51.5337 18.0352C51.2915 17.8242 50.9517 17.6172 50.5142 17.4141C50.0767 17.2109 49.5103 17 48.8149 16.7812C48.0415 16.5312 47.3071 16.25 46.6118 15.9375C45.9243 15.625 45.3149 15.2617 44.7837 14.8477C44.2603 14.4258 43.8462 13.9375 43.5415 13.3828C43.2446 12.8281 43.0962 12.1836 43.0962 11.4492C43.0962 10.7383 43.2524 10.0938 43.5649 9.51562C43.8774 8.92969 44.3149 8.42969 44.8774 8.01562C45.4399 7.59375 46.104 7.26953 46.8696 7.04297C47.6431 6.81641 48.4907 6.70312 49.4126 6.70312C50.6704 6.70312 51.7681 6.92969 52.7056 7.38281C53.6431 7.83594 54.3696 8.45703 54.8853 9.24609C55.4087 10.0352 55.6704 10.9375 55.6704 11.9531H52.1782C52.1782 11.4531 52.0728 11.0156 51.8618 10.6406C51.6587 10.2578 51.3462 9.95703 50.9243 9.73828C50.5103 9.51953 49.9868 9.41016 49.354 9.41016C48.7446 9.41016 48.2368 9.50391 47.8306 9.69141C47.4243 9.87109 47.1196 10.1172 46.9165 10.4297C46.7134 10.7344 46.6118 11.0781 46.6118 11.4609C46.6118 11.75 46.6821 12.0117 46.8228 12.2461C46.9712 12.4805 47.1899 12.6992 47.479 12.9023C47.7681 13.1055 48.1235 13.2969 48.5454 13.4766C48.9673 13.6562 49.4556 13.832 50.0103 14.0039C50.9399 14.2852 51.7563 14.6016 52.4595 14.9531C53.1704 15.3047 53.7642 15.6992 54.2407 16.1367C54.7173 16.5742 55.0767 17.0703 55.3188 17.625C55.561 18.1797 55.6821 18.8086 55.6821 19.5117C55.6821 20.2539 55.5376 20.918 55.2485 21.5039C54.9595 22.0898 54.5415 22.5859 53.9946 22.9922C53.4478 23.3984 52.7954 23.707 52.0376 23.918C51.2798 24.1289 50.4321 24.2344 49.4946 24.2344C48.6509 24.2344 47.8188 24.125 46.9985 23.9062C46.1782 23.6797 45.4321 23.3398 44.7603 22.8867C44.0962 22.4336 43.5649 21.8555 43.1665 21.1523C42.7681 20.4492 42.5688 19.6172 42.5688 18.6562H46.0962C46.0962 19.1875 46.1782 19.6367 46.3423 20.0039C46.5063 20.3711 46.7368 20.668 47.0337 20.8945C47.3384 21.1211 47.6978 21.2852 48.1118 21.3867C48.5337 21.4883 48.9946 21.5391 49.4946 21.5391C50.104 21.5391 50.604 21.4531 50.9946 21.2812C51.3931 21.1094 51.686 20.8711 51.8735 20.5664C52.0688 20.2617 52.1665 19.918 52.1665 19.5352ZM61.2368 13.9453V24H57.8501V11.3203H61.0259L61.2368 13.9453ZM60.7681 17.2148H59.8306C59.8306 16.332 59.936 15.5195 60.147 14.7773C60.3657 14.0273 60.6821 13.3789 61.0962 12.832C61.5181 12.2773 62.0376 11.8477 62.6548 11.543C63.272 11.2383 63.9868 11.0859 64.7993 11.0859C65.3618 11.0859 65.8774 11.1719 66.3462 11.3438C66.8149 11.5078 67.2173 11.7695 67.5532 12.1289C67.897 12.4805 68.1626 12.9414 68.3501 13.5117C68.5376 14.0742 68.6313 14.75 68.6313 15.5391V24H65.2563V15.9141C65.2563 15.3359 65.1782 14.8906 65.022 14.5781C64.8657 14.2656 64.6431 14.0469 64.354 13.9219C64.0728 13.7969 63.7329 13.7344 63.3345 13.7344C62.897 13.7344 62.5142 13.8242 62.186 14.0039C61.8657 14.1836 61.6001 14.4336 61.3892 14.7539C61.1782 15.0664 61.022 15.4336 60.9204 15.8555C60.8188 16.2773 60.7681 16.7305 60.7681 17.2148ZM68.3149 16.8281L67.1079 16.9805C67.1079 16.1523 67.2095 15.3828 67.4126 14.6719C67.6235 13.9609 67.9321 13.3359 68.3384 12.7969C68.7524 12.2578 69.2642 11.8398 69.8735 11.543C70.4829 11.2383 71.186 11.0859 71.9829 11.0859C72.5923 11.0859 73.147 11.1758 73.647 11.3555C74.147 11.5273 74.5728 11.8047 74.9243 12.1875C75.2837 12.5625 75.5571 13.0547 75.7446 13.6641C75.9399 14.2734 76.0376 15.0195 76.0376 15.9023V24H72.6509V15.9023C72.6509 15.3164 72.5728 14.8711 72.4165 14.5664C72.2681 14.2539 72.0493 14.0391 71.7603 13.9219C71.479 13.7969 71.1431 13.7344 70.7524 13.7344C70.3462 13.7344 69.9907 13.8164 69.686 13.9805C69.3813 14.1367 69.1274 14.3555 68.9243 14.6367C68.7212 14.918 68.5688 15.2461 68.4673 15.6211C68.3657 15.9883 68.3149 16.3906 68.3149 16.8281ZM85.4946 21.1406V15.4922C85.4946 15.0859 85.4282 14.7383 85.2954 14.4492C85.1626 14.1523 84.9556 13.9219 84.6743 13.7578C84.4009 13.5938 84.0454 13.5117 83.6079 13.5117C83.2329 13.5117 82.9087 13.5781 82.6353 13.7109C82.3618 13.8359 82.1509 14.0195 82.0024 14.2617C81.854 14.4961 81.7798 14.7734 81.7798 15.0938H78.4048C78.4048 14.5547 78.5298 14.043 78.7798 13.5586C79.0298 13.0742 79.3931 12.6484 79.8696 12.2812C80.3462 11.9062 80.9126 11.6133 81.5688 11.4023C82.2329 11.1914 82.9751 11.0859 83.7954 11.0859C84.7798 11.0859 85.6548 11.25 86.4204 11.5781C87.186 11.9062 87.7876 12.3984 88.2251 13.0547C88.6704 13.7109 88.8931 14.5312 88.8931 15.5156V20.9414C88.8931 21.6367 88.936 22.207 89.022 22.6523C89.1079 23.0898 89.2329 23.4727 89.397 23.8008V24H85.9868C85.8228 23.6562 85.6978 23.2266 85.6118 22.7109C85.5337 22.1875 85.4946 21.6641 85.4946 21.1406ZM85.9399 16.2773L85.9634 18.1875H84.0767C83.6313 18.1875 83.2446 18.2383 82.9165 18.3398C82.5884 18.4414 82.3188 18.5859 82.1079 18.7734C81.897 18.9531 81.7407 19.1641 81.6392 19.4062C81.5454 19.6484 81.4985 19.9141 81.4985 20.2031C81.4985 20.4922 81.5649 20.7539 81.6978 20.9883C81.8306 21.2148 82.022 21.3945 82.272 21.5273C82.522 21.6523 82.8149 21.7148 83.1509 21.7148C83.6587 21.7148 84.1001 21.6133 84.4751 21.4102C84.8501 21.207 85.1392 20.957 85.3423 20.6602C85.5532 20.3633 85.6626 20.082 85.6704 19.8164L86.561 21.2461C86.436 21.5664 86.2642 21.8984 86.0454 22.2422C85.8345 22.5859 85.5649 22.9102 85.2368 23.2148C84.9087 23.5117 84.5142 23.7578 84.0532 23.9531C83.5923 24.1406 83.0454 24.2344 82.4126 24.2344C81.6079 24.2344 80.8774 24.0742 80.2212 23.7539C79.5728 23.4258 79.0571 22.9766 78.6743 22.4062C78.2993 21.8281 78.1118 21.1719 78.1118 20.4375C78.1118 19.7734 78.2368 19.1836 78.4868 18.668C78.7368 18.1523 79.104 17.7188 79.5884 17.3672C80.0806 17.0078 80.6938 16.7383 81.4282 16.5586C82.1626 16.3711 83.0142 16.2773 83.9829 16.2773H85.9399ZM94.8696 14.0859V24H91.4946V11.3203H94.6704L94.8696 14.0859ZM98.6899 11.2383L98.6313 14.3672C98.4673 14.3438 98.2681 14.3242 98.0337 14.3086C97.8071 14.2852 97.6001 14.2734 97.4126 14.2734C96.936 14.2734 96.522 14.3359 96.1704 14.4609C95.8267 14.5781 95.5376 14.7539 95.3032 14.9883C95.0767 15.2227 94.9048 15.5078 94.7876 15.8438C94.6782 16.1797 94.6157 16.5625 94.6001 16.9922L93.9204 16.7812C93.9204 15.9609 94.0024 15.207 94.1665 14.5195C94.3306 13.8242 94.5688 13.2188 94.8813 12.7031C95.2017 12.1875 95.5923 11.7891 96.0532 11.5078C96.5142 11.2266 97.0415 11.0859 97.6353 11.0859C97.8228 11.0859 98.0142 11.1016 98.2095 11.1328C98.4048 11.1562 98.5649 11.1914 98.6899 11.2383ZM107.081 11.3203V13.7109H99.6978V11.3203H107.081ZM101.526 8.19141H104.901V20.1797C104.901 20.5469 104.948 20.8281 105.042 21.0234C105.143 21.2188 105.292 21.3555 105.487 21.4336C105.682 21.5039 105.928 21.5391 106.225 21.5391C106.436 21.5391 106.624 21.5312 106.788 21.5156C106.959 21.4922 107.104 21.4688 107.221 21.4453L107.233 23.9297C106.944 24.0234 106.631 24.0977 106.295 24.1523C105.959 24.207 105.588 24.2344 105.182 24.2344C104.44 24.2344 103.792 24.1133 103.237 23.8711C102.69 23.6211 102.268 23.2227 101.971 22.6758C101.674 22.1289 101.526 21.4102 101.526 20.5195V8.19141ZM112.729 6.9375V24H109.213V6.9375H112.729ZM119.526 14.2266V16.9688H111.768V14.2266H119.526ZM120.346 6.9375V9.69141H111.768V6.9375H120.346ZM125.737 11.3203V24H122.35V11.3203H125.737ZM122.139 8.01562C122.139 7.52344 122.311 7.11719 122.655 6.79688C122.999 6.47656 123.459 6.31641 124.038 6.31641C124.608 6.31641 125.065 6.47656 125.409 6.79688C125.76 7.11719 125.936 7.52344 125.936 8.01562C125.936 8.50781 125.76 8.91406 125.409 9.23438C125.065 9.55469 124.608 9.71484 124.038 9.71484C123.459 9.71484 122.999 9.55469 122.655 9.23438C122.311 8.91406 122.139 8.50781 122.139 8.01562ZM131.831 14.0273V24H128.456V11.3203H131.62L131.831 14.0273ZM131.338 17.2148H130.424C130.424 16.2773 130.545 15.4336 130.788 14.6836C131.03 13.9258 131.37 13.2812 131.807 12.75C132.245 12.2109 132.764 11.8008 133.366 11.5195C133.975 11.2305 134.655 11.0859 135.405 11.0859C135.999 11.0859 136.542 11.1719 137.034 11.3438C137.526 11.5156 137.948 11.7891 138.299 12.1641C138.659 12.5391 138.932 13.0352 139.12 13.6523C139.315 14.2695 139.413 15.0234 139.413 15.9141V24H136.014V15.9023C136.014 15.3398 135.936 14.9023 135.78 14.5898C135.624 14.2773 135.393 14.0586 135.088 13.9336C134.792 13.8008 134.424 13.7344 133.987 13.7344C133.534 13.7344 133.139 13.8242 132.803 14.0039C132.475 14.1836 132.202 14.4336 131.983 14.7539C131.772 15.0664 131.612 15.4336 131.502 15.8555C131.393 16.2773 131.338 16.7305 131.338 17.2148ZM149.467 21.2344V6H152.866V24H149.807L149.467 21.2344ZM141.452 17.8125V17.5664C141.452 16.5977 141.561 15.7188 141.78 14.9297C141.999 14.1328 142.319 13.4492 142.741 12.8789C143.163 12.3086 143.682 11.8672 144.299 11.5547C144.917 11.2422 145.62 11.0859 146.409 11.0859C147.151 11.0859 147.799 11.2422 148.354 11.5547C148.917 11.8672 149.393 12.3125 149.784 12.8906C150.182 13.4609 150.502 14.1367 150.745 14.918C150.987 15.6914 151.163 16.5391 151.272 17.4609V18C151.163 18.8828 150.987 19.7031 150.745 20.4609C150.502 21.2188 150.182 21.8828 149.784 22.4531C149.393 23.0156 148.917 23.4531 148.354 23.7656C147.792 24.0781 147.135 24.2344 146.385 24.2344C145.596 24.2344 144.893 24.0742 144.276 23.7539C143.667 23.4336 143.151 22.9844 142.729 22.4062C142.315 21.8281 141.999 21.1484 141.78 20.3672C141.561 19.5859 141.452 18.7344 141.452 17.8125ZM144.827 17.5664V17.8125C144.827 18.3359 144.866 18.8242 144.944 19.2773C145.03 19.7305 145.167 20.1328 145.354 20.4844C145.549 20.8281 145.799 21.0977 146.104 21.293C146.417 21.4805 146.795 21.5742 147.241 21.5742C147.819 21.5742 148.295 21.4453 148.67 21.1875C149.045 20.9219 149.331 20.5586 149.526 20.0977C149.729 19.6367 149.846 19.1055 149.877 18.5039V16.9688C149.854 16.4766 149.784 16.0352 149.667 15.6445C149.557 15.2461 149.393 14.9062 149.174 14.625C148.963 14.3438 148.698 14.125 148.377 13.9688C148.065 13.8125 147.694 13.7344 147.264 13.7344C146.827 13.7344 146.452 13.8359 146.139 14.0391C145.827 14.2344 145.573 14.5039 145.377 14.8477C145.19 15.1914 145.049 15.5977 144.956 16.0664C144.87 16.5273 144.827 17.0273 144.827 17.5664ZM161.338 24.2344C160.354 24.2344 159.471 24.0781 158.69 23.7656C157.909 23.4453 157.245 23.0039 156.698 22.4414C156.159 21.8789 155.745 21.2266 155.456 20.4844C155.167 19.7344 155.022 18.9375 155.022 18.0938V17.625C155.022 16.6641 155.159 15.7852 155.432 14.9883C155.706 14.1914 156.096 13.5 156.604 12.9141C157.12 12.3281 157.745 11.8789 158.479 11.5664C159.213 11.2461 160.042 11.0859 160.963 11.0859C161.862 11.0859 162.659 11.2344 163.354 11.5312C164.049 11.8281 164.631 12.25 165.1 12.7969C165.577 13.3438 165.936 14 166.178 14.7656C166.42 15.5234 166.542 16.3672 166.542 17.2969V18.7031H156.463V16.4531H163.225V16.1953C163.225 15.7266 163.139 15.3086 162.967 14.9414C162.803 14.5664 162.553 14.2695 162.217 14.0508C161.881 13.832 161.452 13.7227 160.928 13.7227C160.483 13.7227 160.1 13.8203 159.78 14.0156C159.459 14.2109 159.198 14.4844 158.995 14.8359C158.799 15.1875 158.651 15.6016 158.549 16.0781C158.456 16.5469 158.409 17.0625 158.409 17.625V18.0938C158.409 18.6016 158.479 19.0703 158.62 19.5C158.768 19.9297 158.975 20.3008 159.241 20.6133C159.514 20.9258 159.842 21.168 160.225 21.3398C160.616 21.5117 161.057 21.5977 161.549 21.5977C162.159 21.5977 162.725 21.4805 163.249 21.2461C163.78 21.0039 164.237 20.6406 164.62 20.1562L166.26 21.9375C165.995 22.3203 165.631 22.6875 165.17 23.0391C164.717 23.3906 164.17 23.6797 163.53 23.9062C162.889 24.125 162.159 24.2344 161.338 24.2344ZM171.838 14.0859V24H168.463V11.3203H171.639L171.838 14.0859ZM175.659 11.2383L175.6 14.3672C175.436 14.3438 175.237 14.3242 175.002 14.3086C174.776 14.2852 174.569 14.2734 174.381 14.2734C173.905 14.2734 173.491 14.3359 173.139 14.4609C172.795 14.5781 172.506 14.7539 172.272 14.9883C172.045 15.2227 171.874 15.5078 171.756 15.8438C171.647 16.1797 171.584 16.5625 171.569 16.9922L170.889 16.7812C170.889 15.9609 170.971 15.207 171.135 14.5195C171.299 13.8242 171.538 13.2188 171.85 12.7031C172.17 12.1875 172.561 11.7891 173.022 11.5078C173.483 11.2266 174.01 11.0859 174.604 11.0859C174.792 11.0859 174.983 11.1016 175.178 11.1328C175.374 11.1562 175.534 11.1914 175.659 11.2383Z" fill="#94A3B8"/>
</svg>
