<svg width="80" height="80" viewBox="0 0 80 80" fill="none" xmlns="http://www.w3.org/2000/svg">
<circle cx="40" cy="40" r="39" fill="#E7F5EC" stroke="#E7F5EC" stroke-width="2"/>
<circle cx="40" cy="40" r="32" fill="#91CFA6"/>
<g clip-path="url(#clip0_8246_28537)">
<path d="M57.3196 29.9999L52.6784 27.3202L49.9994 22.6797H44.6408L39.9996 20L35.3584 22.6797H29.9998L27.3201 27.3209L22.6797 29.9999V35.3585L20 39.9997L22.6797 44.6409V49.9995L27.3209 52.6792L30.0006 57.3204H35.3592L39.9997 59.9994L44.6409 57.3197H49.9995L52.6792 52.6785L57.3204 49.9988V44.6402L60.0001 39.999L57.3204 35.3578L57.3196 29.9999ZM38.1945 48.1854C37.8216 48.5583 37.3303 48.7395 36.8412 48.7327C36.352 48.7397 35.8608 48.5583 35.4879 48.1854L29.6387 42.3362C28.906 41.6035 28.906 40.4148 29.6387 39.6821L31.1872 38.1337C31.9199 37.4009 33.1085 37.4009 33.8413 38.1337L36.8412 41.1336L46.1575 31.8167C46.8902 31.084 48.0788 31.084 48.8116 31.8167L50.36 33.3651C51.0927 34.0979 51.0927 35.2865 50.36 36.0192L38.1945 48.1854Z" fill="#0F973D"/>
<path d="M38.1945 48.1854C37.8216 48.5583 37.3303 48.7395 36.8412 48.7327C36.352 48.7397 35.8608 48.5583 35.4879 48.1854L29.6387 42.3362C28.906 41.6035 28.906 40.4148 29.6387 39.6821L31.1872 38.1337C31.9199 37.4009 33.1085 37.4009 33.8413 38.1337L36.8412 41.1336L46.1575 31.8167C46.8902 31.084 48.0788 31.084 48.8116 31.8167L50.36 33.3651C51.0927 34.0979 51.0927 35.2865 50.36 36.0192L38.1945 48.1854Z" fill="#E7F5EC"/>
</g>
<defs>
<clipPath id="clip0_8246_28537">
<rect width="40" height="40" fill="white" transform="translate(20 20)"/>
</clipPath>
</defs>
</svg>
