<svg width="757" height="480" viewBox="0 0 757 480" fill="none" xmlns="http://www.w3.org/2000/svg">
<rect width="757" height="480" fill="#F9FAFC"/>
<path d="M219.328 252.324C216.76 252.324 214.564 251.796 212.74 250.74C210.916 249.684 209.512 248.184 208.528 246.24C207.568 244.272 207.088 241.956 207.088 239.292C207.088 237.3 207.364 235.512 207.916 233.928C208.468 232.32 209.26 230.952 210.292 229.824C211.348 228.672 212.632 227.796 214.144 227.196C215.68 226.596 217.408 226.296 219.328 226.296C220.744 226.296 222.1 226.488 223.396 226.872C224.716 227.256 225.856 227.808 226.816 228.528C227.224 228.792 227.488 229.116 227.608 229.5C227.752 229.86 227.776 230.208 227.68 230.544C227.608 230.88 227.452 231.168 227.212 231.408C226.972 231.624 226.66 231.744 226.276 231.768C225.916 231.792 225.52 231.66 225.088 231.372C224.296 230.772 223.42 230.328 222.46 230.04C221.5 229.752 220.492 229.608 219.436 229.608C217.612 229.608 216.076 229.992 214.828 230.76C213.58 231.504 212.632 232.596 211.984 234.036C211.336 235.476 211.012 237.228 211.012 239.292C211.012 241.356 211.336 243.12 211.984 244.584C212.632 246.024 213.58 247.128 214.828 247.896C216.076 248.64 217.612 249.012 219.436 249.012C220.492 249.012 221.5 248.868 222.46 248.58C223.444 248.268 224.368 247.812 225.232 247.212C225.664 246.948 226.048 246.828 226.384 246.852C226.744 246.876 227.044 246.996 227.284 247.212C227.524 247.428 227.68 247.704 227.752 248.04C227.848 248.352 227.836 248.688 227.716 249.048C227.62 249.384 227.392 249.672 227.032 249.912C226.048 250.704 224.884 251.304 223.54 251.712C222.196 252.12 220.792 252.324 219.328 252.324ZM242.523 252.324C240.123 252.324 238.023 251.796 236.223 250.74C234.447 249.66 233.067 248.148 232.083 246.204C231.123 244.236 230.643 241.932 230.643 239.292C230.643 237.3 230.919 235.512 231.471 233.928C232.023 232.32 232.815 230.952 233.847 229.824C234.879 228.672 236.127 227.796 237.591 227.196C239.055 226.596 240.699 226.296 242.523 226.296C244.947 226.296 247.047 226.824 248.823 227.88C250.599 228.936 251.967 230.436 252.927 232.38C253.911 234.324 254.403 236.616 254.403 239.256C254.403 241.248 254.127 243.048 253.575 244.656C253.023 246.264 252.219 247.644 251.163 248.796C250.131 249.948 248.883 250.824 247.419 251.424C245.955 252.024 244.323 252.324 242.523 252.324ZM242.523 249.084C244.203 249.084 245.631 248.7 246.807 247.932C248.007 247.164 248.919 246.048 249.543 244.584C250.191 243.12 250.515 241.356 250.515 239.292C250.515 236.196 249.819 233.796 248.427 232.092C247.035 230.388 245.067 229.536 242.523 229.536C240.843 229.536 239.403 229.92 238.203 230.688C237.027 231.432 236.115 232.536 235.467 234C234.843 235.464 234.531 237.228 234.531 239.292C234.531 242.364 235.227 244.764 236.619 246.492C238.035 248.22 240.003 249.084 242.523 249.084ZM261.221 252.252C260.669 252.252 260.237 252.096 259.925 251.784C259.637 251.472 259.493 251.04 259.493 250.488V228.132C259.493 227.556 259.649 227.124 259.961 226.836C260.273 226.524 260.693 226.368 261.221 226.368C261.725 226.368 262.109 226.464 262.373 226.656C262.661 226.824 262.925 227.136 263.165 227.592L272.597 245.196H271.481L280.877 227.592C281.117 227.136 281.369 226.824 281.633 226.656C281.897 226.464 282.281 226.368 282.785 226.368C283.313 226.368 283.721 226.524 284.009 226.836C284.297 227.124 284.441 227.556 284.441 228.132V250.488C284.441 251.04 284.297 251.472 284.009 251.784C283.745 252.096 283.337 252.252 282.785 252.252C282.233 252.252 281.813 252.096 281.525 251.784C281.237 251.472 281.093 251.04 281.093 250.488V231.912H281.885L273.533 247.356C273.341 247.716 273.137 247.98 272.921 248.148C272.705 248.316 272.405 248.4 272.021 248.4C271.637 248.4 271.325 248.316 271.085 248.148C270.845 247.956 270.629 247.692 270.437 247.356L262.013 231.876H262.877V250.488C262.877 251.04 262.733 251.472 262.445 251.784C262.181 252.096 261.773 252.252 261.221 252.252ZM292.301 252.252C291.701 252.252 291.233 252.084 290.897 251.748C290.585 251.412 290.429 250.944 290.429 250.344V228.276C290.429 227.652 290.585 227.184 290.897 226.872C291.233 226.536 291.701 226.368 292.301 226.368C292.901 226.368 293.357 226.536 293.669 226.872C294.005 227.184 294.173 227.652 294.173 228.276V250.344C294.173 250.944 294.017 251.412 293.705 251.748C293.393 252.084 292.925 252.252 292.301 252.252ZM301.825 252.252C301.273 252.252 300.841 252.096 300.529 251.784C300.217 251.472 300.061 251.028 300.061 250.452V228.24C300.061 227.64 300.205 227.184 300.493 226.872C300.805 226.536 301.213 226.368 301.717 226.368C302.149 226.368 302.473 226.452 302.689 226.62C302.929 226.764 303.205 227.04 303.517 227.448L318.349 246.996H317.449V228.132C317.449 227.58 317.593 227.148 317.881 226.836C318.193 226.524 318.625 226.368 319.177 226.368C319.753 226.368 320.185 226.524 320.473 226.836C320.761 227.148 320.905 227.58 320.905 228.132V250.488C320.905 251.04 320.761 251.472 320.473 251.784C320.209 252.096 319.849 252.252 319.393 252.252C318.961 252.252 318.601 252.168 318.313 252C318.049 251.832 317.761 251.544 317.449 251.136L302.689 231.624H303.517V250.452C303.517 251.028 303.373 251.472 303.085 251.784C302.797 252.096 302.377 252.252 301.825 252.252ZM338.695 252.324C335.935 252.324 333.607 251.808 331.711 250.776C329.815 249.72 328.375 248.22 327.391 246.276C326.431 244.332 325.951 242.016 325.951 239.328C325.951 237.312 326.227 235.512 326.779 233.928C327.355 232.32 328.171 230.952 329.227 229.824C330.307 228.672 331.615 227.796 333.151 227.196C334.711 226.596 336.475 226.296 338.443 226.296C339.883 226.296 341.299 226.488 342.691 226.872C344.083 227.232 345.355 227.832 346.507 228.672C346.843 228.912 347.059 229.188 347.155 229.5C347.251 229.812 347.251 230.136 347.155 230.472C347.083 230.784 346.927 231.06 346.687 231.3C346.471 231.54 346.195 231.684 345.859 231.732C345.547 231.78 345.199 231.684 344.815 231.444C343.879 230.796 342.895 230.328 341.863 230.04C340.831 229.728 339.691 229.572 338.443 229.572C336.571 229.572 334.987 229.956 333.691 230.724C332.419 231.492 331.459 232.608 330.811 234.072C330.163 235.512 329.839 237.264 329.839 239.328C329.839 242.52 330.595 244.944 332.107 246.6C333.619 248.256 335.863 249.084 338.839 249.084C339.919 249.084 340.975 248.988 342.007 248.796C343.063 248.58 344.071 248.28 345.031 247.896L344.275 249.768V241.38H339.631C339.151 241.38 338.767 241.26 338.479 241.02C338.215 240.756 338.083 240.396 338.083 239.94C338.083 239.484 338.215 239.148 338.479 238.932C338.767 238.692 339.151 238.572 339.631 238.572H345.859C346.363 238.572 346.747 238.704 347.011 238.968C347.275 239.232 347.407 239.616 347.407 240.12V249.192C347.407 249.624 347.323 249.996 347.155 250.308C347.011 250.596 346.759 250.812 346.399 250.956C345.367 251.364 344.155 251.7 342.763 251.964C341.371 252.204 340.015 252.324 338.695 252.324ZM371.1 252.324C369.996 252.324 368.916 252.24 367.86 252.072C366.804 251.904 365.808 251.652 364.872 251.316C363.936 250.956 363.096 250.524 362.352 250.02C361.992 249.756 361.74 249.456 361.596 249.12C361.476 248.784 361.44 248.46 361.488 248.148C361.56 247.812 361.704 247.524 361.92 247.284C362.136 247.044 362.4 246.9 362.712 246.852C363.024 246.78 363.372 246.876 363.756 247.14C364.836 247.836 365.976 248.352 367.176 248.688C368.376 249 369.684 249.156 371.1 249.156C373.14 249.156 374.64 248.796 375.6 248.076C376.584 247.332 377.076 246.372 377.076 245.196C377.076 244.236 376.728 243.48 376.032 242.928C375.336 242.352 374.172 241.896 372.54 241.56L368.688 240.768C366.408 240.288 364.704 239.496 363.576 238.392C362.472 237.288 361.92 235.8 361.92 233.928C361.92 232.8 362.148 231.768 362.604 230.832C363.084 229.896 363.744 229.092 364.584 228.42C365.424 227.724 366.432 227.196 367.608 226.836C368.784 226.476 370.068 226.296 371.46 226.296C372.948 226.296 374.34 226.488 375.636 226.872C376.956 227.256 378.132 227.844 379.164 228.636C379.476 228.852 379.68 229.128 379.776 229.464C379.896 229.776 379.92 230.088 379.848 230.4C379.8 230.712 379.668 230.976 379.452 231.192C379.236 231.408 378.96 231.54 378.624 231.588C378.288 231.612 377.916 231.492 377.508 231.228C376.572 230.604 375.612 230.16 374.628 229.896C373.668 229.608 372.6 229.464 371.424 229.464C370.248 229.464 369.216 229.644 368.328 230.004C367.464 230.364 366.792 230.868 366.312 231.516C365.856 232.164 365.628 232.932 365.628 233.82C365.628 234.828 365.952 235.632 366.6 236.232C367.248 236.832 368.328 237.288 369.84 237.6L373.656 238.392C376.056 238.896 377.844 239.676 379.02 240.732C380.196 241.788 380.784 243.192 380.784 244.944C380.784 246.072 380.556 247.092 380.1 248.004C379.644 248.892 378.996 249.66 378.156 250.308C377.316 250.956 376.296 251.46 375.096 251.82C373.92 252.156 372.588 252.324 371.1 252.324ZM396.05 252.324C393.65 252.324 391.55 251.796 389.75 250.74C387.974 249.66 386.594 248.148 385.61 246.204C384.65 244.236 384.17 241.932 384.17 239.292C384.17 237.3 384.446 235.512 384.998 233.928C385.55 232.32 386.342 230.952 387.374 229.824C388.406 228.672 389.654 227.796 391.118 227.196C392.582 226.596 394.226 226.296 396.05 226.296C398.474 226.296 400.574 226.824 402.35 227.88C404.126 228.936 405.494 230.436 406.454 232.38C407.438 234.324 407.93 236.616 407.93 239.256C407.93 241.248 407.654 243.048 407.102 244.656C406.55 246.264 405.746 247.644 404.69 248.796C403.658 249.948 402.41 250.824 400.946 251.424C399.482 252.024 397.85 252.324 396.05 252.324ZM396.05 249.084C397.73 249.084 399.158 248.7 400.334 247.932C401.534 247.164 402.446 246.048 403.07 244.584C403.718 243.12 404.042 241.356 404.042 239.292C404.042 236.196 403.346 233.796 401.954 232.092C400.562 230.388 398.594 229.536 396.05 229.536C394.37 229.536 392.93 229.92 391.73 230.688C390.554 231.432 389.642 232.536 388.994 234C388.37 235.464 388.058 237.228 388.058 239.292C388.058 242.364 388.754 244.764 390.146 246.492C391.562 248.22 393.53 249.084 396.05 249.084ZM423.964 252.324C421.564 252.324 419.464 251.796 417.664 250.74C415.888 249.66 414.508 248.148 413.524 246.204C412.564 244.236 412.084 241.932 412.084 239.292C412.084 237.3 412.36 235.512 412.912 233.928C413.464 232.32 414.256 230.952 415.288 229.824C416.32 228.672 417.568 227.796 419.032 227.196C420.496 226.596 422.14 226.296 423.964 226.296C426.388 226.296 428.488 226.824 430.264 227.88C432.04 228.936 433.408 230.436 434.368 232.38C435.352 234.324 435.844 236.616 435.844 239.256C435.844 241.248 435.568 243.048 435.016 244.656C434.464 246.264 433.66 247.644 432.604 248.796C431.572 249.948 430.324 250.824 428.86 251.424C427.396 252.024 425.764 252.324 423.964 252.324ZM423.964 249.084C425.644 249.084 427.072 248.7 428.248 247.932C429.448 247.164 430.36 246.048 430.984 244.584C431.632 243.12 431.956 241.356 431.956 239.292C431.956 236.196 431.26 233.796 429.868 232.092C428.476 230.388 426.508 229.536 423.964 229.536C422.284 229.536 420.844 229.92 419.644 230.688C418.468 231.432 417.556 232.536 416.908 234C416.284 235.464 415.972 237.228 415.972 239.292C415.972 242.364 416.668 244.764 418.06 246.492C419.476 248.22 421.444 249.084 423.964 249.084ZM442.626 252.252C442.074 252.252 441.642 252.096 441.33 251.784C441.018 251.472 440.862 251.028 440.862 250.452V228.24C440.862 227.64 441.006 227.184 441.294 226.872C441.606 226.536 442.014 226.368 442.518 226.368C442.95 226.368 443.274 226.452 443.49 226.62C443.73 226.764 444.006 227.04 444.318 227.448L459.15 246.996H458.25V228.132C458.25 227.58 458.394 227.148 458.682 226.836C458.994 226.524 459.426 226.368 459.978 226.368C460.554 226.368 460.986 226.524 461.274 226.836C461.562 227.148 461.706 227.58 461.706 228.132V250.488C461.706 251.04 461.562 251.472 461.274 251.784C461.01 252.096 460.65 252.252 460.194 252.252C459.762 252.252 459.402 252.168 459.114 252C458.85 251.832 458.562 251.544 458.25 251.136L443.49 231.624H444.318V250.452C444.318 251.028 444.174 251.472 443.886 251.784C443.598 252.096 443.178 252.252 442.626 252.252ZM468.984 245.16C468.6 245.16 468.3 245.04 468.084 244.8C467.892 244.56 467.772 244.224 467.724 243.792L466.86 228.744C466.812 228.024 466.968 227.448 467.328 227.016C467.688 226.584 468.24 226.368 468.984 226.368C469.68 226.368 470.208 226.584 470.568 227.016C470.928 227.448 471.072 228.024 471 228.744L470.136 243.792C470.112 244.224 469.992 244.56 469.776 244.8C469.584 245.04 469.32 245.16 468.984 245.16ZM468.984 252.144C468.288 252.144 467.724 251.928 467.292 251.496C466.86 251.064 466.644 250.512 466.644 249.84C466.644 249.168 466.86 248.628 467.292 248.22C467.724 247.788 468.288 247.572 468.984 247.572C469.68 247.572 470.232 247.788 470.64 248.22C471.048 248.628 471.252 249.168 471.252 249.84C471.252 250.512 471.048 251.064 470.64 251.496C470.232 251.928 469.68 252.144 468.984 252.144ZM477.527 245.16C477.143 245.16 476.843 245.04 476.627 244.8C476.435 244.56 476.315 244.224 476.267 243.792L475.403 228.744C475.355 228.024 475.511 227.448 475.871 227.016C476.231 226.584 476.783 226.368 477.527 226.368C478.223 226.368 478.751 226.584 479.111 227.016C479.471 227.448 479.615 228.024 479.543 228.744L478.679 243.792C478.655 244.224 478.535 244.56 478.319 244.8C478.127 245.04 477.863 245.16 477.527 245.16ZM477.527 252.144C476.831 252.144 476.267 251.928 475.835 251.496C475.403 251.064 475.187 250.512 475.187 249.84C475.187 249.168 475.403 248.628 475.835 248.22C476.267 247.788 476.831 247.572 477.527 247.572C478.223 247.572 478.775 247.788 479.183 248.22C479.591 248.628 479.795 249.168 479.795 249.84C479.795 250.512 479.591 251.064 479.183 251.496C478.775 251.928 478.223 252.144 477.527 252.144ZM486.07 245.16C485.686 245.16 485.386 245.04 485.17 244.8C484.978 244.56 484.858 244.224 484.81 243.792L483.946 228.744C483.898 228.024 484.054 227.448 484.414 227.016C484.774 226.584 485.326 226.368 486.07 226.368C486.766 226.368 487.294 226.584 487.654 227.016C488.014 227.448 488.158 228.024 488.086 228.744L487.222 243.792C487.198 244.224 487.078 244.56 486.862 244.8C486.67 245.04 486.406 245.16 486.07 245.16ZM486.07 252.144C485.374 252.144 484.81 251.928 484.378 251.496C483.946 251.064 483.73 250.512 483.73 249.84C483.73 249.168 483.946 248.628 484.378 248.22C484.81 247.788 485.374 247.572 486.07 247.572C486.766 247.572 487.318 247.788 487.726 248.22C488.134 248.628 488.338 249.168 488.338 249.84C488.338 250.512 488.134 251.064 487.726 251.496C487.318 251.928 486.766 252.144 486.07 252.144ZM494.613 245.16C494.229 245.16 493.929 245.04 493.713 244.8C493.521 244.56 493.401 244.224 493.353 243.792L492.489 228.744C492.441 228.024 492.597 227.448 492.957 227.016C493.317 226.584 493.869 226.368 494.613 226.368C495.309 226.368 495.837 226.584 496.197 227.016C496.557 227.448 496.701 228.024 496.629 228.744L495.765 243.792C495.741 244.224 495.621 244.56 495.405 244.8C495.213 245.04 494.949 245.16 494.613 245.16ZM494.613 252.144C493.917 252.144 493.353 251.928 492.921 251.496C492.489 251.064 492.273 250.512 492.273 249.84C492.273 249.168 492.489 248.628 492.921 248.22C493.353 247.788 493.917 247.572 494.613 247.572C495.309 247.572 495.861 247.788 496.269 248.22C496.677 248.628 496.881 249.168 496.881 249.84C496.881 250.512 496.677 251.064 496.269 251.496C495.861 251.928 495.309 252.144 494.613 252.144Z" fill="#520052"/>
<path d="M514.494 251.484C517.244 248.734 517.519 248.046 519.237 249.765C520.956 251.484 520.269 251.69 517.519 254.509C515.456 256.571 512.844 256.159 512.844 256.159C512.844 256.159 512.431 253.546 514.494 251.484Z" fill="#FF9D27"/>
<path d="M519.719 254.3C520.819 251.413 521.163 251.069 519.581 250.175C518 249.282 518 249.9 516.969 252.788C516.144 254.919 517.106 256.844 517.106 256.844C517.106 256.844 518.963 256.5 519.719 254.3Z" fill="#FF9D27"/>
<path d="M518.137 251.622C518.756 250.04 518.756 249.697 519.581 250.178C520.475 250.659 520.269 250.865 519.65 252.447C519.237 253.615 518.206 253.89 518.206 253.89C518.206 253.89 517.725 252.859 518.137 251.622Z" fill="#FDF516"/>
<path d="M518.756 249.419C517.862 247.838 517.519 248.182 514.631 249.282C512.5 250.107 512.087 251.894 512.087 251.894C512.087 251.894 514.012 252.857 516.144 252.032C519.031 250.932 519.65 250.932 518.756 249.419Z" fill="#FF9D27"/>
<path d="M517.313 250.859C518.894 250.24 519.238 250.24 518.756 249.415C518.275 248.521 518.069 248.728 516.488 249.346C515.319 249.759 515.044 250.79 515.044 250.79C515.044 250.79 516.144 251.271 517.313 250.859Z" fill="#FDF516"/>
<path d="M516.556 250.722C518.069 249.21 518.206 248.797 519.169 249.76C520.131 250.722 519.719 250.86 518.206 252.372C517.038 253.541 515.594 253.266 515.594 253.266C515.594 253.266 515.456 251.891 516.556 250.722Z" fill="#FDF516"/>
<path d="M519.719 244.123C515.456 236.973 508.375 239.929 508.375 239.929C508.375 239.929 518.481 229.823 525.288 236.629L519.719 244.123Z" fill="#3BAACF"/>
<path d="M523.019 238.829L525.219 236.629C518.481 229.823 508.375 239.929 508.375 239.929C508.375 239.929 517.244 233.604 523.019 238.829Z" fill="#428BC1"/>
<path d="M524.875 249.28C532.025 253.542 529.069 260.623 529.069 260.623C529.069 260.623 539.175 250.517 532.369 243.711L524.875 249.28Z" fill="#3BAACF"/>
<path d="M530.169 245.981L532.369 243.781C539.175 250.587 529.069 260.694 529.069 260.694C529.069 260.694 535.394 251.756 530.169 245.981Z" fill="#428BC1"/>
<path d="M540.55 239.242C532.506 247.217 523.637 251.548 520.544 248.454C517.45 245.361 521.781 236.492 529.756 228.448C539.106 219.098 549.487 219.511 549.487 219.511C549.487 219.511 549.831 229.892 540.55 239.242Z" fill="#C5D0D8"/>
<path d="M538.488 236.975C530.513 244.95 522.538 250.175 520.681 248.319C518.825 246.462 524.05 238.488 532.025 230.513C541.375 221.163 549.625 219.375 549.625 219.375C549.625 219.375 547.838 227.625 538.488 236.975Z" fill="#DAE3EA"/>
<path d="M523.706 250.653C523.362 250.997 522.812 250.997 522.469 250.653L518.344 246.528C518 246.184 518 245.566 518.344 245.222L519.581 243.984L524.944 249.347L523.706 250.653Z" fill="#C94747"/>
<path d="M522.538 249.419C522.194 249.763 521.781 249.9 521.575 249.694L519.238 247.356C519.031 247.15 519.169 246.737 519.513 246.394L520.75 245.156L523.775 248.181L522.538 249.419Z" fill="#F15744"/>
<path d="M521.369 251.136C521.163 251.342 520.681 251.342 520.475 251.136L517.794 248.455C517.588 248.248 517.656 247.836 517.863 247.63L518.688 246.805L522.194 250.311L521.369 251.136Z" fill="#3E4347"/>
<path d="M520.819 250.591C520.613 250.797 520.2 250.866 520.063 250.728L518.206 248.872C518.069 248.734 518.138 248.391 518.413 248.184L519.238 247.359L521.644 249.766L520.819 250.591Z" fill="#62727A"/>
<path d="M549.488 219.51C549.488 219.51 545.775 219.372 540.756 221.297L547.7 228.241C549.625 223.222 549.488 219.51 549.488 219.51Z" fill="#C94747"/>
<path d="M549.487 219.516C549.487 219.516 546.531 220.134 542.062 222.678L546.325 226.941C548.869 222.472 549.487 219.516 549.487 219.516Z" fill="#F15744"/>
<path d="M536.906 235.531C538.805 235.531 540.344 233.992 540.344 232.094C540.344 230.195 538.805 228.656 536.906 228.656C535.008 228.656 533.469 230.195 533.469 232.094C533.469 233.992 535.008 235.531 536.906 235.531Z" fill="#EDF4F9"/>
<path d="M536.906 234.366C538.159 234.366 539.175 233.35 539.175 232.097C539.175 230.844 538.159 229.828 536.906 229.828C535.653 229.828 534.638 230.844 534.638 232.097C534.638 233.35 535.653 234.366 536.906 234.366Z" fill="#3BAACF"/>
<path d="M530.031 242.406C531.93 242.406 533.469 240.867 533.469 238.969C533.469 237.07 531.93 235.531 530.031 235.531C528.133 235.531 526.594 237.07 526.594 238.969C526.594 240.867 528.133 242.406 530.031 242.406Z" fill="#EDF4F9"/>
<path d="M530.031 241.241C531.284 241.241 532.3 240.225 532.3 238.972C532.3 237.719 531.284 236.703 530.031 236.703C528.778 236.703 527.763 237.719 527.763 238.972C527.763 240.225 528.778 241.241 530.031 241.241Z" fill="#3BAACF"/>
<path d="M540.619 222.745C540.413 222.952 540 222.952 539.794 222.745C539.588 222.539 539.588 222.127 539.794 221.92C540 221.714 540.413 221.714 540.619 221.92C540.825 222.127 540.825 222.539 540.619 222.745Z" fill="white"/>
<path d="M541.788 224.467C542.092 224.467 542.338 224.221 542.338 223.917C542.338 223.613 542.092 223.367 541.788 223.367C541.484 223.367 541.238 223.613 541.238 223.917C541.238 224.221 541.484 224.467 541.788 224.467Z" fill="white"/>
<path d="M543.438 226.116C543.741 226.116 543.988 225.869 543.988 225.566C543.988 225.262 543.741 225.016 543.438 225.016C543.134 225.016 542.888 225.262 542.888 225.566C542.888 225.869 543.134 226.116 543.438 226.116Z" fill="white"/>
<path d="M545.019 227.764C545.323 227.764 545.569 227.518 545.569 227.214C545.569 226.91 545.323 226.664 545.019 226.664C544.715 226.664 544.469 226.91 544.469 227.214C544.469 227.518 544.715 227.764 545.019 227.764Z" fill="white"/>
<path d="M546.669 229.342C546.972 229.342 547.219 229.096 547.219 228.792C547.219 228.488 546.972 228.242 546.669 228.242C546.365 228.242 546.119 228.488 546.119 228.792C546.119 229.096 546.365 229.342 546.669 229.342Z" fill="white"/>
</svg>
