<svg width="1440" height="532" viewBox="0 0 1440 532" fill="none" xmlns="http://www.w3.org/2000/svg">
<path d="M0 68.3303L181.481 144.89C287.871 189.771 405.725 199.875 518.201 173.756L597.058 155.444C659.837 140.866 725.636 146.784 784.807 172.33V172.33C859.664 204.649 944.418 205.278 1019.75 174.076L1440 0" stroke="#B800B8" stroke-opacity="0.02" stroke-width="25"/>
<path d="M0 222.885L181.481 299.444C287.871 344.326 405.725 354.429 518.201 328.31L597.058 309.999C659.837 295.42 725.636 301.338 784.807 326.884V326.884C859.664 359.203 944.418 359.833 1019.75 328.63L1440 154.555" stroke="#B800B8" stroke-opacity="0.02" stroke-width="25"/>
<path d="M0 377.447L181.481 454.007C287.871 498.888 405.725 508.992 518.201 482.873L597.058 464.561C659.837 449.983 725.636 455.901 784.807 481.447V481.447C859.664 513.766 944.418 514.396 1019.75 483.193L1440 309.117" stroke="#B800B8" stroke-opacity="0.02" stroke-width="25"/>
</svg>
