<svg width="110" height="32" viewBox="0 0 110 32" fill="none" xmlns="http://www.w3.org/2000/svg">
<path d="M10.3661 19.9817V28.1025C10.3661 28.4138 10.2424 28.7124 10.0223 28.9324C9.80225 29.1526 9.5037 29.2762 9.19235 29.2762C8.88111 29.2762 8.58256 29.1526 8.36241 28.9324C8.14227 28.7124 8.0186 28.4138 8.0186 28.1025V19.993C8.34545 20.2317 8.73723 20.3649 9.1418 20.3749C9.58277 20.3874 10.0149 20.2487 10.3661 19.9817ZM20.3626 17.6343C20.0647 17.6343 19.779 17.7526 19.5684 17.9632C19.3578 18.1738 19.2394 18.4596 19.2394 18.7575V20.1727C19.2394 20.484 19.363 20.7826 19.5832 21.0026C19.8032 21.2228 20.1018 21.3464 20.4131 21.3464C20.7245 21.3464 21.023 21.2228 21.2431 21.0026C21.4632 20.7826 21.5869 20.484 21.5869 20.1727V18.8136C21.5956 18.6526 21.5696 18.4915 21.5105 18.3414C21.4514 18.1914 21.3608 18.0557 21.2445 17.9438C21.1284 17.8319 20.9894 17.7464 20.8374 17.6929C20.6852 17.6395 20.5232 17.6195 20.3626 17.6343ZM5.46894 23.0593C5.06477 23.0472 4.67352 22.9142 4.34573 22.6774V30.8206C4.34573 31.1335 4.46998 31.4335 4.69116 31.6546C4.91233 31.8758 5.21231 32 5.5251 32C5.83788 32 6.13786 31.8758 6.35903 31.6546C6.58021 31.4335 6.70446 31.1335 6.70446 30.8206V22.7336C6.33768 22.9707 5.90492 23.0848 5.46894 23.0593ZM16.7009 15.1969C16.5488 15.1893 16.3967 15.2127 16.2538 15.2658C16.111 15.3188 15.9805 15.4003 15.8701 15.5053C15.7598 15.6105 15.6721 15.7368 15.6121 15.8769C15.5522 16.017 15.5214 16.1678 15.5216 16.3201V22.5763C15.5216 22.8892 15.6458 23.1892 15.867 23.4103C16.0882 23.6315 16.3881 23.7557 16.7009 23.7557C17.0138 23.7557 17.3138 23.6315 17.5349 23.4103C17.7561 23.1892 17.8803 22.8892 17.8803 22.5763V16.3987C17.8893 16.2367 17.863 16.0746 17.8033 15.9236C17.7435 15.7727 17.6518 15.6364 17.5344 15.5243C17.4169 15.4122 17.2766 15.3269 17.123 15.2743C16.9695 15.2216 16.8063 15.2029 16.6448 15.2194L16.7009 15.1969ZM12.9719 17.6006C12.5488 17.5976 12.137 17.4643 11.7926 17.2187V25.3843C11.7926 25.6972 11.9168 25.9972 12.1379 26.2183C12.3592 26.4395 12.6591 26.5637 12.9719 26.5637C13.2847 26.5637 13.5846 26.4395 13.8059 26.2183C14.0271 25.9972 14.1513 25.6972 14.1513 25.3843V17.2299C13.795 17.4953 13.36 17.6337 12.9158 17.623L12.9719 17.6006ZM2.91927 23.8568V1.04458C2.91632 0.766506 2.80377 0.500847 2.60609 0.305264C2.4084 0.109681 2.14154 -1.12311e-05 1.86346 8.625e-10H1.61636C1.33827 -1.12311e-05 1.07141 0.109681 0.873729 0.305264C0.676046 0.500847 0.563501 0.766506 0.560547 1.04458V23.8568C0.560547 24.1368 0.671789 24.4054 0.869787 24.6034C1.06778 24.8014 1.33634 24.9126 1.61636 24.9126H1.86346C2.14349 24.9126 2.41203 24.8014 2.61003 24.6034C2.80804 24.4054 2.91927 24.1368 2.91927 23.8568ZM5.59249 22.1945H5.34538C5.06537 22.1945 4.79681 22.0833 4.59881 21.8852C4.40082 21.6872 4.28957 21.4187 4.28957 21.1386V3.76272C4.29254 3.48466 4.40507 3.21898 4.60276 3.02341C4.80044 2.82783 5.0673 2.71814 5.34538 2.71815H5.59249C5.87057 2.71814 6.13743 2.82783 6.33511 3.02341C6.5328 3.21898 6.64534 3.48466 6.6483 3.76272V21.1611C6.6483 21.4411 6.53706 21.7097 6.33906 21.9077C6.14106 22.1057 5.8725 22.2169 5.59249 22.2169V22.1945ZM9.31028 19.5212H9.05195C8.77497 19.5212 8.50922 19.4112 8.31333 19.2153C8.11744 19.0194 8.00737 18.7538 8.00737 18.4767V6.45841C8.00591 6.32029 8.03186 6.18325 8.08364 6.05521C8.13542 5.92718 8.21213 5.8107 8.30929 5.71251C8.40644 5.61432 8.52213 5.53637 8.64962 5.48318C8.7771 5.42998 8.91379 5.40259 9.05195 5.4026H9.31028C9.58839 5.40556 9.85403 5.5181 10.0496 5.71578C10.2452 5.91346 10.3549 6.18032 10.3549 6.45841V18.4767C10.3549 18.7538 10.2448 19.0194 10.0489 19.2153C9.85301 19.4112 9.58738 19.5212 9.31028 19.5212ZM13.0281 16.7694H12.7922C12.5141 16.7694 12.2472 16.6598 12.0495 16.4641C11.8519 16.2686 11.7393 16.0029 11.7364 15.7248V9.25518C11.7272 9.11096 11.7476 8.9664 11.7966 8.83038C11.8455 8.69448 11.9218 8.56991 12.0208 8.46467C12.1197 8.35931 12.2393 8.27552 12.372 8.21824C12.5047 8.16107 12.6477 8.13164 12.7922 8.13198H13.0393C13.3193 8.13198 13.5879 8.24317 13.7859 8.44119C13.9839 8.63921 14.0951 8.90777 14.0951 9.18779V15.7024C14.0966 15.842 14.0704 15.9805 14.018 16.1098C13.9656 16.2392 13.8881 16.357 13.7898 16.4562C13.6917 16.5554 13.5749 16.6342 13.4459 16.688C13.3171 16.7418 13.1789 16.7694 13.0393 16.7694H13.0281ZM16.7571 14.3545H16.51C16.23 14.3545 15.9614 14.2433 15.7634 14.0453C15.5654 13.8473 15.4542 13.5787 15.4542 13.2987V11.6251C15.4571 11.347 15.5697 11.0814 15.7673 10.8858C15.965 10.6902 16.2319 10.5806 16.51 10.5806H16.7571C17.0352 10.5806 17.3021 10.6902 17.4998 10.8858C17.6975 11.0814 17.81 11.347 17.8129 11.6251V13.2987C17.8129 13.5768 17.7033 13.8437 17.5076 14.0414C17.3121 14.239 17.0464 14.3516 16.7683 14.3545H16.7571Z" fill="#94A3B8"/>
<path d="M35.2256 21.293L38.624 6.9375H40.5225L40.9561 9.32812L37.335 24H35.2959L35.2256 21.293ZM33.4795 6.9375L36.292 21.293L36.0576 24H33.7842L29.999 6.9375H33.4795ZM43.9443 21.2344L46.7217 6.9375H50.2021L46.4287 24H44.1553L43.9443 21.2344ZM41.5889 6.9375L45.0107 21.3516L44.917 24H42.8779L39.2334 9.31641L39.7021 6.9375H41.5889ZM58.5342 9.85547L53.8936 24H50.1553L56.4951 6.9375H58.874L58.5342 9.85547ZM62.3896 24L57.7373 9.85547L57.3623 6.9375H59.7646L66.1396 24H62.3896ZM62.1787 17.6484V20.4023H53.167V17.6484H62.1787ZM72.9131 20.4375L76.9326 6.9375H80.8467L74.9053 24H72.3271L72.9131 20.4375ZM69.21 6.9375L73.2178 20.4375L73.8271 24H71.2256L65.3193 6.9375H69.21ZM93.8896 21.2578V24H84.8076V21.2578H93.8896ZM85.9561 6.9375V24H82.4404V6.9375H85.9561ZM92.7061 13.8867V16.5586H84.8076V13.8867H92.7061ZM93.8779 6.9375V9.69141H84.8076V6.9375H93.8779ZM104.823 19.5352C104.823 19.2305 104.776 18.957 104.683 18.7148C104.597 18.4648 104.433 18.2383 104.19 18.0352C103.948 17.8242 103.608 17.6172 103.171 17.4141C102.733 17.2109 102.167 17 101.472 16.7812C100.698 16.5312 99.9639 16.25 99.2686 15.9375C98.5811 15.625 97.9717 15.2617 97.4404 14.8477C96.917 14.4258 96.5029 13.9375 96.1982 13.3828C95.9014 12.8281 95.7529 12.1836 95.7529 11.4492C95.7529 10.7383 95.9092 10.0938 96.2217 9.51562C96.5342 8.92969 96.9717 8.42969 97.5342 8.01562C98.0967 7.59375 98.7607 7.26953 99.5264 7.04297C100.3 6.81641 101.147 6.70312 102.069 6.70312C103.327 6.70312 104.425 6.92969 105.362 7.38281C106.3 7.83594 107.026 8.45703 107.542 9.24609C108.065 10.0352 108.327 10.9375 108.327 11.9531H104.835C104.835 11.4531 104.729 11.0156 104.519 10.6406C104.315 10.2578 104.003 9.95703 103.581 9.73828C103.167 9.51953 102.644 9.41016 102.011 9.41016C101.401 9.41016 100.894 9.50391 100.487 9.69141C100.081 9.87109 99.7764 10.1172 99.5732 10.4297C99.3701 10.7344 99.2686 11.0781 99.2686 11.4609C99.2686 11.75 99.3389 12.0117 99.4795 12.2461C99.6279 12.4805 99.8467 12.6992 100.136 12.9023C100.425 13.1055 100.78 13.2969 101.202 13.4766C101.624 13.6562 102.112 13.832 102.667 14.0039C103.597 14.2852 104.413 14.6016 105.116 14.9531C105.827 15.3047 106.421 15.6992 106.897 16.1367C107.374 16.5742 107.733 17.0703 107.976 17.625C108.218 18.1797 108.339 18.8086 108.339 19.5117C108.339 20.2539 108.194 20.918 107.905 21.5039C107.616 22.0898 107.198 22.5859 106.651 22.9922C106.104 23.3984 105.452 23.707 104.694 23.918C103.937 24.1289 103.089 24.2344 102.151 24.2344C101.308 24.2344 100.476 24.125 99.6553 23.9062C98.835 23.6797 98.0889 23.3398 97.417 22.8867C96.7529 22.4336 96.2217 21.8555 95.8232 21.1523C95.4248 20.4492 95.2256 19.6172 95.2256 18.6562H98.7529C98.7529 19.1875 98.835 19.6367 98.999 20.0039C99.1631 20.3711 99.3936 20.668 99.6904 20.8945C99.9951 21.1211 100.354 21.2852 100.769 21.3867C101.19 21.4883 101.651 21.5391 102.151 21.5391C102.761 21.5391 103.261 21.4531 103.651 21.2812C104.05 21.1094 104.343 20.8711 104.53 20.5664C104.726 20.2617 104.823 19.918 104.823 19.5352Z" fill="#94A3B8"/>
</svg>
