<svg width="134" height="32" viewBox="0 0 134 32" fill="none" xmlns="http://www.w3.org/2000/svg">
<path fill-rule="evenodd" clip-rule="evenodd" d="M16.1607 32C24.9972 32 32.1607 24.8366 32.1607 16C32.1607 7.16345 24.9972 0 16.1607 0C7.32408 0 0.160645 7.16345 0.160645 16C0.160645 24.8366 7.32408 32 16.1607 32ZM21.1521 7.45348C21.3951 6.59044 20.5576 6.08011 19.7927 6.62504L9.11514 14.2317C8.28562 14.8226 8.4161 16 9.31114 16H12.1228V15.9782H17.6027L13.1376 17.5537L11.1692 24.5466C10.9263 25.4096 11.7637 25.9199 12.5287 25.375L23.2062 17.7684C24.0357 17.1774 23.9052 16 23.0102 16H18.7464L21.1521 7.45348Z" fill="#94A3B8"/>
<path d="M54.0239 21.2578V24H41.9302V21.2578H54.0239ZM53.8481 8.89453L43.4888 24H41.0161V21.9844L51.4575 6.9375H53.8481V8.89453ZM52.6411 6.9375V9.69141H41.0278V6.9375H52.6411ZM55.2544 17.7891V17.543C55.2544 16.6133 55.3872 15.7578 55.6528 14.9766C55.9185 14.1875 56.3052 13.5039 56.813 12.9258C57.3208 12.3477 57.9458 11.8984 58.688 11.5781C59.4302 11.25 60.2817 11.0859 61.2427 11.0859C62.2036 11.0859 63.0591 11.25 63.8091 11.5781C64.5591 11.8984 65.188 12.3477 65.6958 12.9258C66.2114 13.5039 66.6021 14.1875 66.8677 14.9766C67.1333 15.7578 67.2661 16.6133 67.2661 17.543V17.7891C67.2661 18.7109 67.1333 19.5664 66.8677 20.3555C66.6021 21.1367 66.2114 21.8203 65.6958 22.4062C65.188 22.9844 64.563 23.4336 63.8208 23.7539C63.0786 24.0742 62.2271 24.2344 61.2661 24.2344C60.3052 24.2344 59.4497 24.0742 58.6997 23.7539C57.9575 23.4336 57.3286 22.9844 56.813 22.4062C56.3052 21.8203 55.9185 21.1367 55.6528 20.3555C55.3872 19.5664 55.2544 18.7109 55.2544 17.7891ZM58.6294 17.543V17.7891C58.6294 18.3203 58.6763 18.8164 58.77 19.2773C58.8638 19.7383 59.0122 20.1445 59.2153 20.4961C59.4263 20.8398 59.6997 21.1094 60.0356 21.3047C60.3716 21.5 60.7817 21.5977 61.2661 21.5977C61.7349 21.5977 62.1372 21.5 62.4731 21.3047C62.8091 21.1094 63.0786 20.8398 63.2817 20.4961C63.4849 20.1445 63.6333 19.7383 63.7271 19.2773C63.8286 18.8164 63.8794 18.3203 63.8794 17.7891V17.543C63.8794 17.0273 63.8286 16.543 63.7271 16.0898C63.6333 15.6289 63.481 15.2227 63.27 14.8711C63.0669 14.5117 62.7974 14.2305 62.4614 14.0273C62.1255 13.8242 61.7192 13.7227 61.2427 13.7227C60.7661 13.7227 60.3599 13.8242 60.0239 14.0273C59.6958 14.2305 59.4263 14.5117 59.2153 14.8711C59.0122 15.2227 58.8638 15.6289 58.77 16.0898C58.6763 16.543 58.6294 17.0273 58.6294 17.543ZM68.8013 17.7891V17.543C68.8013 16.6133 68.9341 15.7578 69.1997 14.9766C69.4653 14.1875 69.8521 13.5039 70.3599 12.9258C70.8677 12.3477 71.4927 11.8984 72.2349 11.5781C72.9771 11.25 73.8286 11.0859 74.7896 11.0859C75.7505 11.0859 76.606 11.25 77.356 11.5781C78.106 11.8984 78.7349 12.3477 79.2427 12.9258C79.7583 13.5039 80.1489 14.1875 80.4146 14.9766C80.6802 15.7578 80.813 16.6133 80.813 17.543V17.7891C80.813 18.7109 80.6802 19.5664 80.4146 20.3555C80.1489 21.1367 79.7583 21.8203 79.2427 22.4062C78.7349 22.9844 78.1099 23.4336 77.3677 23.7539C76.6255 24.0742 75.7739 24.2344 74.813 24.2344C73.8521 24.2344 72.9966 24.0742 72.2466 23.7539C71.5044 23.4336 70.8755 22.9844 70.3599 22.4062C69.8521 21.8203 69.4653 21.1367 69.1997 20.3555C68.9341 19.5664 68.8013 18.7109 68.8013 17.7891ZM72.1763 17.543V17.7891C72.1763 18.3203 72.2231 18.8164 72.3169 19.2773C72.4106 19.7383 72.5591 20.1445 72.7622 20.4961C72.9731 20.8398 73.2466 21.1094 73.5825 21.3047C73.9185 21.5 74.3286 21.5977 74.813 21.5977C75.2817 21.5977 75.6841 21.5 76.02 21.3047C76.356 21.1094 76.6255 20.8398 76.8286 20.4961C77.0317 20.1445 77.1802 19.7383 77.2739 19.2773C77.3755 18.8164 77.4263 18.3203 77.4263 17.7891V17.543C77.4263 17.0273 77.3755 16.543 77.2739 16.0898C77.1802 15.6289 77.0278 15.2227 76.8169 14.8711C76.6138 14.5117 76.3442 14.2305 76.0083 14.0273C75.6724 13.8242 75.2661 13.7227 74.7896 13.7227C74.313 13.7227 73.9067 13.8242 73.5708 14.0273C73.2427 14.2305 72.9731 14.5117 72.7622 14.8711C72.5591 15.2227 72.4106 15.6289 72.3169 16.0898C72.2231 16.543 72.1763 17.0273 72.1763 17.543ZM86.2622 13.9453V24H82.8755V11.3203H86.0513L86.2622 13.9453ZM85.7935 17.2148H84.856C84.856 16.332 84.9614 15.5195 85.1724 14.7773C85.3911 14.0273 85.7075 13.3789 86.1216 12.832C86.5435 12.2773 87.063 11.8477 87.6802 11.543C88.2974 11.2383 89.0122 11.0859 89.8247 11.0859C90.3872 11.0859 90.9028 11.1719 91.3716 11.3438C91.8403 11.5078 92.2427 11.7695 92.5786 12.1289C92.9224 12.4805 93.188 12.9414 93.3755 13.5117C93.563 14.0742 93.6567 14.75 93.6567 15.5391V24H90.2817V15.9141C90.2817 15.3359 90.2036 14.8906 90.0474 14.5781C89.8911 14.2656 89.6685 14.0469 89.3794 13.9219C89.0981 13.7969 88.7583 13.7344 88.3599 13.7344C87.9224 13.7344 87.5396 13.8242 87.2114 14.0039C86.8911 14.1836 86.6255 14.4336 86.4146 14.7539C86.2036 15.0664 86.0474 15.4336 85.9458 15.8555C85.8442 16.2773 85.7935 16.7305 85.7935 17.2148ZM93.3403 16.8281L92.1333 16.9805C92.1333 16.1523 92.2349 15.3828 92.438 14.6719C92.6489 13.9609 92.9575 13.3359 93.3638 12.7969C93.7778 12.2578 94.2896 11.8398 94.8989 11.543C95.5083 11.2383 96.2114 11.0859 97.0083 11.0859C97.6177 11.0859 98.1724 11.1758 98.6724 11.3555C99.1724 11.5273 99.5981 11.8047 99.9497 12.1875C100.309 12.5625 100.583 13.0547 100.77 13.6641C100.965 14.2734 101.063 15.0195 101.063 15.9023V24H97.6763V15.9023C97.6763 15.3164 97.5981 14.8711 97.4419 14.5664C97.2935 14.2539 97.0747 14.0391 96.7856 13.9219C96.5044 13.7969 96.1685 13.7344 95.7778 13.7344C95.3716 13.7344 95.0161 13.8164 94.7114 13.9805C94.4067 14.1367 94.1528 14.3555 93.9497 14.6367C93.7466 14.918 93.5942 15.2461 93.4927 15.6211C93.3911 15.9883 93.3403 16.3906 93.3403 16.8281ZM109.512 24.2344C108.528 24.2344 107.645 24.0781 106.864 23.7656C106.083 23.4453 105.418 23.0039 104.872 22.4414C104.333 21.8789 103.918 21.2266 103.629 20.4844C103.34 19.7344 103.196 18.9375 103.196 18.0938V17.625C103.196 16.6641 103.333 15.7852 103.606 14.9883C103.879 14.1914 104.27 13.5 104.778 12.9141C105.293 12.3281 105.918 11.8789 106.653 11.5664C107.387 11.2461 108.215 11.0859 109.137 11.0859C110.036 11.0859 110.833 11.2344 111.528 11.5312C112.223 11.8281 112.805 12.25 113.274 12.7969C113.75 13.3438 114.11 14 114.352 14.7656C114.594 15.5234 114.715 16.3672 114.715 17.2969V18.7031H104.637V16.4531H111.399V16.1953C111.399 15.7266 111.313 15.3086 111.141 14.9414C110.977 14.5664 110.727 14.2695 110.391 14.0508C110.055 13.832 109.625 13.7227 109.102 13.7227C108.657 13.7227 108.274 13.8203 107.954 14.0156C107.633 14.2109 107.372 14.4844 107.168 14.8359C106.973 15.1875 106.825 15.6016 106.723 16.0781C106.629 16.5469 106.583 17.0625 106.583 17.625V18.0938C106.583 18.6016 106.653 19.0703 106.793 19.5C106.942 19.9297 107.149 20.3008 107.415 20.6133C107.688 20.9258 108.016 21.168 108.399 21.3398C108.79 21.5117 109.231 21.5977 109.723 21.5977C110.333 21.5977 110.899 21.4805 111.422 21.2461C111.954 21.0039 112.411 20.6406 112.793 20.1562L114.434 21.9375C114.168 22.3203 113.805 22.6875 113.344 23.0391C112.891 23.3906 112.344 23.6797 111.704 23.9062C111.063 24.125 110.333 24.2344 109.512 24.2344ZM120.012 14.0859V24H116.637V11.3203H119.813L120.012 14.0859ZM123.833 11.2383L123.774 14.3672C123.61 14.3438 123.411 14.3242 123.176 14.3086C122.95 14.2852 122.743 14.2734 122.555 14.2734C122.079 14.2734 121.665 14.3359 121.313 14.4609C120.969 14.5781 120.68 14.7539 120.446 14.9883C120.219 15.2227 120.047 15.5078 119.93 15.8438C119.821 16.1797 119.758 16.5625 119.743 16.9922L119.063 16.7812C119.063 15.9609 119.145 15.207 119.309 14.5195C119.473 13.8242 119.711 13.2188 120.024 12.7031C120.344 12.1875 120.735 11.7891 121.196 11.5078C121.657 11.2266 122.184 11.0859 122.778 11.0859C122.965 11.0859 123.157 11.1016 123.352 11.1328C123.547 11.1562 123.708 11.1914 123.833 11.2383ZM128.801 14.0859V24H125.426V11.3203H128.602L128.801 14.0859ZM132.622 11.2383L132.563 14.3672C132.399 14.3438 132.2 14.3242 131.965 14.3086C131.739 14.2852 131.532 14.2734 131.344 14.2734C130.868 14.2734 130.454 14.3359 130.102 14.4609C129.758 14.5781 129.469 14.7539 129.235 14.9883C129.008 15.2227 128.836 15.5078 128.719 15.8438C128.61 16.1797 128.547 16.5625 128.532 16.9922L127.852 16.7812C127.852 15.9609 127.934 15.207 128.098 14.5195C128.262 13.8242 128.5 13.2188 128.813 12.7031C129.133 12.1875 129.524 11.7891 129.985 11.5078C130.446 11.2266 130.973 11.0859 131.567 11.0859C131.754 11.0859 131.946 11.1016 132.141 11.1328C132.336 11.1562 132.497 11.1914 132.622 11.2383Z" fill="#94A3B8"/>
</svg>
