<svg width="121" height="120" viewBox="0 0 121 120" fill="none" xmlns="http://www.w3.org/2000/svg">
<circle cx="61" cy="60" r="49" fill="#E8F1FB" stroke="#E8F1FB" stroke-width="2"/>
<circle cx="61" cy="60" r="40" fill="#94BEEE"/>
<g clip-path="url(#clip0_3803_14159)">
<path d="M88.7114 44.0001L81.2854 39.7126L76.999 32.2878H68.4253L60.9993 28.0002L53.5734 32.2878H44.9997L40.7121 39.7137L33.2875 44.0001V52.5739L29 59.9998L33.2875 67.4257V75.9995L40.7134 80.287L45.001 87.7129H53.5747L60.9995 91.9993L68.4254 87.7118H76.9992L81.2867 80.2859L88.7127 75.9983V67.4246L93.0002 59.9987L88.7127 52.5728L88.7114 44.0001ZM58.1112 73.0969C57.5146 73.6935 56.7285 73.9835 55.946 73.9726C55.1632 73.9837 54.3773 73.6935 53.7807 73.0969L44.4219 63.7382C43.2496 62.5658 43.2496 60.664 44.4219 59.4916L46.8995 57.0141C48.0718 55.8417 49.9737 55.8417 51.146 57.0141L55.946 61.8141L70.852 46.9069C72.0243 45.7346 73.9261 45.7346 75.0985 46.9069L77.576 49.3845C78.7484 50.5568 78.7484 52.4587 77.576 53.631L58.1112 73.0969Z" fill="#1671D9"/>
<path d="M58.1112 73.0969C57.5146 73.6935 56.7285 73.9835 55.946 73.9726C55.1632 73.9837 54.3773 73.6935 53.7807 73.0969L44.4219 63.7382C43.2496 62.5658 43.2496 60.664 44.4219 59.4916L46.8995 57.0141C48.0718 55.8417 49.9737 55.8417 51.146 57.0141L55.946 61.8141L70.852 46.9069C72.0243 45.7346 73.9261 45.7346 75.0985 46.9069L77.576 49.3845C78.7484 50.5568 78.7484 52.4587 77.576 53.631L58.1112 73.0969Z" fill="#E8F1FB"/>
</g>
<defs>
<clipPath id="clip0_3803_14159">
<rect width="64" height="64" fill="white" transform="translate(29 28)"/>
</clipPath>
</defs>
</svg>
