<svg width="19" height="19" viewBox="0 0 19 19" fill="none" xmlns="http://www.w3.org/2000/svg">
<g clip-path="url(#clip0_3614_8012)">
<path d="M12.0516 17.4219V14.4219C12.1559 13.4823 11.8866 12.5395 11.3016 11.7969C13.5516 11.7969 15.8016 10.2969 15.8016 7.67188C15.8616 6.73438 15.5991 5.81187 15.0516 5.04688C15.2616 4.18438 15.2616 3.28437 15.0516 2.42188C15.0516 2.42188 14.3016 2.42188 12.8016 3.54688C10.8216 3.17188 8.7816 3.17188 6.8016 3.54688C5.3016 2.42188 4.5516 2.42188 4.5516 2.42188C4.3266 3.28437 4.3266 4.18438 4.5516 5.04688C4.00551 5.80879 3.74046 6.73646 3.8016 7.67188C3.8016 10.2969 6.0516 11.7969 8.3016 11.7969C8.0091 12.1644 7.7916 12.5844 7.6641 13.0344C7.5366 13.4844 7.4991 13.9569 7.5516 14.4219V17.4219" stroke="#7D7D7D" stroke-width="2" stroke-linecap="round" stroke-linejoin="round"/>
<path d="M7.55176 14.4219C4.16926 15.9219 3.80176 12.9219 2.30176 12.9219" stroke="#7D7D7D" stroke-width="2" stroke-linecap="round" stroke-linejoin="round"/>
</g>
<defs>
<clipPath id="clip0_3614_8012">
<rect width="18" height="18" fill="white" transform="translate(0.801758 0.921875)"/>
</clipPath>
</defs>
</svg>
