<svg width="19" height="19" viewBox="0 0 19 19" fill="none" xmlns="http://www.w3.org/2000/svg">
<g clip-path="url(#clip0_3614_8573)">
<path d="M13.5518 2.42188H6.05176C3.98069 2.42188 2.30176 4.10081 2.30176 6.17188V13.6719C2.30176 15.7429 3.98069 17.4219 6.05176 17.4219H13.5518C15.6228 17.4219 17.3018 15.7429 17.3018 13.6719V6.17188C17.3018 4.10081 15.6228 2.42188 13.5518 2.42188Z" stroke="#7D7D7D" stroke-width="2" stroke-linecap="round" stroke-linejoin="round"/>
<path d="M12.8015 9.45058C12.8941 10.0748 12.7875 10.7122 12.4969 11.2723C12.2062 11.8324 11.7464 12.2866 11.1828 12.5703C10.6191 12.854 9.98037 12.9528 9.35738 12.8525C8.73438 12.7523 8.15886 12.4581 7.71267 12.0119C7.26648 11.5658 6.97234 10.9902 6.87209 10.3672C6.77184 9.74424 6.87059 9.1055 7.15428 8.54186C7.43798 7.97822 7.89218 7.51838 8.45228 7.22776C9.01238 6.93713 9.64985 6.83052 10.274 6.92308C10.9107 7.01749 11.5002 7.31418 11.9553 7.76931C12.4104 8.22444 12.7071 8.81389 12.8015 9.45058Z" stroke="#7D7D7D" stroke-width="2" stroke-linecap="round" stroke-linejoin="round"/>
<path d="M13.9268 5.79688H13.9343" stroke="#7D7D7D" stroke-width="2" stroke-linecap="round" stroke-linejoin="round"/>
</g>
<defs>
<clipPath id="clip0_3614_8573">
<rect width="18" height="18" fill="white" transform="translate(0.801758 0.921875)"/>
</clipPath>
</defs>
</svg>
