<svg width="19" height="19" viewBox="0 0 19 19" fill="none" xmlns="http://www.w3.org/2000/svg">
<path fill-rule="evenodd" clip-rule="evenodd" d="M15.9902 3.00863L3.39821 7.56163L7.59321 9.98963L11.2922 6.28963C11.4799 6.10212 11.7343 5.99683 11.9996 5.99692C12.2648 5.99702 12.5192 6.10248 12.7067 6.29013C12.8942 6.47777 12.9995 6.73221 12.9994 6.99748C12.9993 7.26275 12.8939 7.51712 12.7062 7.70463L9.00621 11.4046L11.4362 15.5986L15.9902 3.00863ZM16.3132 0.764625C17.5082 0.331625 18.6662 1.48963 18.2332 2.68463L12.9512 17.2896C12.5172 18.4876 10.8812 18.6336 10.2422 17.5306L7.02521 11.9726L1.46721 8.75563C0.364212 8.11663 0.510213 6.48063 1.70821 6.04663L16.3132 0.764625Z" fill="#121316"/>
</svg>
