<svg width="219" height="238" viewBox="0 0 219 238" fill="none" xmlns="http://www.w3.org/2000/svg">
<path opacity="0.8" fill-rule="evenodd" clip-rule="evenodd" d="M128.764 33.0726C153.681 23.1563 176.203 -8.3945 200.87 2.11599C223.55 11.7792 217.015 47.0594 218.842 71.4534C220.268 90.4944 211.59 107.628 210.199 126.672C208.135 154.919 225.62 186.678 208.754 209.543C191.68 232.689 157.428 240.979 128.764 237.072C101.33 233.332 85.4758 206.166 63.3114 189.716C41.603 173.605 -4.62914 168.2 0.376048 141.788C6.69138 108.461 59.7871 110.626 83.0174 85.7261C92.3022 75.7741 80.3102 56.8151 89.2339 46.544C98.5528 35.818 115.509 38.3475 128.764 33.0726Z" fill="#B7D3F3"/>
</svg>
