<svg width="297" height="293" viewBox="0 0 297 293" fill="none" xmlns="http://www.w3.org/2000/svg">
<path opacity="0.8" fill-rule="evenodd" clip-rule="evenodd" d="M141.339 1.07193C165.643 -4.49415 188.755 12.8386 210.979 24.9305C235.661 38.3601 262.926 49.7977 277.656 75.2415C293.194 102.083 302.692 136.979 293.222 166.998C283.94 196.421 249.787 204.609 229.833 226.84C211.568 247.19 206.432 283.97 181.305 291.688C156.155 299.414 134.2 270.783 108.821 264.013C81.6821 256.774 49.0634 270.23 27.6178 250.693C5.97637 230.977 -2.05848 195.917 0.439243 165.275C2.77431 136.629 23.3661 114.783 40.4793 92.9101C53.7659 75.928 72.5416 67.3433 88.2532 53.037C106.883 36.0739 117.593 6.51031 141.339 1.07193Z" fill="#F8E6F8"/>
</svg>
